<?xml version="1.0" encoding="UTF-8" standalone="no"?>
<!-- Created with Inkscape (http://www.inkscape.org/) -->

<svg
   xmlns:dc="http://purl.org/dc/elements/1.1/"
   xmlns:cc="http://creativecommons.org/ns#"
   xmlns:rdf="http://www.w3.org/1999/02/22-rdf-syntax-ns#"
   xmlns:svg="http://www.w3.org/2000/svg"
   xmlns="http://www.w3.org/2000/svg"
   xmlns:sodipodi="http://sodipodi.sourceforge.net/DTD/sodipodi-0.dtd"
   xmlns:inkscape="http://www.inkscape.org/namespaces/inkscape"
   width="24"
   height="24.000319"
   id="svg2"
   version="1.1"
   inkscape:version="0.48.2 r9819"
   sodipodi:docname="ovc-mute-tiny.svg">
  <defs
     id="defs4" />
  <sodipodi:namedview
     id="base"
     pagecolor="#ffffff"
     bordercolor="#666666"
     borderopacity="1.0"
     inkscape:pageopacity="0.0"
     inkscape:pageshadow="2"
     inkscape:zoom="11.945441"
     inkscape:cx="27.499962"
     inkscape:cy="27.500272"
     inkscape:document-units="px"
     inkscape:current-layer="layer1"
     showgrid="false"
     inkscape:window-width="1436"
     inkscape:window-height="856"
     inkscape:window-x="-2"
     inkscape:window-y="0"
     inkscape:window-maximized="0"
     showborder="false"
     inkscape:showpageshadow="false"
     fit-margin-top="0"
     fit-margin-left="0"
     fit-margin-right="0"
     fit-margin-bottom="0" />
  <metadata
     id="metadata7">
    <rdf:RDF>
      <cc:Work
         rdf:about="">
        <dc:format>image/svg+xml</dc:format>
        <dc:type
           rdf:resource="http://purl.org/dc/dcmitype/StillImage" />
        <dc:title />
      </cc:Work>
    </rdf:RDF>
  </metadata>
  <g
     inkscape:label="Layer 1"
     inkscape:groupmode="layer"
     id="layer1"
     transform="translate(0,-1028.3622)">
    <g
       id="g4429"
       transform="matrix(0.06658701,0,0,0.0665882,-25.555072,982.2733)">
      <path
         transform="matrix(1.3421725,0,0,1.3421725,-190.49273,548.029)"
         d="m 695.71431,241.6479 c 0,73.76947 -59.80196,133.57143 -133.57143,133.57143 -73.76946,0 -133.57142,-59.80196 -133.57142,-133.57143 0,-73.76946 59.80196,-133.57142 133.57142,-133.57142 73.76947,0 133.57143,59.80196 133.57143,133.57142 z"
         sodipodi:ry="133.57143"
         sodipodi:rx="133.57143"
         sodipodi:cy="241.6479"
         sodipodi:cx="562.14288"
         id="path2996"
         style="opacity:0.96551723;fill:#000000;fill-opacity:1;stroke:#000000;stroke-width:1.079;stroke-miterlimit:4;stroke-opacity:1;stroke-dasharray:none"
         sodipodi:type="arc" />
      <path
         style="fill:#5694f1;fill-opacity:1;stroke:none"
         d="m 404,911.57465 0,-80.36201 c 0,0 200,-42.73164 200,-108.8505 0,-83.94946 0,375.93956 0,300.00006 0,-65.18336 -200,-110.78755 -200,-110.78755 z"
         id="path4403"
         inkscape:connector-curvature="0"
         sodipodi:nodetypes="ccssc" />
      <path
         sodipodi:nodetypes="ccc"
         inkscape:connector-curvature="0"
         id="path4417"
         d="m 626.3125,783.99152 c 21.26059,33.09211 40.06203,50.04195 40.06203,88.68037 0,41.5946 -20.23496,61.79027 -40.06203,92.65111"
         style="fill:none;stroke:#5694f1;stroke-width:7.14872026;stroke-linecap:butt;stroke-linejoin:miter;stroke-miterlimit:4;stroke-opacity:1;stroke-dasharray:none" />
      <path
         style="fill:none;stroke:#5694f1;stroke-width:12.89341259;stroke-linecap:butt;stroke-linejoin:miter;stroke-miterlimit:4;stroke-opacity:1;stroke-dasharray:none"
         d="m 652.65477,748.79719 c 26.43665,45.78962 49.81546,69.24315 49.81546,122.7072 0,57.55455 -25.16133,85.49933 -49.81546,128.20154"
         id="path4419"
         inkscape:connector-curvature="0"
         sodipodi:nodetypes="ccc" />
      <path
         sodipodi:nodetypes="ccc"
         inkscape:connector-curvature="0"
         id="path4421"
         d="m 640.3125,765.64343 c 22.5544,39.06536 42.5,59.07471 42.5,104.6875 0,49.1026 -21.46636,72.94366 -42.5,109.375"
         style="fill:none;stroke:#5694f1;stroke-width:9;stroke-linecap:butt;stroke-linejoin:miter;stroke-miterlimit:4;stroke-opacity:1;stroke-dasharray:none" />
    </g>
    <rect
       style="fill:#000000;fill-opacity:0;stroke:none"
       id="rect2999"
       width="24"
       height="24"
       x="0"
       y="1028.3622" />
  </g>
</svg>
