<?xml version="1.0" encoding="UTF-8" standalone="no"?>
<!-- Generator: Adobe Illustrator 15.1.0, SVG Export Plug-In . SVG Version: 6.00 Build 0)  -->

<svg
   xmlns:dc="http://purl.org/dc/elements/1.1/"
   xmlns:cc="http://creativecommons.org/ns#"
   xmlns:rdf="http://www.w3.org/1999/02/22-rdf-syntax-ns#"
   xmlns:svg="http://www.w3.org/2000/svg"
   xmlns="http://www.w3.org/2000/svg"
   xmlns:sodipodi="http://sodipodi.sourceforge.net/DTD/sodipodi-0.dtd"
   xmlns:inkscape="http://www.inkscape.org/namespaces/inkscape"
   version="1.1"
   id="svg2"
   inkscape:version="0.48.2 r9819"
   sodipodi:docname="ovc_unmute.svg"
   x="0px"
   y="0px"
   width="24.000147"
   height="24.000317"
   viewBox="0 -193.9 24.000146 24.000318"
   enable-background="new 0 -193.9 1177.253 2067.733"
   xml:space="preserve"><metadata
   id="metadata178"><rdf:RDF><cc:Work
       rdf:about=""><dc:format>image/svg+xml</dc:format><dc:type
         rdf:resource="http://purl.org/dc/dcmitype/StillImage" /></cc:Work></rdf:RDF></metadata><defs
   id="defs176">
	
		
	
	

	
		
	
	
	
	

	
		
	

	
		
	

	
		
	
	
	
	
</defs>
<sodipodi:namedview
   id="base"
   inkscape:window-maximized="0"
   inkscape:window-y="0"
   inkscape:window-x="-2"
   inkscape:window-height="856"
   inkscape:window-width="1436"
   inkscape:current-layer="svg2"
   inkscape:document-units="px"
   inkscape:pageshadow="2"
   inkscape:pageopacity="0.0"
   showgrid="false"
   pagecolor="#ffffff"
   inkscape:cx="-11.777489"
   inkscape:zoom="0.61197598"
   borderopacity="1.0"
   inkscape:cy="301.42421"
   bordercolor="#666666"
   fit-margin-top="0"
   fit-margin-left="0"
   fit-margin-right="0"
   fit-margin-bottom="0">
	</sodipodi:namedview>















<g
   id="g3226"
   transform="matrix(0.06658772,0,0,0.06663066,-53.875782,-266.22864)"><g
     transform="matrix(1.3421726,0,0,1.3413172,234.81657,941.48904)"
     id="g4429">
	
		<path
   style="opacity:0.9655;stroke:#000000;stroke-width:1.079"
   d="m 695.71431,241.6479 c 0,73.76947 -59.80196,133.57143 -133.57143,133.57143 -73.76946,0 -133.57142,-59.80196 -133.57142,-133.57143 0,-73.76946 59.80196,-133.57142 133.57142,-133.57142 73.76947,0 133.57143,59.80196 133.57143,133.57142 z"
   enable-background="new    "
   sodipodi:ry="133.57143"
   sodipodi:rx="133.57143"
   sodipodi:cy="241.6479"
   sodipodi:cx="562.14288"
   sodipodi:type="arc"
   id="path2996" />
</g><g
     transform="translate(2.6038453,10.925584)"
     id="g3194"><g
       id="g69">
	<path
   style="fill:none;stroke:#5694f1;stroke-width:18;stroke-linecap:round"
   inkscape:connector-curvature="0"
   d="m 1050.603,1304.436 c 15.891,0 32.772,-21.188 32.772,-47.323 0,-26.135 -16.882,-47.322 -32.772,-47.322"
   id="path71" />
</g><g
       id="g73">
	<path
   style="fill:none;stroke:#5694f1;stroke-width:18;stroke-linecap:round"
   inkscape:connector-curvature="0"
   d="m 1066.989,1340.388 c 30.418,0 61.071,-37.283 61.071,-83.275 0,-45.99 -30.655,-83.273 -61.071,-83.274"
   id="path75" />
</g><path
       style="fill:#5694f1"
       id="path4403_2_"
       inkscape:connector-curvature="0"
       sodipodi:nodetypes="ccssc"
       d="m 836.351,1287.716 c 0,-22.462 0,-51.808 0,-69.933 0,-18.125 164.042,-37.186 164.042,-94.723 0,-7.518 23,-6.131 23,26.151 0,29.069 0,173.325 0,209.661 0,44.375 -23,29.836 -23,25.25 0,-56.723 -164.042,-73.944 -164.042,-96.406 z" /></g></g>






</svg>