<?xml version="1.0" encoding="UTF-8" standalone="no"?>
<!-- Generator: Adobe Illustrator 15.1.0, SVG Export Plug-In . SVG Version: 6.00 Build 0)  -->

<svg
   xmlns:dc="http://purl.org/dc/elements/1.1/"
   xmlns:cc="http://creativecommons.org/ns#"
   xmlns:rdf="http://www.w3.org/1999/02/22-rdf-syntax-ns#"
   xmlns:svg="http://www.w3.org/2000/svg"
   xmlns="http://www.w3.org/2000/svg"
   xmlns:sodipodi="http://sodipodi.sourceforge.net/DTD/sodipodi-0.dtd"
   xmlns:inkscape="http://www.inkscape.org/namespaces/inkscape"
   version="1.1"
   id="svg2"
   inkscape:version="0.48.2 r9819"
   sodipodi:docname="ovc_mic_off.svg"
   x="0px"
   y="0px"
   width="24.000147"
   height="24.000317"
   viewBox="0 -193.9 24.000146 24.000318"
   enable-background="new 0 -193.9 1177.253 2067.733"
   xml:space="preserve"><metadata
   id="metadata178"><rdf:RDF><cc:Work
       rdf:about=""><dc:format>image/svg+xml</dc:format><dc:type
         rdf:resource="http://purl.org/dc/dcmitype/StillImage" /></cc:Work></rdf:RDF></metadata><defs
   id="defs176">
	
		
	
	

	
		
	
	
	
	

	
		
	

	
		
	

	
		
	
	
	
	
</defs>
<sodipodi:namedview
   id="base"
   inkscape:window-maximized="0"
   inkscape:window-y="0"
   inkscape:window-x="-2"
   inkscape:window-height="856"
   inkscape:window-width="1436"
   inkscape:current-layer="svg2"
   inkscape:document-units="px"
   inkscape:pageshadow="2"
   inkscape:pageopacity="0.0"
   showgrid="false"
   pagecolor="#ffffff"
   inkscape:cx="744.5877"
   inkscape:zoom="0.61197598"
   borderopacity="1.0"
   inkscape:cy="389.01446"
   bordercolor="#666666"
   fit-margin-top="0"
   fit-margin-left="0"
   fit-margin-right="0"
   fit-margin-bottom="0">
	</sodipodi:namedview>







<g
   id="g3297"
   transform="matrix(0.06658772,0,0,0.06663066,-3.6443211,-211.09321)"><path
     transform="matrix(1.3421726,0,0,1.3413172,-519.54866,114.01063)"
     style="opacity:0.9655;stroke:#000000;stroke-width:1.079"
     d="m 695.71431,241.6479 c 0,73.76947 -59.80196,133.57143 -133.57143,133.57143 -73.76946,0 -133.57142,-59.80196 -133.57142,-133.57143 0,-73.76946 59.80196,-133.57142 133.57142,-133.57142 73.76947,0 133.57143,59.80196 133.57143,133.57142 z"
     enable-background="new    "
     sodipodi:ry="133.57143"
     sodipodi:rx="133.57143"
     sodipodi:cy="241.6479"
     sodipodi:cx="562.14288"
     sodipodi:type="arc"
     id="path3242" /><g
     transform="translate(10.992119,28.496135)"
     id="g3287"><g
       id="g54">
		<g
   id="g56">
			<path
   style="fill:#5694f1"
   inkscape:connector-curvature="0"
   id="path58"
   d="m 223.958,548.012 c -33.746,0 -58.548,-7.538 -75.829,-23.068 -29.865,-26.863 -29.521,-69.956 -29.107,-119.881 0.034,-5.856 0.098,-11.838 0.098,-17.906 h 39.286 c 0,6.154 -0.034,12.223 -0.086,18.176 -0.351,42.083 -0.66,78.413 17.7,94.913 9.513,8.549 25.192,12.711 47.938,12.711 22.741,0 38.414,-4.162 47.922,-12.711 18.354,-16.488 18.056,-52.83 17.705,-94.913 -0.052,-5.954 -0.098,-12.022 -0.098,-18.176 h 39.31 c 0,6.068 0.041,12.05 0.087,17.906 0.413,49.925 0.769,93.042 -29.108,119.881 -17.27,15.53 -42.083,23.068 -75.818,23.068 z" />
		</g>
	</g><g
       id="g60">
		<path
   style="fill:#5694f1"
   inkscape:connector-curvature="0"
   id="path62"
   d="m 228.683,374.681 c -4.26,0 -7.716,-3.457 -7.716,-7.716 0,-4.259 3.456,-7.716 7.716,-7.716 h 38.736 v -15.57 h -38.736 c -4.26,0 -7.716,-3.468 -7.716,-7.728 0,-4.26 3.456,-7.716 7.716,-7.716 h 38.736 v -18.05 c 0,-24.239 -19.204,-43.897 -42.898,-43.897 -23.693,0 -42.886,19.658 -42.886,43.897 v 137.007 c 0,24.228 19.192,43.896 42.886,43.896 23.694,0 42.898,-19.669 42.898,-43.896 v -39.683 h -38.736 c -4.26,0 -7.716,-3.456 -7.716,-7.716 0,-4.26 3.456,-7.716 7.716,-7.716 h 38.736 v -17.396 h -38.736 z" />
	</g><path
       style="fill:none;stroke:#e60000;stroke-width:19"
       d="M 79.359,310.086 373.906,492.939"
       inkscape:connector-curvature="0"
       id="path4401_1_" /><circle
       d="m 393.14999,409.64099 c 0,93.44548 -75.75252,169.198 -169.19799,169.198 -93.44548,0 -169.198002,-75.75252 -169.198002,-169.198 0,-93.44547 75.752522,-169.198 169.198002,-169.198 93.44547,0 169.19799,75.75253 169.19799,169.198 z"
       style="fill:none;stroke:#e60000;stroke-width:21.37949944"
       sodipodi:ry="169.198"
       sodipodi:rx="169.198"
       sodipodi:cy="409.64099"
       sodipodi:cx="223.952"
       id="circle65"
       r="169.198"
       cy="409.64099"
       cx="223.952" /></g></g>














</svg>