<?xml version="1.0" encoding="UTF-8" standalone="no"?>
<!-- Generator: Adobe Illustrator 15.1.0, SVG Export Plug-In . SVG Version: 6.00 Build 0)  -->

<svg
   xmlns:dc="http://purl.org/dc/elements/1.1/"
   xmlns:cc="http://creativecommons.org/ns#"
   xmlns:rdf="http://www.w3.org/1999/02/22-rdf-syntax-ns#"
   xmlns:svg="http://www.w3.org/2000/svg"
   xmlns="http://www.w3.org/2000/svg"
   xmlns:sodipodi="http://sodipodi.sourceforge.net/DTD/sodipodi-0.dtd"
   xmlns:inkscape="http://www.inkscape.org/namespaces/inkscape"
   version="1.1"
   id="svg2"
   inkscape:version="0.48.2 r9819"
   sodipodi:docname="ovc_webcam_off.svg"
   x="0px"
   y="0px"
   width="24.000147"
   height="24.000002"
   viewBox="0 -193.9 24.000147 24.000003"
   enable-background="new 0 -193.9 1177.253 2067.733"
   xml:space="preserve"><metadata
   id="metadata178"><rdf:RDF><cc:Work
       rdf:about=""><dc:format>image/svg+xml</dc:format><dc:type
         rdf:resource="http://purl.org/dc/dcmitype/StillImage" /></cc:Work></rdf:RDF></metadata><defs
   id="defs176">
	
		
	
	

	
		
	
	
	
	

	
		
	

	
		
	

	
		
	
	
	
	

		
	
		
	</defs>
<sodipodi:namedview
   id="base"
   inkscape:window-maximized="0"
   inkscape:window-y="0"
   inkscape:window-x="-2"
   inkscape:window-height="856"
   inkscape:window-width="1436"
   inkscape:current-layer="svg2"
   inkscape:document-units="px"
   inkscape:pageshadow="2"
   inkscape:pageopacity="0.0"
   showgrid="false"
   pagecolor="#ffffff"
   inkscape:cx="-95.428414"
   inkscape:zoom="0.61197598"
   borderopacity="1.0"
   inkscape:cy="-104.90648"
   bordercolor="#666666"
   fit-margin-top="0"
   fit-margin-left="0"
   fit-margin-right="0"
   fit-margin-bottom="0">
	</sodipodi:namedview>






















<g
   id="g3191"
   transform="matrix(0.06658772,0,0,0.06662978,-40.68301,-157.44697)"><g
     transform="translate(164.08953,-389.35351)"
     id="g3145"><g
       transform="matrix(1.3421726,0,0,1.3413172,-127.39954,-301.77149)"
       id="g3147">
	
		<path
   style="opacity:0.9655;stroke:#000000;stroke-width:1.079"
   d="m 695.71431,241.6479 c 0,73.76947 -59.80196,133.57143 -133.57143,133.57143 -73.76946,0 -133.57142,-59.80196 -133.57142,-133.57143 0,-73.76946 59.80196,-133.57142 133.57142,-133.57142 73.76947,0 133.57143,59.80196 133.57143,133.57142 z"
   enable-background="new    "
   sodipodi:ry="133.57143"
   sodipodi:rx="133.57143"
   sodipodi:cy="241.6479"
   sodipodi:cx="562.14288"
   sodipodi:type="arc"
   id="path3149" />
</g><g
       transform="translate(5.5632353,16.054999)"
       id="g3151"><g
         id="g3153">
		<path
   style="fill:#5694f1"
   inkscape:connector-curvature="0"
   id="path3155"
   d="m 621.531,3.745 c -13.076,0 -23.719,-10.631 -23.719,-23.708 0,-13.077 10.643,-23.719 23.719,-23.719 13.076,0 23.715,10.642 23.715,23.719 0,13.077 -10.639,23.708 -23.715,23.708 z m 0,-34.943 c -6.197,0 -11.234,5.039 -11.234,11.234 0,6.186 5.037,11.224 11.234,11.224 6.195,0 11.234,-5.039 11.234,-11.224 10e-4,-6.195 -5.038,-11.234 -11.234,-11.234 z" />
	</g><path
         style="fill:#5694f1"
         inkscape:connector-curvature="0"
         id="path3157"
         d="m 553.594,90.273 c -7.459,4.375 -11.77,9.521 -11.77,15.023 0,15.876 35.684,41.335 79.705,41.335 44.021,0 79.705,-25.458 79.705,-41.335 0,-5.502 -4.311,-10.647 -11.77,-15.023 -18.994,14.134 -42.5,22.505 -67.936,22.505 -25.432,0 -48.946,-8.371 -67.934,-22.505 z" /><path
         style="fill:#5694f1"
         inkscape:connector-curvature="0"
         id="path3159"
         d="m 621.529,-134.031 c -62.897,0 -114.068,51.165001 -114.068,114.068 0,37.457 18.159,70.753 46.131,91.566 18.99,14.121 42.503,22.492 67.938,22.492 25.435,0 48.94,-8.371 67.936,-22.492 27.973,-20.813 46.133,-54.109 46.133,-91.566 -0.001,-62.902999 -51.172,-114.068 -114.07,-114.068 z m 0,72.413 c 22.962,0 41.648,18.687 41.648,41.655 0,22.9559999 -18.687,41.644 -41.648,41.644 -22.97,0 -41.655,-18.6880001 -41.655,-41.644 0,-22.968 18.686,-41.655 41.655,-41.655 z" /></g></g><g
     transform="translate(-603.76133,-805.13564)"
     id="g3135"><path
       id="path3112"
       inkscape:connector-curvature="0"
       d="m 1250.3511,338.58213 294.547,182.85301"
       style="fill:none;stroke:#e60000;stroke-width:19" /><circle
       cx="223.952"
       cy="409.64099"
       r="169.198"
       id="circle3114"
       sodipodi:cx="223.952"
       sodipodi:cy="409.64099"
       sodipodi:rx="169.198"
       sodipodi:ry="169.198"
       style="fill:none;stroke:#e60000;stroke-width:21.37949944"
       d="m 393.14999,409.64099 c 0,93.44548 -75.75252,169.198 -169.19799,169.198 -93.44548,0 -169.198002,-75.75252 -169.198002,-169.198 0,-93.44547 75.752522,-169.198 169.198002,-169.198 93.44547,0 169.19799,75.75253 169.19799,169.198 z"
       transform="translate(1170.9921,28.496135)" /></g></g></svg>