<?xml version="1.0" encoding="UTF-8" standalone="no"?>
<!-- Generator: Adobe Illustrator 15.1.0, SVG Export Plug-In . SVG Version: 6.00 Build 0)  -->

<svg
   xmlns:dc="http://purl.org/dc/elements/1.1/"
   xmlns:cc="http://creativecommons.org/ns#"
   xmlns:rdf="http://www.w3.org/1999/02/22-rdf-syntax-ns#"
   xmlns:svg="http://www.w3.org/2000/svg"
   xmlns="http://www.w3.org/2000/svg"
   xmlns:sodipodi="http://sodipodi.sourceforge.net/DTD/sodipodi-0.dtd"
   xmlns:inkscape="http://www.inkscape.org/namespaces/inkscape"
   version="1.1"
   id="svg2"
   inkscape:version="0.48.2 r9819"
   sodipodi:docname="ovc_webcam_on.svg"
   x="0px"
   y="0px"
   width="54.999729"
   height="55.000271"
   viewBox="0 -193.9 54.999727 55.000273"
   enable-background="new 0 -193.9 1177.253 2067.733"
   xml:space="preserve"><metadata
   id="metadata178"><rdf:RDF><cc:Work
       rdf:about=""><dc:format>image/svg+xml</dc:format><dc:type
         rdf:resource="http://purl.org/dc/dcmitype/StillImage" /></cc:Work></rdf:RDF></metadata><defs
   id="defs176">
	
		
	
	

	
		
	
	
	
	

	
		
	

	
		
	

	
		
	
	
	
	
</defs>
<sodipodi:namedview
   id="base"
   inkscape:window-maximized="0"
   inkscape:window-y="0"
   inkscape:window-x="-2"
   inkscape:window-height="856"
   inkscape:window-width="1436"
   inkscape:current-layer="svg2"
   inkscape:document-units="px"
   inkscape:pageshadow="2"
   inkscape:pageopacity="0.0"
   showgrid="false"
   pagecolor="#ffffff"
   inkscape:cx="771.44174"
   inkscape:zoom="0.61197598"
   borderopacity="1.0"
   inkscape:cy="-288.20898"
   bordercolor="#666666"
   fit-margin-top="0"
   fit-margin-left="0"
   fit-margin-right="0"
   fit-margin-bottom="0">
	</sodipodi:namedview>





<g
   id="g3349"
   transform="matrix(0.15277702,0,0,0.15287596,-4.2893749,-169.81741)"><g
     id="g3325"
     transform="matrix(1.3421726,0,0,1.3413172,-546.41705,-301.77149)">
	
		<path
   id="path3327"
   sodipodi:type="arc"
   sodipodi:cx="562.14288"
   sodipodi:cy="241.6479"
   sodipodi:rx="133.57143"
   sodipodi:ry="133.57143"
   enable-background="new    "
   d="m 695.71431,241.6479 c 0,73.76947 -59.80196,133.57143 -133.57143,133.57143 -73.76946,0 -133.57142,-59.80196 -133.57142,-133.57143 0,-73.76946 59.80196,-133.57142 133.57142,-133.57142 73.76947,0 133.57143,59.80196 133.57143,133.57142 z"
   style="opacity:0.9655;stroke:#000000;stroke-width:1.079" />
</g><g
     transform="translate(-13.392772,16.516499)"
     id="g15">
		<g
   id="g17">
			<path
   d="m 221.348,100.431 c -87.68,0 -158.55,-84.045 -161.524,-87.623 l -5.945,-7.152 5.962,-7.137 c 2.977,-3.563 73.909,-87.274 161.62,-87.274 87.751,0 158.653,83.594 161.628,87.153 l 5.969,7.139 -5.95,7.156 c -2.977,3.58 -73.918,87.687 -161.641,87.739 h -0.119 z M 83.486,5.693 c 18.587,19.554 74.688,72.417 137.862,72.417 h 0.102 C 284.829,78.072 340.881,25.166 359.451,5.587 340.842,-13.874 284.724,-66.434 221.544,-66.434 158.265,-66.434 102.109,-13.8 83.486,5.693 z"
   id="path19"
   inkscape:connector-curvature="0"
   style="fill:#5694f1" />
		</g>
		<g
   id="g21">
			<path
   d="m 221.453,61.192 c -30.523,0 -55.355,-24.835 -55.355,-55.362 0,-30.517 24.83,-55.357 55.35,-55.374 30.515,0 55.336,24.84 55.336,55.374 -10e-4,30.526 -24.822,55.362 -55.331,55.362 z m 0,-88.415 c -18.212,0.01 -33.034,14.837 -33.034,33.052 0,18.219 14.819,33.041 33.034,33.041 18.201,0 33.009,-14.822 33.009,-33.041 0,-18.225 -14.808,-33.052 -33.009,-33.052 z"
   id="path23"
   inkscape:connector-curvature="0"
   style="fill:#5694f1" />
		</g>
	</g></g>
















</svg>