<?xml version="1.0" encoding="UTF-8" standalone="no"?>
<!-- Generator: Adobe Illustrator 15.1.0, SVG Export Plug-In . SVG Version: 6.00 Build 0)  -->

<svg
   xmlns:dc="http://purl.org/dc/elements/1.1/"
   xmlns:cc="http://creativecommons.org/ns#"
   xmlns:rdf="http://www.w3.org/1999/02/22-rdf-syntax-ns#"
   xmlns:svg="http://www.w3.org/2000/svg"
   xmlns="http://www.w3.org/2000/svg"
   xmlns:sodipodi="http://sodipodi.sourceforge.net/DTD/sodipodi-0.dtd"
   xmlns:inkscape="http://www.inkscape.org/namespaces/inkscape"
   version="1.1"
   id="svg2"
   inkscape:version="0.48.2 r9819"
   sodipodi:docname="ovc_mute_sugar.svg"
   x="0px"
   y="0px"
   width="54.999027"
   height="55.001247"
   viewBox="0 -193.9 54.999023 55.00125"
   enable-background="new 0 -193.9 1177.253 2067.733"
   xml:space="preserve"><metadata
   id="metadata178"><rdf:RDF><cc:Work
       rdf:about=""><dc:format>image/svg+xml</dc:format><dc:type
         rdf:resource="http://purl.org/dc/dcmitype/StillImage" /></cc:Work></rdf:RDF></metadata><defs
   id="defs176">
	
		
	
	

	
		
	
	
	
	

	
		
	

	
		
	

	
		
	
	
	
	
</defs>
<sodipodi:namedview
   id="base"
   inkscape:window-maximized="0"
   inkscape:window-y="0"
   inkscape:window-x="-2"
   inkscape:window-height="856"
   inkscape:window-width="1436"
   inkscape:current-layer="svg2"
   inkscape:document-units="px"
   inkscape:pageshadow="2"
   inkscape:pageopacity="0.0"
   showgrid="false"
   pagecolor="#ffffff"
   inkscape:cx="181.4315"
   inkscape:zoom="0.61197598"
   borderopacity="1.0"
   inkscape:cy="180.1355"
   bordercolor="#666666"
   fit-margin-top="0"
   fit-margin-left="0"
   fit-margin-right="0"
   fit-margin-bottom="0">
	</sodipodi:namedview>





















<g
   id="g3155"
   transform="matrix(0.15268249,0,0,0.15252756,-3.3066723,-356.90353)"><path
     style="opacity:0.9655;stroke:#000000;stroke-width:1.079"
     transform="matrix(1.3421726,0,0,1.3421726,-552.83513,924.35698)"
     d="m 695.71431,241.6479 c 0,73.76947 -59.80196,133.57143 -133.57143,133.57143 -73.76946,0 -133.57142,-59.80196 -133.57142,-133.57143 0,-73.76946 59.80196,-133.57142 133.57142,-133.57142 73.76947,0 133.57143,59.80196 133.57143,133.57142 z"
     enable-background="new    "
     sodipodi:ry="133.57143"
     sodipodi:rx="133.57143"
     sodipodi:cy="241.6479"
     sodipodi:cx="562.14288"
     sodipodi:type="arc"
     id="path2996_3_" /><circle
     id="circle10"
     r="169.198"
     cy="1249.3879"
     cx="202"
     sodipodi:cx="202"
     sodipodi:cy="1249.3879"
     sodipodi:rx="169.198"
     sodipodi:ry="169.198"
     style="fill:none;stroke:#e60000;stroke-width:21.37949944"
     d="m 371.198,1249.3879 c 0,93.4455 -75.75253,169.198 -169.198,169.198 -93.44547,0 -169.197998,-75.7525 -169.197998,-169.198 0,-93.4454 75.752528,-169.198 169.197998,-169.198 93.44547,0 169.198,75.7526 169.198,169.198 z" /><path
     d="m 74.507,1282.414 c 0,-22.462 0,-51.808 0,-69.933 0,-18.125 164.042,-37.186 164.042,-94.723 0,-7.518 23,-6.131 23,26.151 0,29.069 0,173.325 0,209.661 0,44.375 -23,29.836 -23,25.25 0,-56.722 -164.042,-73.944 -164.042,-96.406 z"
     sodipodi:nodetypes="ccssc"
     inkscape:connector-curvature="0"
     id="path4403_3_"
     style="fill:#5694f1" /><path
     d="m 57.407,1149.833 294.547,182.853"
     inkscape:connector-curvature="0"
     id="path4401"
     style="fill:none;stroke:#e60000;stroke-width:19" /></g>
</svg>