<?xml version="1.0" encoding="UTF-8" standalone="no"?>
<!-- Generator: Adobe Illustrator 15.1.0, SVG Export Plug-In . SVG Version: 6.00 Build 0)  -->

<svg
   xmlns:dc="http://purl.org/dc/elements/1.1/"
   xmlns:cc="http://creativecommons.org/ns#"
   xmlns:rdf="http://www.w3.org/1999/02/22-rdf-syntax-ns#"
   xmlns:svg="http://www.w3.org/2000/svg"
   xmlns="http://www.w3.org/2000/svg"
   xmlns:sodipodi="http://sodipodi.sourceforge.net/DTD/sodipodi-0.dtd"
   xmlns:inkscape="http://www.inkscape.org/namespaces/inkscape"
   version="1.1"
   id="svg2"
   inkscape:version="0.48.2 r9819"
   sodipodi:docname="ovc_account_manager.svg"
   x="0px"
   y="0px"
   width="23.999998"
   height="24"
   viewBox="0 -193.9 23.999996 24.000001"
   enable-background="new 0 -193.9 1177.253 2067.733"
   xml:space="preserve"><metadata
   id="metadata178"><rdf:RDF><cc:Work
       rdf:about=""><dc:format>image/svg+xml</dc:format><dc:type
         rdf:resource="http://purl.org/dc/dcmitype/StillImage" /></cc:Work></rdf:RDF></metadata><defs
   id="defs176" />
<sodipodi:namedview
   id="base"
   inkscape:window-maximized="0"
   inkscape:window-y="0"
   inkscape:window-x="-2"
   inkscape:window-height="856"
   inkscape:window-width="1436"
   inkscape:current-layer="svg2"
   inkscape:document-units="px"
   inkscape:pageshadow="2"
   inkscape:pageopacity="0.0"
   showgrid="false"
   pagecolor="#ffffff"
   inkscape:cx="59.587456"
   inkscape:zoom="2.5419144"
   borderopacity="1.0"
   inkscape:cy="36.295112"
   bordercolor="#666666"
   fit-margin-top="0"
   fit-margin-left="0"
   fit-margin-right="0"
   fit-margin-bottom="0">
	</sodipodi:namedview>




















<g
   id="g117"
   transform="matrix(0.06693627,0,0,0.0669359,-29.902109,-293.65792)">
	<g
   id="g119">
		<path
   enable-background="new    "
   d="m 805.275,1669.627 c 0,-99.012 -80.264,-179.277 -179.275,-179.277 -99.011,0 -179.275,80.266 -179.275,179.277 0,77.811 49.577,144.033 118.862,168.829 7.58,-5.116 16.716,-8.103 26.548,-8.103 h 23.17 v -20.326 c -41.611,-10.727 -72.938,-57.618 -72.938,-113.848 0,-0.416 0.046,-0.813 0.046,-1.227 2.008,0.76 4.154,1.227 6.428,1.227 10.094,0 18.272,-8.182 18.272,-18.266 0,-10.092 -8.179,-18.271 -18.272,-18.271 -0.638,0 -1.241,0.127 -1.863,0.186 11.973,-46.328 46.132,-79.807 86.472,-79.807 40.241,0 74.326,33.328 86.373,79.488 -0.402,-0.021 -0.787,-0.119 -1.197,-0.119 -11.201,0 -20.289,9.082 -20.289,20.296 0,11.208 9.088,20.298 20.289,20.298 2.027,0 3.944,-0.393 5.785,-0.944 -1.029,53.763 -30.646,98.489 -70.221,110.261 v 21.053 h 20.457 c 7.378,0 14.363,1.682 20.594,4.682 64.63,-27.087 110.034,-90.943 110.034,-165.409 z"
   id="path121"
   inkscape:connector-curvature="0"
   style="opacity:0.9655" />
		<path
   enable-background="new    "
   d="m 654.189,1830.354 v -21.053 c 39.574,-11.771 69.191,-56.498 70.221,-110.261 -1.841,0.552 -3.758,0.944 -5.785,0.944 -11.201,0 -20.289,-9.09 -20.289,-20.298 0,-11.214 9.088,-20.296 20.289,-20.296 0.41,0 0.795,0.098 1.197,0.119 -12.047,-46.16 -46.132,-79.488 -86.373,-79.488 -40.34,0 -74.499,33.479 -86.472,79.807 0.622,-0.059 1.226,-0.186 1.863,-0.186 10.094,0 18.272,8.18 18.272,18.271 0,10.084 -8.179,18.266 -18.272,18.266 -2.273,0 -4.42,-0.467 -6.428,-1.227 0,0.414 -0.046,0.811 -0.046,1.227 0,56.229 31.326,103.121 72.938,113.848 v 20.326 h -23.17 c -9.832,0 -18.968,2.986 -26.548,8.103 18.878,6.756 39.213,10.446 60.413,10.446 24.546,0 47.936,-4.939 69.24,-13.867 -6.23,-3 -13.216,-4.682 -20.594,-4.682 h -20.456 z"
   id="path123"
   inkscape:connector-curvature="0"
   style="opacity:0.9655" />
		<path
   enable-background="new    "
   d="m 654.189,1825.354 v -16.053 c 39.574,-11.771 69.191,-56.498 70.221,-110.261 -1.841,0.552 -3.758,0.944 -5.785,0.944 -11.201,0 -20.289,-9.09 -20.289,-20.298 0,-11.214 9.088,-20.296 20.289,-20.296 0.41,0 0.795,0.098 1.197,0.119 -12.047,-46.16 -46.132,-79.488 -86.373,-79.488 -40.34,0 -74.499,33.479 -86.472,79.807 0.622,-0.059 1.226,-0.186 1.863,-0.186 10.094,0 18.272,8.18 18.272,18.271 0,10.084 -8.179,18.266 -18.272,18.266 -2.273,0 -4.42,-0.467 -6.428,-1.227 0,0.414 -0.046,0.811 -0.046,1.227 0,56.229 31.326,103.121 72.938,113.848 v 14.326 l -23.17,5 c -9.832,0 -18.968,3.986 -26.548,9.103 18.878,6.756 39.213,10.446 60.413,10.446 24.546,0 47.936,-4.939 69.24,-13.867 -6.23,-3 -13.216,-5.682 -20.594,-5.682 l -20.456,-3.999 z"
   id="path125"
   inkscape:connector-curvature="0"
   style="opacity:0.9655;fill:#5694f1" />
	</g>
	<g
   id="g127">
		<g
   id="g129">
			<path
   enable-background="new    "
   d="m 530.577,1677.914 c 0,7.816 4.935,14.437 11.836,17.039 0.103,-12.262 1.703,-24.051 4.564,-35.125 -9.192,0.947 -16.4,8.633 -16.4,18.086 z"
   id="path131"
   inkscape:connector-curvature="0"
   style="opacity:0.9655;fill:#5694f1" />
			<path
   enable-background="new    "
   d="m 567.113,1677.914 c 0,-10.092 -8.179,-18.271 -18.272,-18.271 -0.638,0 -1.241,0.127 -1.863,0.186 -2.861,11.074 -4.462,22.863 -4.564,35.125 2.008,0.76 4.154,1.227 6.428,1.227 10.093,-10e-4 18.271,-8.183 18.271,-18.267 z"
   id="path133"
   inkscape:connector-curvature="0"
   style="opacity:0.9655;stroke:#000000;stroke-width:1.079" />
			<path
   enable-background="new    "
   d="m 738.922,1679.687 c 0,-10.799 -8.461,-19.548 -19.1,-20.177 3.011,11.543 4.703,23.838 4.703,36.67 0,0.967 -0.097,1.904 -0.115,2.86 8.37,-2.499 14.512,-10.173 14.512,-19.353 z"
   id="path135"
   inkscape:connector-curvature="0"
   style="opacity:0.9655;fill:#5694f1" />
			<path
   enable-background="new    "
   d="m 719.822,1659.51 c -0.402,-0.021 -0.787,-0.119 -1.197,-0.119 -11.201,0 -20.289,9.082 -20.289,20.296 0,11.208 9.088,20.298 20.289,20.298 2.027,0 3.944,-0.393 5.785,-0.944 0.019,-0.956 0.115,-1.894 0.115,-2.86 0,-12.833 -1.692,-25.128 -4.703,-36.671 z"
   id="path137"
   inkscape:connector-curvature="0"
   style="opacity:0.9655;stroke:#000000;stroke-width:1.079" />
		</g>
		<path
   enable-background="new    "
   d="m 568.615,1576.4 c 0,7.65 -6.205,13.855 -13.855,13.855 -7.645,0 -13.85,-6.205 -13.85,-13.855 0,-7.65 6.205,-13.85 13.85,-13.85 7.65,10e-4 13.855,6.2 13.855,13.85 z"
   id="path139"
   inkscape:connector-curvature="0"
   style="opacity:0.9655;fill:#5694f1" />
		<path
   enable-background="new    "
   d="m 641.853,1549.697 c 0,6.469 -5.249,11.719 -11.719,11.719 -6.471,0 -11.721,-5.25 -11.721,-11.719 0,-6.471 5.25,-11.715 11.721,-11.715 6.47,0 11.719,5.245 11.719,11.715 z"
   id="path141"
   inkscape:connector-curvature="0"
   style="opacity:0.9655;fill:#5694f1" />
		<path
   enable-background="new    "
   d="m 712.183,1576.4 c 0,7.65 -6.204,13.855 -13.854,13.855 -7.646,0 -13.852,-6.205 -13.852,-13.855 0,-7.65 6.206,-13.85 13.852,-13.85 7.65,10e-4 13.854,6.2 13.854,13.85 z"
   id="path143"
   inkscape:connector-curvature="0"
   style="opacity:0.9655;fill:#5694f1" />
		<path
   enable-background="new    "
   d="m 535.546,1636.445 c 0,7.961 -6.461,14.414 -14.421,14.414 -7.954,0 -14.408,-6.453 -14.408,-14.414 0,-7.962 6.454,-14.414 14.408,-14.414 7.96,0 14.421,6.452 14.421,14.414 z"
   id="path145"
   inkscape:connector-curvature="0"
   style="opacity:0.9655;fill:#5694f1" />
		<path
   enable-background="new    "
   d="m 761.747,1636.445 c 0,7.961 -6.461,14.414 -14.42,14.414 -7.955,0 -14.409,-6.453 -14.409,-14.414 0,-7.962 6.454,-14.414 14.409,-14.414 7.959,0 14.42,6.452 14.42,14.414 z"
   id="path147"
   inkscape:connector-curvature="0"
   style="opacity:0.9655;fill:#5694f1" />
		<path
   enable-background="new    "
   d="m 652.83,1704.917 c 0,10.735 -8.704,19.439 -19.444,19.439 -10.736,0 -19.439,-8.704 -19.439,-19.439 0,-10.737 8.703,-19.438 19.439,-19.438 10.74,0 19.444,8.701 19.444,19.438 z"
   id="path149"
   inkscape:connector-curvature="0"
   style="opacity:0.9655;stroke:#000000;stroke-width:1.079" />
	</g>
	<g
   id="g151">
		<g
   id="g153">
			<path
   d="m 519.733,1579.016 c -0.36,0 -0.727,-0.066 -1.08,-0.207 -1.515,-0.597 -2.258,-2.309 -1.661,-3.822 3.409,-8.635 9.748,-20 20.6,-25.092 1.469,-0.691 3.227,-0.057 3.919,1.416 0.693,1.475 0.058,3.23 -1.415,3.922 -9.098,4.27 -14.605,14.275 -17.62,21.918 -0.457,1.158 -1.569,1.865 -2.743,1.865 z"
   id="path155"
   inkscape:connector-curvature="0"
   style="fill:#5694f1" />
		</g>
		<g
   id="g157">
			<g
   id="g159">
				<path
   d="m 516.567,1586.262 c 3.317,-4.205 8.261,-9.152 12.653,-11.791 l -8.938,0.305 -7.063,-5.484 c 2.015,4.711 3.122,11.618 3.348,16.97 z"
   id="path161"
   inkscape:connector-curvature="0"
   style="fill:#5694f1" />
			</g>
		</g>
	</g>
	<g
   id="g163">
		<g
   id="g165">
			<path
   d="m 739.471,1714.749 c -1.107,0 -2.168,-0.626 -2.67,-1.694 -0.69,-1.474 -0.058,-3.229 1.415,-3.921 9.097,-4.272 14.604,-14.276 17.621,-21.915 0.596,-1.514 2.309,-2.256 3.823,-1.657 1.514,0.598 2.257,2.31 1.659,3.823 -3.41,8.631 -9.75,19.989 -20.597,25.084 -0.406,0.19 -0.831,0.28 -1.251,0.28 z"
   id="path167"
   inkscape:connector-curvature="0"
   style="fill:#5694f1" />
		</g>
		<g
   id="g169">
			<g
   id="g171">
				<path
   d="m 761.747,1678.109 c -3.32,4.203 -8.264,9.152 -12.658,11.789 l 8.938,-0.303 7.063,5.483 c -2.013,-4.711 -3.119,-11.617 -3.343,-16.969 z"
   id="path173"
   inkscape:connector-curvature="0"
   style="fill:#5694f1" />
			</g>
		</g>
	</g>
</g>

</svg>