<?xml version="1.0" encoding="UTF-8" standalone="no"?>
<!-- Created with Inkscape (http://www.inkscape.org/) -->

<svg
   xmlns:dc="http://purl.org/dc/elements/1.1/"
   xmlns:cc="http://creativecommons.org/ns#"
   xmlns:rdf="http://www.w3.org/1999/02/22-rdf-syntax-ns#"
   xmlns:svg="http://www.w3.org/2000/svg"
   xmlns="http://www.w3.org/2000/svg"
   xmlns:sodipodi="http://sodipodi.sourceforge.net/DTD/sodipodi-0.dtd"
   xmlns:inkscape="http://www.inkscape.org/namespaces/inkscape"
   width="1920"
   height="1080"
   id="svg2"
   version="1.1"
   inkscape:version="0.48.2 r9819"
   sodipodi:docname="template.svg">
  <defs
     id="defs4" />
  <sodipodi:namedview
     id="base"
     pagecolor="#ffffff"
     bordercolor="#666666"
     borderopacity="1.0"
     inkscape:pageopacity="0.0"
     inkscape:pageshadow="2"
     inkscape:zoom="0.35"
     inkscape:cx="905.70883"
     inkscape:cy="431.1851"
     inkscape:document-units="px"
     inkscape:current-layer="layer1"
     showgrid="false"
     showguides="false"
     showborder="true"
     inkscape:window-width="1436"
     inkscape:window-height="856"
     inkscape:window-x="0"
     inkscape:window-y="0"
     inkscape:window-maximized="1" />
  <metadata
     id="metadata7">
    <rdf:RDF>
      <cc:Work
         rdf:about="">
        <dc:format>image/svg+xml</dc:format>
        <dc:type
           rdf:resource="http://purl.org/dc/dcmitype/StillImage" />
        <dc:title></dc:title>
      </cc:Work>
    </rdf:RDF>
  </metadata>
  <g
     inkscape:label="Layer 1"
     inkscape:groupmode="layer"
     id="layer1"
     transform="translate(0,27.637817)">
    <text
       xml:space="preserve"
       style="font-size:40px;font-style:normal;font-weight:normal;line-height:125%;letter-spacing:0px;word-spacing:0px;fill:#000000;fill-opacity:1;stroke:none;font-family:Sans"
       x="84.852814"
       y="94.091118"
       id="text3757"
       sodipodi:linespacing="125%"
       transform="translate(0,-27.637817)"><tspan
         sodipodi:role="line"
         id="tspan3759"
         x="84.852814"
         y="94.091118" /></text>
    <rect
       style="fill:#000000;fill-opacity:1;stroke:none"
       id="rect3803"
       width="885"
       height="656.59875"
       x="985"
       y="366.0882"
       rx="7.146225" />
    <g
       id="g3888"
       transform="matrix(5.1472702,0,0,5.1472702,49.180657,-0.390232)">
      <path
         style="fill-rule:evenodd;stroke:#010101;stroke-width:0.5"
         id="path3159-3"
         d="m 43.336891,45.006214 c -0.187169,0.132294 -0.12026,0.346129 -0.272618,0.489392 0.184038,0.969974 0.637733,1.826329 0.886879,2.747586 0.209171,0.77331 0.123589,1.435574 0.279114,2.24432 0.158231,0.822879 0.502079,1.615204 0.79219,2.563211 0.183632,0.600154 0.244924,1.260862 0.483418,1.848363 -0.234906,0.221007 -0.23582,0.498696 -0.549147,0.631411 -0.282689,0.119741 -0.962001,-0.119623 -1.23193,-0.357363 -0.347032,-0.305744 -0.68328,-0.894162 -0.942879,-1.495857 -0.216767,-0.50211 -0.391819,-1.174856 -0.553078,-1.870697 -0.148612,-0.641628 -0.426241,-1.253891 -0.622708,-1.893128 -0.237614,-0.772521 -0.566926,-1.682921 -0.768703,-2.517164 -0.08017,-0.331131 -0.238009,-0.701448 -0.360013,-1.154538 -0.155019,-0.576406 -0.245232,-1.103689 -0.868117,-1.010052 -0.479311,0.628296 -0.1078,1.530028 -0.02113,2.340326 -0.0816,0.153335 -0.144968,0.312575 -0.226668,0.465876 -0.06104,0.734261 -0.234359,1.427283 -0.207746,2.203245 0.02563,0.750462 0.131918,1.506067 0.256685,2.314112 -0.17545,0.232492 -0.142604,0.426685 -0.411075,0.5605 -0.687041,0.342497 -1.361429,-0.585464 -1.661571,-1.534332 -0.156369,-0.494362 -0.07247,-1.040113 -0.200538,-1.411173 0.168324,-0.407305 0.0824,-0.873396 0.07827,-1.321517 -0.01156,-1.271724 -0.129738,-2.738689 -0.113564,-4.07651 -0.445646,-0.779135 -0.811942,-1.56237 -1.11601,-2.513285 -0.0853,-0.266891 -0.08875,-0.538193 -0.170735,-0.785981 -0.147687,-0.446319 -0.441906,-0.852576 -0.592895,-1.267779 -0.234056,-0.643906 -0.474627,-1.543235 -0.696411,-2.263095 -0.154438,-0.501854 -0.317529,-1.019909 -0.363637,-1.502143 -0.03145,-0.328359 0.0732,-0.695076 -0.01126,-1.042454 -0.03708,0.119742 -0.03773,0.302361 0.381103,0.969137 0.06973,0.867193 0.390386,1.856321 0.750058,2.934394 0.12434,0.372814 0.230083,0.677156 0.42964,1.176969 0.373717,0.935303 0.528835,1.942966 0.910719,2.793534 0.265107,0.590412 0.619712,1.064237 1.12719,1.401198 0.181081,-0.08226 -0.0026,-0.04628 -0.02481,-0.161909 0.166412,-0.07887 0.263745,0.05732 0.349942,0.227854 0.512621,0.120984 1.055896,0.146579 1.555628,0.307665 0.147925,0.05098 0.119721,-0.0905 0.276531,-0.142018 0.134909,0.178835 0.327485,0.178273 0.489459,0.272747 0.511523,0.938728 0.562686,2.263504 1.057772,3.533401 0.07011,0.180091 0.196211,0.328101 0.260321,0.506887 0.159262,0.445415 0.213145,0.952912 0.386001,1.432386 0.09526,0.264135 0.324583,0.523622 0.402339,0.783417 0.0689,0.229886 -0.02364,0.50245 0.03125,0.740992 0.04334,0.188967 0.191178,0.39822 0.261567,0.622711 0.116472,0.372059 0.245792,1.014895 0.525677,1.477114 0.304574,0.503339 1.059707,1.218213 1.561912,0.886744 0.291505,-0.192456 0.114358,-0.50938 0.222819,-0.813284 -0.253093,-1.062347 -0.679739,-1.97965 -0.935522,-2.955608 -0.107573,-0.4106 -0.203867,-1.084702 -0.271513,-1.549373 -0.02773,-0.190239 -0.109106,-0.372103 -0.122187,-0.577829 -0.02252,-0.358296 -0.05128,-0.927951 -0.224216,-1.457282 -0.293481,-0.897757 -0.714044,-1.724722 -0.74746,-2.702725 0.09217,-0.04731 0.18431,-0.09466 0.276468,-0.14198 -0.278061,0.0395 -0.630354,0.09381 -0.925337,0.125841 -0.286168,0.03099 -0.653879,0.145801 -0.85808,-0.08343 0.631196,-0.186488 1.268616,-0.101805 1.803441,-0.343804 0.202475,0.04832 0.393623,0.13187 0.604013,0.155723 0.85734,0.916275 1.253229,2.767493 2.218435,3.752635 0.454649,1.237839 1.367489,2.889477 2.085173,4.286919 0.312769,0.609009 0.525937,1.204154 1.058681,1.494573 1.112122,0.113475 0.983858,-1.108069 0.697399,-1.930598 -0.338081,-0.97067 -0.946025,-1.969758 -1.400207,-3.066343 -0.11386,-0.275386 -0.166853,-0.582034 -0.264013,-0.854457 -0.1056,-0.296289 -0.164659,-0.565118 -0.2642,-0.85436 -0.493804,-1.435781 -1.597598,-2.607701 -1.941847,-3.89468 -0.319684,0.107204 -1.052353,0.831327 -1.431132,0.502067 -0.01823,-0.215593 0.415256,-0.173993 0.668784,-0.285325 0.381166,-0.167259 0.747417,-0.475436 0.987654,-0.798424 0.535789,-0.25468 0.840558,0.158508 1.280476,0.565356 0.08985,0.08299 0.217854,0.08934 0.326295,0.181809 0.09352,0.07973 0.133418,0.255183 0.235481,0.34491 0.200889,0.177216 0.41467,0.347241 0.63151,0.549341 0.196653,0.183372 0.447726,0.291497 0.653841,0.479518 0.158379,0.144434 0.27796,0.373645 0.445978,0.528 0.378726,0.348146 0.865765,0.627255 1.261639,0.982685 0.221428,0.198688 0.420035,0.404056 0.609143,0.618936 0.309048,0.351259 0.548142,0.86287 0.93781,1.03245 0.569768,0.248083 1.05158,0.941595 1.607958,0.863097 0.545425,-0.218514 0.628305,-0.579982 0.100829,-1.391211 -0.590476,-0.908261 -1.567466,-1.796244 -2.276743,-2.732481 -0.192506,-0.254096 -0.378374,-0.557763 -0.587997,-0.80453 -0.186475,-0.219564 -0.506943,-0.355846 -0.701169,-0.571674 -0.07157,-0.07938 -0.07474,-0.211039 -0.14199,-0.276464 -0.680632,-0.660973 -1.799553,-1.386179 -2.387802,-2.26795 -0.206987,-0.310293 -0.266784,-0.688621 -0.428522,-1.061163 -0.714219,-2.686611 -3.709575,-2.357123 -1.327265,-4.705628 -0.600541,1.033453 -0.338262,1.671912 -0.402102,0.500709 0.100129,-0.20829 0.244482,-0.388039 0.543509,-0.485914 0.221396,-0.07247 0.536447,0.0729 0.905538,0.175683 0.301925,0.08388 0.591172,0.221242 0.860612,0.314976 0.630114,0.219364 1.23271,0.294952 1.743657,0.560483 0.180201,0.09356 0.304118,0.292918 0.490774,0.38845 0.04796,0.02455 0.06472,-0.0577 0.115868,-0.0012 0.19224,0.212457 0.734879,0.205139 1.114811,0.242778 0.617541,0.06133 1.026972,0.05228 1.596571,-0.179454 0.318982,-0.336764 0.644444,-0.561534 1.127204,-0.753468 0.07002,-0.159899 0.148429,-0.243648 0.08847,-0.3949 -0.137148,-0.346241 -0.468797,-0.155763 -0.905505,-0.17562 -0.403293,-0.01825 -0.785023,-0.24343 -0.997596,-0.128163 -0.295295,-0.278432 -0.67208,-0.303141 -0.978982,-0.54546 -0.37242,0.04709 0.02029,0.340021 -0.250415,0.419638 -0.261332,-0.124473 -0.170386,-0.295526 -0.214231,-0.530474 -0.145384,0.05335 -0.268289,0.03685 -0.371123,-0.04233 -0.216354,0.05869 0.08688,0.28437 -0.112052,0.348661 -0.2172,-0.555526 -0.554803,-0.467396 -0.956583,-0.615152 -0.322216,-0.118481 -0.501518,-0.353352 -0.792171,-0.408477 -0.562033,-0.765525 -1.233328,-1.190568 -1.961782,-1.438424 -0.171433,-0.09311 -0.210376,0.09565 -0.369939,0.07328 -1.594405,-1.315249 -1.431127,-1.269524 -0.749788,-0.779713 0.718792,0.430963 1.613857,0.35838 2.302972,0.855623 0.272555,0.196649 0.418095,0.520865 0.680055,0.757333 0.196462,0.177131 0.447381,0.319468 0.699918,0.455774 0.244373,0.131801 0.497979,0.136466 0.767336,0.246497 0.195473,0.07979 0.326882,0.263023 0.51314,0.318856 0.242862,0.07268 0.59358,0.043 0.904319,0.05969 0.816437,0.77238 1.980099,0.463841 2.972991,0.686498 0.391706,0.844061 -0.331441,1.329878 -1.04609,1.818482 -0.498669,-0.0446 -0.925121,0.295746 -1.340133,0.338867 -0.2348,0.02435 -0.632216,-0.03087 -0.904222,-0.05982 -0.71648,-0.0761 -1.114865,-0.400497 -1.768781,-0.722231 -0.800484,-0.393803 -1.778918,-0.612998 -2.651598,-0.967612 -0.470301,0.308241 -0.884273,0.858333 -0.287575,1.254197 0.09049,0.349805 0.07989,0.667007 0.03362,0.972697 0.581718,0.477712 1.007175,1.737207 1.464837,2.625495 0.07374,0.209437 0.233964,0.149989 0.37234,0.158162 0.07499,0.15239 -0.04067,0.243487 0.09715,0.41595 0.797103,0.850254 2.039689,1.736502 2.832434,2.680179 0.252469,0.30059 0.423225,0.651597 0.682524,0.988908 0.350694,0.456084 0.874147,0.771918 1.264268,1.214257 0.539717,0.612248 0.874493,1.402894 1.45852,2.046351 -0.203566,0.395496 0.10557,0.967523 -0.333651,1.277941 -0.259951,0.183637 -0.536726,0.102051 -0.901851,0.171888 -0.37187,-0.261373 -0.808439,-0.402967 -1.165827,-0.682507 -0.702123,-0.549158 -1.196341,-1.448337 -1.875816,-2.064962 -0.17832,-0.161904 -0.435652,-0.27226 -0.630162,-0.433408 -0.428655,-0.355012 -0.777503,-0.792946 -1.170861,-1.145849 -0.385258,-0.345359 -0.841383,-0.687076 -1.239305,-1.052345 -0.161127,-0.147896 -0.401112,-0.343474 -0.607829,-0.50323 -0.218644,-0.168583 -0.394241,-0.479638 -0.719943,-0.154377 0.06903,1.308287 1.166851,2.289768 1.682803,3.503601 0.158873,0.37377 0.250673,0.808236 0.383692,1.200647 0.496271,1.463367 1.453779,3.404064 1.953163,4.937106 -0.101438,0.52615 -0.02781,1.215632 -0.841919,1.42243 -0.118946,0.03013 -0.507492,-0.04739 -0.650186,-0.132013 -0.684838,-0.406628 -1.298532,-1.998156 -1.79235,-2.92314 -0.319375,-0.598301 -0.670919,-1.467945 -0.879427,-2.052478 -0.11807,-0.330846 -0.369957,-0.587604 -0.541887,-0.82821 -0.973095,-1.362738 -1.30439,-2.953498 -2.264417,-3.729019 l -4.4e-5,1.09e-4 z m -4.341433,7.762171 c -0.03083,-0.06123 0.05913,-0.08361 0.0448,-0.139552 0.09028,-0.466537 -0.02506,-0.919796 -0.08464,-1.412425 -0.06665,-0.549297 -0.174709,-1.270997 -0.112229,-1.80591 0.03342,-0.285925 0.155909,-0.553962 0.199202,-0.859426 0.01974,-0.138954 0.0406,-0.291889 0.06482,-0.440946 0.02317,-0.142257 0.09597,-0.310819 0.110801,-0.46456 0.05567,-0.575869 -0.182549,-1.191471 -0.15834,-1.782229 0.0099,-0.239144 0.153604,-0.425996 0.06238,-0.672616 -0.576029,-0.163271 -1.163413,-0.291208 -1.742503,-0.444614 0.04582,0.455561 -0.0022,0.904538 0.01501,1.390155 0.01608,0.452876 0.126751,0.925843 0.154523,1.434723 0.01695,0.312153 -0.103796,0.616191 -0.105829,0.927934 -0.0021,0.316757 0.116241,0.662153 0.103347,0.99516 -0.0073,0.189291 -0.08065,0.349193 -0.08715,0.510768 -0.02595,0.650981 0.107464,1.678892 0.534496,2.287896 0.186717,0.266577 0.433335,0.467932 0.724851,0.617784 0.09214,-0.04751 0.184308,-0.09482 0.276466,-0.142142 z"
         inkscape:connector-curvature="0" />
      <g
         style="display:block"
         id="activity-video_x5F_chat"
         transform="matrix(0.96960819,0,0,0.96960819,2.1860151,-6.0863283)">
	<path
   style="fill:#ffffff;fill-opacity:1;stroke:#010101;stroke-width:3.5;display:inline"
   id="path2819"
   d="m 9.263,48.396 c 0.682,1.152 6.027,0.059 8.246,-1.463 2.102,-1.432 3.207,-2.596 4.336,-2.596 1.133,0 12.54,0.92 20.935,-5.715 C 50.005,32.915 52.553,24.834 47.3,17.185 42.048,9.541 33.468,8.105 26.422,8.625 25.154596,8.7195017 23.835668,8.9330167 22.501851,9.2586394 13.715785,11.403569 4.2852555,18.412872 4.677,28.313 c 0.2655494,6.710939 3.357,9.143 4.922,10.703 1.562,1.566 4.545,1.566 2.992,5.588 -0.61,1.579 -3.838,2.918 -3.328,3.792 z"
   inkscape:connector-curvature="0" />

	<g
   style="display:inline"
   id="g2821">
		<path
   style="fill:none;stroke:#010101;stroke-width:3.5"
   id="path2823"
   d="m 40.748,26.932 c 0,0 -6.033,7.254 -13.271,7.26 -7.24,0.004 -13.271,-7.25 -13.271,-7.25 0,0 6.031,-7.219 13.271,-7.219 7.238,-0.006 13.271,7.209 13.271,7.209 z"
   inkscape:connector-curvature="0" />

		<path
   style="fill:#010101"
   id="path2825"
   d="m 24.191,26.955 c 0,1.814 1.47,3.285 3.285,3.285 1.81,0 3.281,-1.471 3.281,-3.285 0,-1.811 -1.472,-3.285 -3.281,-3.285 -1.815,0 -3.285,1.475 -3.285,3.285 z"
   inkscape:connector-curvature="0" />

	</g>

</g>
      <path
         style="fill-rule:evenodd;stroke:#010101;stroke-width:0.5"
         id="path3159"
         d="m 12.004997,45.215152 c 0.187169,0.132294 0.12026,0.346129 0.272618,0.489392 -0.184038,0.969974 -0.637733,1.826329 -0.886879,2.747586 -0.209171,0.77331 -0.123589,1.435574 -0.279114,2.24432 -0.158231,0.822879 -0.502079,1.615204 -0.79219,2.563211 -0.183632,0.600154 -0.244924,1.260862 -0.4834179,1.848363 0.2349059,0.221007 0.2358199,0.498696 0.5491469,0.631411 0.282689,0.119741 0.962001,-0.119623 1.23193,-0.357363 0.347032,-0.305744 0.68328,-0.894162 0.942879,-1.495857 0.216767,-0.50211 0.391819,-1.174856 0.553078,-1.870697 0.148612,-0.641628 0.426241,-1.253891 0.622708,-1.893128 0.237614,-0.772521 0.566926,-1.682921 0.768703,-2.517164 0.08017,-0.331131 0.238009,-0.701448 0.360013,-1.154538 0.155019,-0.576406 0.245232,-1.103689 0.868117,-1.010052 0.479311,0.628296 0.1078,1.530028 0.02113,2.340326 0.0816,0.153335 0.144968,0.312575 0.226668,0.465876 0.06104,0.734261 0.234359,1.427283 0.207746,2.203245 -0.02563,0.750462 -0.131918,1.506067 -0.256685,2.314112 0.17545,0.232492 0.142604,0.426685 0.411075,0.5605 0.687041,0.342497 1.361429,-0.585464 1.661571,-1.534332 0.156369,-0.494362 0.07247,-1.040113 0.200538,-1.411173 -0.168324,-0.407305 -0.0824,-0.873396 -0.07827,-1.321517 0.01156,-1.271724 0.129738,-2.738689 0.113564,-4.07651 0.445646,-0.779135 0.811942,-1.56237 1.11601,-2.513285 0.0853,-0.266891 0.08875,-0.538193 0.170735,-0.785981 0.147687,-0.446319 0.441906,-0.852576 0.592895,-1.267779 0.234056,-0.643906 0.474627,-1.543235 0.696411,-2.263095 0.01051,0.405364 -0.08376,0.356921 -0.756264,1.358934 -0.12434,0.372814 -0.230083,0.677156 -0.42964,1.176969 -0.373717,0.935303 -0.528835,1.942966 -0.910719,2.793534 -0.265107,0.590412 -0.619712,1.064237 -1.12719,1.401198 -0.181081,-0.08226 0.0026,-0.04628 0.02481,-0.161909 -0.166412,-0.07887 -0.263745,0.05732 -0.349942,0.227854 -0.512621,0.120984 -1.055896,0.146579 -1.555628,0.307665 -0.147925,0.05098 -0.119721,-0.0905 -0.276531,-0.142018 -0.134909,0.178835 -0.327485,0.178273 -0.489459,0.272747 -0.511523,0.938728 -0.562686,2.263504 -1.057772,3.533401 -0.07011,0.180091 -0.196211,0.328101 -0.260321,0.506887 -0.159262,0.445415 -0.213145,0.952912 -0.386001,1.432386 -0.09526,0.264135 -0.324583,0.523622 -0.402339,0.783417 -0.0689,0.229886 0.02364,0.50245 -0.03125,0.740992 -0.04334,0.188967 -0.191178,0.39822 -0.261567,0.622711 -0.116472,0.372059 -0.245792,1.014895 -0.525677,1.477114 -0.304574,0.503339 -1.059707,1.218213 -1.561912,0.886744 -0.291505,-0.192456 -0.114358,-0.50938 -0.222819,-0.813284 0.253093,-1.062347 0.679739,-1.97965 0.935522,-2.955608 0.107573,-0.4106 0.203867,-1.084702 0.271513,-1.549373 0.02773,-0.190239 0.109106,-0.372103 0.122187,-0.577829 0.02252,-0.358296 0.05128,-0.927951 0.224216,-1.457282 0.293481,-0.897757 0.714044,-1.724722 0.74746,-2.702725 -0.09217,-0.04731 -0.18431,-0.09466 -0.276468,-0.14198 0.278061,0.0395 0.630354,0.09381 0.925337,0.125841 0.286168,0.03099 0.653879,0.145801 0.85808,-0.08343 -0.631196,-0.186488 -1.268616,-0.101805 -1.803441,-0.343804 -0.202475,0.04832 -0.393623,0.13187 -0.604013,0.155723 -0.85734,0.916275 -1.253229,2.767493 -2.2184349,3.752635 -0.454649,1.237839 -1.3674895,2.889477 -2.0851735,4.286919 -0.312769,0.609009 -0.525937,1.204154 -1.058681,1.494573 -1.112122,0.113475 -0.983858,-1.108069 -0.697399,-1.930598 0.338081,-0.97067 0.946025,-1.969758 1.400207,-3.066343 0.11386,-0.275386 0.166853,-0.582034 0.264013,-0.854457 0.1056,-0.296289 0.164659,-0.565118 0.2642,-0.85436 0.493804,-1.435781 1.5975985,-2.607701 1.9418475,-3.89468 0.319684,0.107204 1.0523529,0.831327 1.4311319,0.502067 0.01823,-0.215593 -0.415256,-0.173993 -0.668784,-0.285325 -0.3811659,-0.167259 -0.7474169,-0.475436 -0.9876539,-0.798424 -0.535789,-0.25468 -0.840558,0.158508 -1.2804765,0.565356 -0.08985,0.08299 -0.217854,0.08934 -0.326295,0.181809 -0.09352,0.07973 -0.133418,0.255183 -0.235481,0.34491 -0.200889,0.177216 -0.41467,0.347241 -0.63151,0.549341 -0.196653,0.183372 -0.447726,0.291497 -0.653841,0.479518 -0.158379,0.144434 -0.27796,0.373645 -0.445978,0.528 -0.378726,0.348146 -0.865765,0.627255 -1.261639,0.982685 -0.221428,0.198688 -0.420035,0.404056 -0.609143,0.618936 -0.309048,0.351259 -0.548142,0.86287 -0.9378095,1.03245 -0.569768,0.248083 -1.05158,0.941595 -1.607958,0.863097 -0.54542503,-0.218514 -0.62830503,-0.579982 -0.100829,-1.391211 0.590476,-0.908261 1.567466,-1.796244 2.2767425,-2.732481 0.192506,-0.254096 0.378374,-0.557763 0.587997,-0.80453 0.186475,-0.219564 0.506943,-0.355846 0.701169,-0.571674 0.07157,-0.07938 0.07474,-0.211039 0.14199,-0.276464 0.680632,-0.660973 1.799553,-1.386179 2.387802,-2.26795 0.206987,-0.310293 0.266784,-0.688621 0.428522,-1.061163 0.7142195,-2.686611 3.7095754,-2.357123 1.3272655,-4.705628 0.600541,1.033453 0.338262,1.671912 0.402102,0.500709 -0.100129,-0.20829 -0.244482,-0.388039 -0.543509,-0.485914 -0.221396,-0.07247 -0.5364475,0.0729 -0.9055385,0.175683 -0.301925,0.08388 -0.591172,0.221242 -0.860612,0.314976 -0.630114,0.219364 -1.23271,0.294952 -1.743657,0.560483 -0.180201,0.09356 -0.304118,0.292918 -0.490774,0.38845 -0.04796,0.02455 -0.06472,-0.0577 -0.115868,-0.0012 -0.19224,0.212457 -0.734879,0.205139 -1.114811,0.242778 -0.6175405,0.06133 -1.0269715,0.05228 -1.5965705,-0.179454 -0.318982,-0.336764 -0.644444,-0.561534 -1.12720403,-0.753468 -0.07002,-0.159899 -0.148429,-0.243648 -0.08847,-0.3949 0.137148,-0.346241 0.46879703,-0.155763 0.90550503,-0.17562 0.403293,-0.01825 0.785023,-0.24343 0.997596,-0.128163 0.295295,-0.278432 0.6720795,-0.303141 0.9789815,-0.54546 0.37242,0.04709 -0.02029,0.340021 0.250415,0.419638 0.261332,-0.124473 0.170386,-0.295526 0.214231,-0.530474 0.145384,0.05335 0.268289,0.03685 0.371123,-0.04233 0.216354,0.05869 -0.08688,0.28437 0.112052,0.348661 0.2172,-0.555526 0.554803,-0.467396 0.956583,-0.615152 0.322216,-0.118481 0.501518,-0.353352 0.792171,-0.408477 0.562033,-0.765525 1.233328,-1.190568 1.961782,-1.438424 0.1714335,-0.09311 0.2103765,0.09565 0.3699395,0.07328 1.145419,-0.705908 2.2831119,-1.436021 3.4065759,-2.210584 -0.32784,0.0296 -0.577076,0.137381 -0.252826,-0.188033 -0.199652,0.09674 -0.402261,0.268435 -0.60666,0.387282 -0.568427,0.330611 -1.238566,0.690581 -1.7973019,1.231622 -0.718792,0.430963 -1.6138575,0.35838 -2.3029725,0.855623 -0.272555,0.196649 -0.418095,0.520865 -0.680055,0.757333 -0.196462,0.177131 -0.447381,0.319468 -0.699918,0.455774 -0.244373,0.131801 -0.497979,0.136466 -0.767336,0.246497 -0.195473,0.07979 -0.326882,0.263023 -0.51314,0.318856 -0.242862,0.07268 -0.59358,0.043 -0.904319,0.05969 -0.8164365,0.77238 -1.9800985,0.463841 -2.97299053,0.686498 -0.391706,0.844061 0.331441,1.329878 1.04609003,1.818482 0.498669,-0.0446 0.925121,0.295746 1.340133,0.338867 0.2347995,0.02435 0.6322155,-0.03087 0.9042215,-0.05982 0.71648,-0.0761 1.114865,-0.400497 1.768781,-0.722231 0.800484,-0.393803 1.778918,-0.612998 2.651598,-0.967612 0.4703015,0.308241 0.8842735,0.858333 0.2875755,1.254197 -0.09049,0.349805 -0.07989,0.667007 -0.03362,0.972697 -0.5817185,0.477712 -1.0071755,1.737207 -1.4648375,2.625495 -0.07374,0.209437 -0.233964,0.149989 -0.37234,0.158162 -0.07499,0.15239 0.04067,0.243487 -0.09715,0.41595 -0.797103,0.850254 -2.039689,1.736502 -2.832434,2.680179 -0.252469,0.30059 -0.423225,0.651597 -0.682524,0.988908 -0.3506935,0.456084 -0.8741465,0.771918 -1.2642675,1.214257 -0.539717,0.612248 -0.87449303,1.402894 -1.45852003,2.046351 0.203566,0.395496 -0.10557,0.967523 0.333651,1.277941 0.25995103,0.183637 0.53672603,0.102051 0.90185103,0.171888 0.37187,-0.261373 0.808439,-0.402967 1.165827,-0.682507 0.7021225,-0.549158 1.1963405,-1.448337 1.8758155,-2.064962 0.17832,-0.161904 0.435652,-0.27226 0.630162,-0.433408 0.428655,-0.355012 0.777503,-0.792946 1.170861,-1.145849 0.385258,-0.345359 0.841383,-0.687076 1.239305,-1.052345 0.161127,-0.147896 0.401112,-0.343474 0.607829,-0.50323 0.2186445,-0.168583 0.3942415,-0.479638 0.7199435,-0.154377 -0.06903,1.308287 -1.1668515,2.289768 -1.6828035,3.503601 -0.158873,0.37377 -0.250673,0.808236 -0.383692,1.200647 -0.496271,1.463367 -1.453779,3.404064 -1.953163,4.937106 0.101438,0.52615 0.02781,1.215632 0.841919,1.42243 0.118946,0.03013 0.507492,-0.04739 0.650186,-0.132013 0.684838,-0.406628 1.298532,-1.998156 1.79235,-2.92314 0.3193755,-0.598301 0.6709195,-1.467945 0.8794275,-2.052478 0.11807,-0.330846 0.369957,-0.587604 0.541887,-0.82821 0.9730949,-1.362738 1.3043899,-2.953498 2.2644169,-3.729019 l 4.4e-5,1.09e-4 z m 4.341433,7.762171 c 0.03083,-0.06123 -0.05914,-0.08361 -0.0448,-0.139552 -0.09028,-0.466537 0.02506,-0.919796 0.08464,-1.412425 0.06665,-0.549297 0.174709,-1.270997 0.112229,-1.80591 -0.03342,-0.285925 -0.155909,-0.553962 -0.199202,-0.859426 -0.01974,-0.138954 -0.0406,-0.291889 -0.06482,-0.440946 -0.02317,-0.142257 -0.09597,-0.310819 -0.110801,-0.46456 -0.05567,-0.575869 0.182549,-1.191471 0.15834,-1.782229 -0.0099,-0.239144 -0.153604,-0.425996 -0.06238,-0.672616 0.576029,-0.163271 1.163413,-0.291208 1.742503,-0.444614 -0.04582,0.455561 0.0022,0.904538 -0.01501,1.390155 -0.01608,0.452876 -0.126751,0.925843 -0.154523,1.434723 -0.01695,0.312153 0.103796,0.616191 0.105829,0.927934 0.0021,0.316757 -0.116241,0.662153 -0.103347,0.99516 0.0073,0.189291 0.08065,0.349193 0.08715,0.510768 0.02595,0.650981 -0.107464,1.678892 -0.534496,2.287896 -0.186717,0.266577 -0.433335,0.467932 -0.724851,0.617784 -0.09214,-0.04751 -0.184308,-0.09482 -0.276466,-0.142142 z"
         inkscape:connector-curvature="0" />
    </g>
    <text
       xml:space="preserve"
       style="font-size:40px;font-style:normal;font-weight:normal;line-height:125%;letter-spacing:0px;word-spacing:0px;fill:#000000;fill-opacity:1;stroke:none;font-family:Sans"
       x="430.12192"
       y="92.519318"
       id="text3897"
       sodipodi:linespacing="125%"><tspan
         sodipodi:role="line"
         id="tspan3899"
         x="430.12192"
         y="92.519318"
         style="font-size:120px">Open Video Chat</tspan></text>
    <flowRoot
       xml:space="preserve"
       id="flowRoot3905"
       style="font-size:40px;font-style:normal;font-weight:normal;line-height:125%;letter-spacing:0px;word-spacing:0px;writing-mode:lr-tb;fill:#000000;fill-opacity:1;stroke:none;font-family:Sans"
       transform="translate(0,-29.637817)"><flowRegion
         id="flowRegion3907"><rect
           id="rect3909"
           width="1402.8572"
           height="191.42857"
           x="442.85715"
           y="165.71428" /></flowRegion><flowPara
         id="flowPara3911">Open Video Chat is a video communication software originally developed in 2010 for the XO laptops as part of the One Laptop per Child program, and was originally intended to aid the hard of hearing.</flowPara></flowRoot>    <flowRoot
       xml:space="preserve"
       id="flowRoot3913"
       style="font-size:40px;font-style:normal;font-weight:normal;line-height:125%;letter-spacing:0px;word-spacing:0px;writing-mode:lr-tb;fill:#000000;fill-opacity:1;stroke:none;font-family:Sans"
       transform="translate(0,-27.637817)"><flowRegion
         id="flowRegion3915"><rect
           id="rect3917"
           width="860"
           height="608.57135"
           x="51.42857"
           y="431.42856" /></flowRegion><flowPara
         id="flowPara3919"
         style="font-weight:bold;-inkscape-font-specification:Sans Bold;font-size:56px">Project Objectives</flowPara><flowPara
         id="flowPara3925" /><flowPara
         id="flowPara3941">The original version was built in 2010, and the code has since deprecated.  My aim is to revise the code, add audio, and make it functional across multiple linux distributions.</flowPara><flowPara
         id="flowPara3927" /><flowPara
         id="flowPara3929">- Revise code</flowPara><flowPara
         id="flowPara3931">- Add audio</flowPara><flowPara
         id="flowPara3933">- Cross platform</flowPara><flowPara
         id="flowPara3935" /></flowRoot>  </g>
</svg>
