<?xml version="1.0" encoding="utf-8"?>
<!-- Generator: Adobe Illustrator 15.1.0, SVG Export Plug-In . SVG Version: 6.00 Build 0)  -->
<!DOCTYPE svg PUBLIC "-//W3C//DTD SVG 1.1//EN" "http://www.w3.org/Graphics/SVG/1.1/DTD/svg11.dtd">
<svg version="1.1" id="Layer_1" xmlns="http://www.w3.org/2000/svg" xmlns:xlink="http://www.w3.org/1999/xlink" x="0px" y="0px"
	 width="382.031px" height="403.977px" viewBox="-19.966 -269.428 382.031 403.977"
	 enable-background="new -19.966 -269.428 382.031 403.977" xml:space="preserve">
<g id="camera">
	<g>
		<path fill="#FFFFFF" stroke="#010101" stroke-width="3.5" d="M51.375,27.456c0,0-10.908,13.119-24.001,13.126
			C14.281,40.594,3.375,27.475,3.375,27.475s10.906-13.057,23.999-13.057C40.466,14.409,51.375,27.456,51.375,27.456z"/>
		<path fill="none" stroke="#010101" stroke-width="3.5" d="M20.443,27.499c0,3.826,3.105,6.931,6.93,6.931
			c3.82,0,6.926-3.104,6.926-6.931c0-3.819-3.105-6.932-6.926-6.932C23.548,20.568,20.443,23.68,20.443,27.499z"/>
	</g>
</g>
<circle fill="none" stroke="#010101" stroke-width="23" cx="45.172" cy="-209.964" r="24.729"/>
<circle fill="none" stroke="#010101" stroke-width="5" cx="45.172" cy="-209.965" r="7"/>
<ellipse fill="#010101" cx="45.172" cy="-176.111" rx="25.314" ry="9.125"/>
<g>
	<path fill="#010101" d="M100.542,29.291c-2.717,0-4.928-2.209-4.928-4.926s2.211-4.928,4.928-4.928s4.927,2.211,4.927,4.928
		S103.259,29.291,100.542,29.291z M100.542,22.031c-1.287,0-2.334,1.047-2.334,2.334c0,1.285,1.047,2.332,2.334,2.332
		s2.334-1.047,2.334-2.332C102.876,23.078,101.829,22.031,100.542,22.031z"/>
</g>
<path fill="none" d="M100.542,17.504c-3.783,0-6.861,3.078-6.861,6.861c0,3.781,3.078,6.859,6.861,6.859
	c3.782,0,6.86-3.078,6.86-6.859C107.402,20.582,104.324,17.504,100.542,17.504z"/>
<path fill="#010101" d="M89.352,41.002c-1.229,0.721-1.938,1.568-1.938,2.475c0,2.615,5.878,6.809,13.129,6.809
	s13.129-4.193,13.129-6.809c0-0.906-0.71-1.754-1.938-2.475c-3.129,2.328-7.001,3.707-11.19,3.707S92.479,43.33,89.352,41.002z"/>
<path fill="#010101" d="M100.542,5.576c-10.36,0-18.789,8.428-18.789,18.789c0,6.17,2.991,11.654,7.599,15.082
	c3.128,2.326,7.001,3.705,11.19,3.705s8.062-1.379,11.19-3.705c4.607-3.428,7.599-8.912,7.599-15.082
	C119.331,14.004,110.902,5.576,100.542,5.576z M100.542,17.504c3.782,0,6.86,3.078,6.86,6.861c0,3.781-3.078,6.859-6.86,6.859
	c-3.783,0-6.861-3.078-6.861-6.859C93.681,20.582,96.759,17.504,100.542,17.504z"/>
<path fill="none" d="M103.198,89.265c-3.783,0-6.861,3.078-6.861,6.861c0,3.781,3.078,6.859,6.861,6.859
	c3.782,0,6.859-3.078,6.859-6.859C110.058,92.343,106.98,89.265,103.198,89.265z"/>
<path fill="#010101" d="M92.008,114.763c-1.229,0.721-1.938,1.568-1.938,2.475c0,2.615,5.878,6.809,13.129,6.809
	c7.25,0,13.129-4.193,13.129-6.809c0-0.906-0.709-1.754-1.938-2.475c-3.131,2.328-7.002,3.707-11.191,3.707
	S95.136,117.091,92.008,114.763z"/>
<path fill="#010101" d="M103.198,77.337c-10.36,0-18.789,8.428-18.789,18.789c0,6.17,2.991,11.654,7.599,15.082
	c3.128,2.326,7.001,3.705,11.19,3.705s8.061-1.379,11.191-3.705c4.607-3.428,7.6-8.912,7.6-15.082
	C121.989,85.765,113.56,77.337,103.198,77.337z M103.198,89.265c3.782,0,6.859,3.078,6.859,6.861c0,3.781-3.077,6.859-6.859,6.859
	c-3.783,0-6.861-3.078-6.861-6.859C96.337,92.343,99.415,89.265,103.198,89.265z"/>
<path fill="#010101" d="M324.915,14.256c0,3.391-2.686,6.141-6,6.141l0,0c-3.314,0-6-2.75-6-6.141V-4.91
	c0-3.392,2.686-6.141,6-6.141l0,0c3.314,0,6,2.75,6,6.141V14.256z"/>
<g>
	<path fill="none" stroke="#010101" stroke-width="4.6037" stroke-miterlimit="10" d="M308.935,5.007
		c0,10.396-0.979,18.822,9.98,18.822c10.959,0,9.979-8.427,9.979-18.822"/>
</g>
<g>
	<g>
		<path fill="#010101" d="M171.501-36.88c-10.984,0-19.058-2.753-24.68-8.417c-9.726-9.798-9.609-25.523-9.475-43.732
			c0.016-2.141,0.032-4.323,0.032-6.537h12.789c0,2.246-0.016,4.459-0.032,6.631c-0.113,15.352-0.211,28.609,5.763,34.627
			c3.098,3.121,8.201,4.637,15.603,4.637c7.4,0,12.503-1.517,15.6-4.636c5.974-6.018,5.876-19.276,5.763-34.628
			c-0.017-2.172-0.032-4.386-0.032-6.632h12.789c0,2.214,0.017,4.396,0.032,6.538c0.135,18.209,0.251,33.935-9.475,43.732
			C190.557-39.633,182.484-36.88,171.501-36.88z"/>
	</g>
</g>
<g>
	<path fill="#010101" d="M173.118-97.76c-1.657,0-3-1.343-3-3s1.343-3,3-3h15.052v-6.052h-15.052c-1.657,0-3-1.343-3-3s1.343-3,3-3
		h15.052v-7.015c0-9.422-7.461-17.061-16.669-17.061s-16.669,7.639-16.669,17.061v53.246c0,9.419,7.461,17.06,16.669,17.06
		s16.669-7.64,16.669-17.06V-85h-15.052c-1.657,0-3-1.343-3-3s1.343-3,3-3h15.052v-6.76H173.118z"/>
</g>
<line fill="none" stroke="#FFFFFF" stroke-width="3.3388" stroke-linecap="round" stroke-miterlimit="10" x1="270" y1="-172.313" x2="270" y2="-129.116"/>
<g>
	<g>
		<path fill="#010101" d="M171.703,50.345c-4.807,0-8.34-1.203-10.801-3.684c-4.256-4.289-4.206-11.17-4.147-19.141
			c0.006-0.936,0.014-1.891,0.014-2.859h5.598c0,0.982-0.006,1.951-0.013,2.902c-0.05,6.719-0.094,12.52,2.521,15.154
			c1.354,1.365,3.589,2.029,6.828,2.029c3.24,0,5.473-0.664,6.827-2.029c2.615-2.633,2.572-8.436,2.522-15.154
			c-0.008-0.951-0.014-1.92-0.014-2.902h5.599c0,0.969,0.007,1.924,0.014,2.859c0.059,7.971,0.108,14.855-4.147,19.141
			C180.044,49.142,176.51,50.345,171.703,50.345z"/>
	</g>
</g>
<g>
	<path fill="#010101" d="M172.411,23.7c-0.725,0-1.313-0.588-1.313-1.313s0.588-1.313,1.313-1.313H179v-2.648h-6.589
		c-0.725,0-1.313-0.59-1.313-1.314s0.588-1.313,1.313-1.313H179v-3.07c0-4.123-3.267-7.467-7.297-7.467s-7.295,3.344-7.295,7.467
		v23.305c0,4.121,3.265,7.467,7.295,7.467S179,40.155,179,36.034v-6.75h-6.589c-0.725,0-1.313-0.588-1.313-1.313
		s0.588-1.313,1.313-1.313H179V23.7H172.411z"/>
</g>
<g>
	<g>
		<path fill="#010101" d="M171.607,125.944c-5.74,0-9.959-1.282-12.898-3.924c-5.08-4.569-5.021-11.899-4.951-20.392
			c0.006-0.996,0.017-2.014,0.017-3.046h6.683c0,1.047-0.006,2.079-0.015,3.092c-0.06,7.158-0.112,13.338,3.011,16.145
			c1.618,1.454,4.285,2.162,8.154,2.162c3.868,0,6.534-0.708,8.151-2.162c3.122-2.805,3.071-8.986,3.012-16.145
			c-0.009-1.013-0.017-2.045-0.017-3.092h6.687c0,1.032,0.007,2.05,0.015,3.046c0.07,8.492,0.131,15.826-4.951,20.392
			C181.566,124.662,177.346,125.944,171.607,125.944z"/>
	</g>
</g>
<g>
	<path fill="#010101" d="M172.411,96.461c-0.725,0-1.313-0.588-1.313-1.313s0.588-1.313,1.313-1.313H179v-2.648h-6.589
		c-0.725,0-1.313-0.59-1.313-1.314s0.588-1.313,1.313-1.313H179v-3.07c0-4.123-3.267-7.467-7.297-7.467s-7.295,3.344-7.295,7.467
		v23.305c0,4.121,3.265,7.467,7.295,7.467s7.297-3.346,7.297-7.467v-6.75h-6.589c-0.725,0-1.313-0.588-1.313-1.313
		s0.588-1.313,1.313-1.313H179v-2.959H172.411z"/>
</g>
<g>
	<path fill="#010101" d="M255.184,107.471c0,4.093-3.241,7.412-7.241,7.412l0,0c-4.001,0-7.242-3.319-7.242-7.412V84.337
		c0-4.093,3.241-7.412,7.242-7.412l0,0c4,0,7.241,3.319,7.241,7.412V107.471z"/>
</g>
<g>
	<g>
		<path fill="#010101" d="M248.087,124.125c-5.208,0-9.032-1.305-11.699-3.989c-4.608-4.644-4.554-12.1-4.491-20.73
			c0.009-1.016,0.016-2.05,0.016-3.099h6.063c0,1.064-0.007,2.115-0.016,3.146c-0.054,7.275-0.1,13.561,2.731,16.412
			c1.469,1.479,3.889,2.198,7.396,2.198s5.926-0.719,7.395-2.198c2.832-2.852,2.786-9.137,2.732-16.412
			c-0.009-1.03-0.016-2.081-0.016-3.146h6.063c0,1.049,0.007,2.085,0.015,3.099c0.063,8.632,0.118,16.087-4.49,20.73
			C257.119,122.82,253.293,124.125,248.087,124.125z"/>
	</g>
</g>
</svg>
