<?xml version="1.0" encoding="utf-8"?>
<!-- Generator: Adobe Illustrator 15.1.0, SVG Export Plug-In . SVG Version: 6.00 Build 0)  -->
<!DOCTYPE svg PUBLIC "-//W3C//DTD SVG 1.1//EN" "http://www.w3.org/Graphics/SVG/1.1/DTD/svg11.dtd">
<svg version="1.1"
	 id="svg2" inkscape:version="0.48.2 r9819" sodipodi:docname="OVC Icons.svg" xmlns:sodipodi="http://sodipodi.sourceforge.net/DTD/sodipodi-0.dtd" xmlns:dc="http://purl.org/dc/elements/1.1/" xmlns:svg="http://www.w3.org/2000/svg" xmlns:inkscape="http://www.inkscape.org/namespaces/inkscape" xmlns:rdf="http://www.w3.org/1999/02/22-rdf-syntax-ns#" xmlns:cc="http://creativecommons.org/ns#"
	 xmlns="http://www.w3.org/2000/svg" xmlns:xlink="http://www.w3.org/1999/xlink" x="0px" y="0px" width="1177.253px"
	 height="2067.733px" viewBox="0 -193.9 1177.253 2067.733" enable-background="new 0 -193.9 1177.253 2067.733"
	 xml:space="preserve">
<sodipodi:namedview  id="base" inkscape:window-maximized="0" inkscape:window-y="0" inkscape:window-x="-2" inkscape:window-height="856" inkscape:window-width="1436" inkscape:current-layer="layer1" inkscape:document-units="px" inkscape:pageshadow="2" inkscape:pageopacity="0.0" showgrid="false" pagecolor="#ffffff" inkscape:cx="396.18211" inkscape:zoom="1.28" borderopacity="1.0" inkscape:cy="196.66468" bordercolor="#666666">
	</sodipodi:namedview>
<g id="g4405">
	
		<path id="path3823" sodipodi:type="arc" sodipodi:cx="562.14288" sodipodi:cy="241.6479" sodipodi:rx="133.57143" sodipodi:ry="133.57143" opacity="0.9655" stroke="#000000" stroke-width="1.079" enable-background="new    " d="
		M816.502,839.968c0,99.012-80.264,179.275-179.275,179.275c-99.011,0-179.275-80.264-179.275-179.275l0,0
		c0-99.012,80.265-179.276,179.275-179.276C736.238,660.691,816.502,740.956,816.502,839.968L816.502,839.968z"/>
	<path id="path3043" inkscape:connector-curvature="0" fill="#5694F1" d="M537.703,720.444v239.047L776.75,837.907L537.703,720.444z
		"/>
</g>
<path id="path3825" sodipodi:type="arc" sodipodi:cx="562.14288" sodipodi:cy="241.6479" sodipodi:rx="133.57143" sodipodi:ry="133.57143" opacity="0.9655" enable-background="new    " d="
	M402.721,839.967c0,99.012-80.265,179.275-179.275,179.275S44.17,938.979,44.17,839.967S124.435,660.69,223.445,660.69
	S402.721,740.955,402.721,839.967z"/>
<rect id="rect3821" x="122.483" y="739.004" fill="#E60000" width="201.925" height="201.926"/>
<path id="path2990" sodipodi:type="arc" sodipodi:cx="562.14288" sodipodi:cy="241.6479" sodipodi:rx="133.57143" sodipodi:ry="133.57143" opacity="0.9655" stroke="#000000" stroke-width="1.079" enable-background="new    " d="
	M381.275,1249.39c0,99.012-80.264,179.275-179.275,179.275S22.724,1348.401,22.724,1249.39S102.988,1070.113,202,1070.113
	S381.275,1150.378,381.275,1249.39z"/>
<circle fill="none" stroke="#E60000" stroke-width="21.3795" cx="202" cy="1249.388" r="169.198"/>
<g>
	
		<path id="path3825_1_" sodipodi:type="arc" sodipodi:cx="562.14288" sodipodi:cy="241.6479" sodipodi:rx="133.57143" sodipodi:ry="133.57143" opacity="0.9655" enable-background="new    " d="
		M401.276,8.255c0,99.012-80.264,179.275-179.275,179.275c-99.011,0-179.276-80.264-179.276-179.275S122.989-171.021,222-171.021
		C321.012-171.021,401.276-90.757,401.276,8.255z"/>
	<g>
		<g>
			<path fill="#5694F1" d="M221.348,100.431c-87.68,0-158.55-84.045-161.524-87.623l-5.945-7.152l5.962-7.137
				c2.977-3.563,73.909-87.274,161.62-87.274c87.751,0,158.653,83.594,161.628,87.153l5.969,7.139l-5.95,7.156
				c-2.977,3.58-73.918,87.687-161.641,87.739H221.348z M83.486,5.693c18.587,19.554,74.688,72.417,137.862,72.417h0.102
				c63.379-0.038,119.431-52.944,138.001-72.523c-18.609-19.461-74.727-72.021-137.907-72.021
				C158.265-66.434,102.109-13.8,83.486,5.693z"/>
		</g>
		<g>
			<path fill="#5694F1" d="M221.453,61.192c-30.523,0-55.355-24.835-55.355-55.362c0-30.517,24.83-55.357,55.35-55.374
				c30.515,0,55.336,24.84,55.336,55.374C276.783,36.356,251.962,61.192,221.453,61.192z M221.453-27.223
				c-18.212,0.01-33.034,14.837-33.034,33.052c0,18.219,14.819,33.041,33.034,33.041c18.201,0,33.009-14.822,33.009-33.041
				C254.462-12.396,239.654-27.223,221.453-27.223z"/>
		</g>
	</g>
</g>
<g>
	
		<path id="path2990_1_" sodipodi:type="arc" sodipodi:cx="562.14288" sodipodi:cy="241.6479" sodipodi:rx="133.57143" sodipodi:ry="133.57143" opacity="0.9655" stroke="#000000" stroke-width="1.079" enable-background="new    " d="
		M800.805,6.376c0,99.012-80.264,179.275-179.275,179.275c-99.011,0-179.275-80.264-179.275-179.275S522.519-172.9,621.529-172.9
		C720.541-172.9,800.805-92.635,800.805,6.376z"/>
	<g>
		<path fill="#5694F1" d="M621.531,3.745c-13.076,0-23.719-10.631-23.719-23.708s10.643-23.719,23.719-23.719
			s23.715,10.642,23.715,23.719S634.607,3.745,621.531,3.745z M621.531-31.198c-6.197,0-11.234,5.039-11.234,11.234
			c0,6.186,5.037,11.224,11.234,11.224c6.195,0,11.234-5.039,11.234-11.224C632.766-26.159,627.727-31.198,621.531-31.198z"/>
	</g>
	<path fill="none" d="M621.533-61.618c-22.969,0-41.656,18.687-41.656,41.655c0,22.956,18.688,41.644,41.656,41.644
		c22.961,0,41.648-18.688,41.648-41.644C663.182-42.931,644.494-61.618,621.533-61.618z"/>
	<path fill="#5694F1" d="M553.594,90.273c-7.459,4.375-11.77,9.521-11.77,15.023c0,15.876,35.684,41.335,79.705,41.335
		s79.705-25.458,79.705-41.335c0-5.502-4.311-10.647-11.77-15.023c-18.994,14.134-42.5,22.505-67.936,22.505
		C596.096,112.778,572.582,104.407,553.594,90.273z"/>
	<path fill="#5694F1" d="M621.529-134.031c-62.897,0-114.068,51.165-114.068,114.068c0,37.457,18.159,70.753,46.131,91.566
		c18.99,14.121,42.503,22.492,67.938,22.492s48.94-8.371,67.936-22.492c27.973-20.813,46.133-54.109,46.133-91.566
		C735.598-82.866,684.427-134.031,621.529-134.031z M621.529-61.618c22.962,0,41.648,18.687,41.648,41.655
		c0,22.956-18.687,41.644-41.648,41.644c-22.97,0-41.655-18.688-41.655-41.644C579.874-42.931,598.56-61.618,621.529-61.618z"/>
</g>
<g>
	
		<path id="path2996_1_" sodipodi:type="arc" sodipodi:cx="562.14288" sodipodi:cy="241.6479" sodipodi:rx="133.57143" sodipodi:ry="133.57143" opacity="0.9655" stroke="#000000" stroke-width="1.079" enable-background="new    " d="
		M815.994,409.567c0,99.012-80.264,179.275-179.275,179.275s-179.275-80.264-179.275-179.275s80.264-179.276,179.275-179.276
		S815.994,310.555,815.994,409.567z"/>
	<g>
		<g>
			<path fill="#5694F1" d="M636.725,548.012c-33.746,0-58.548-7.538-75.829-23.068c-29.865-26.863-29.521-69.956-29.107-119.881
				c0.034-5.856,0.098-11.838,0.098-17.906h39.286c0,6.154-0.034,12.223-0.086,18.176c-0.351,42.083-0.66,78.413,17.7,94.913
				c9.513,8.549,25.192,12.711,47.938,12.711c22.741,0,38.414-4.162,47.922-12.711c18.354-16.488,18.056-52.83,17.705-94.913
				c-0.052-5.954-0.098-12.022-0.098-18.176h39.31c0,6.068,0.041,12.05,0.087,17.906c0.413,49.925,0.769,93.042-29.108,119.881
				C695.272,540.474,670.46,548.012,636.725,548.012z"/>
		</g>
	</g>
	<g>
		<path fill="#5694F1" d="M641.449,374.681c-4.26,0-7.716-3.457-7.716-7.716s3.456-7.716,7.716-7.716h38.736v-15.57h-38.736
			c-4.26,0-7.716-3.468-7.716-7.728c0-4.26,3.456-7.716,7.716-7.716h38.736v-18.05c0-24.239-19.204-43.897-42.898-43.897
			c-23.693,0-42.886,19.658-42.886,43.897v137.007c0,24.228,19.192,43.896,42.886,43.896c23.694,0,42.898-19.669,42.898-43.896
			v-39.683h-38.736c-4.26,0-7.716-3.456-7.716-7.716c0-4.26,3.456-7.716,7.716-7.716h38.736v-17.396H641.449z"/>
	</g>
</g>
<g>
	
		<path id="path2996_2_" sodipodi:type="arc" sodipodi:cx="562.14288" sodipodi:cy="241.6479" sodipodi:rx="133.57143" sodipodi:ry="133.57143" opacity="0.9655" stroke="#000000" stroke-width="1.079" enable-background="new    " d="
		M403.228,409.567c0,99.012-80.264,179.275-179.275,179.275c-99.011,0-179.274-80.264-179.274-179.275
		s80.264-179.276,179.274-179.276C322.964,230.291,403.228,310.555,403.228,409.567z"/>
	<g>
		<g>
			<path fill="#5694F1" d="M223.958,548.012c-33.746,0-58.548-7.538-75.829-23.068c-29.865-26.863-29.521-69.956-29.107-119.881
				c0.034-5.856,0.098-11.838,0.098-17.906h39.286c0,6.154-0.034,12.223-0.086,18.176c-0.351,42.083-0.66,78.413,17.7,94.913
				c9.513,8.549,25.192,12.711,47.938,12.711c22.741,0,38.414-4.162,47.922-12.711c18.354-16.488,18.056-52.83,17.705-94.913
				c-0.052-5.954-0.098-12.022-0.098-18.176h39.31c0,6.068,0.041,12.05,0.087,17.906c0.413,49.925,0.769,93.042-29.108,119.881
				C282.506,540.474,257.693,548.012,223.958,548.012z"/>
		</g>
	</g>
	<g>
		<path fill="#5694F1" d="M228.683,374.681c-4.26,0-7.716-3.457-7.716-7.716s3.456-7.716,7.716-7.716h38.736v-15.57h-38.736
			c-4.26,0-7.716-3.468-7.716-7.728c0-4.26,3.456-7.716,7.716-7.716h38.736v-18.05c0-24.239-19.204-43.897-42.898-43.897
			c-23.693,0-42.886,19.658-42.886,43.897v137.007c0,24.228,19.192,43.896,42.886,43.896c23.694,0,42.898-19.669,42.898-43.896
			v-39.683h-38.736c-4.26,0-7.716-3.456-7.716-7.716c0-4.26,3.456-7.716,7.716-7.716h38.736v-17.396H228.683z"/>
	</g>
	<path id="path4401_1_" inkscape:connector-curvature="0" fill="none" stroke="#E60000" stroke-width="19" d="M79.359,310.086
		l294.547,182.853"/>
	<circle fill="none" stroke="#E60000" stroke-width="21.3795" cx="223.952" cy="409.641" r="169.198"/>
</g>
<g id="g4429">
	
		<path id="path2996" sodipodi:type="arc" sodipodi:cx="562.14288" sodipodi:cy="241.6479" sodipodi:rx="133.57143" sodipodi:ry="133.57143" opacity="0.9655" stroke="#000000" stroke-width="1.079" enable-background="new    " d="
		M1163.826,1254.691c0,99.012-80.264,179.275-179.275,179.275s-179.275-80.264-179.275-179.275s80.264-179.276,179.275-179.276
		S1163.826,1155.68,1163.826,1254.691z"/>
</g>
<g>
	<path fill="none" stroke="#5694F1" stroke-width="18" stroke-linecap="round" d="M1050.603,1304.436
		c15.891,0,32.772-21.188,32.772-47.323c0-26.135-16.882-47.322-32.772-47.322"/>
</g>
<g>
	<path fill="none" stroke="#5694F1" stroke-width="18" stroke-linecap="round" d="M1066.989,1340.388
		c30.418,0,61.071-37.283,61.071-83.275c0-45.99-30.655-83.273-61.071-83.274"/>
</g>
<path id="path2996_3_" sodipodi:type="arc" sodipodi:cx="562.14288" sodipodi:cy="241.6479" sodipodi:rx="133.57143" sodipodi:ry="133.57143" opacity="0.9655" stroke="#000000" stroke-width="1.079" enable-background="new    " d="
	M788.887,1249.39c0,99.012-80.264,179.275-179.275,179.275s-179.275-80.264-179.275-179.275s80.264-179.276,179.275-179.276
	S788.887,1150.378,788.887,1249.39z"/>
<path id="path4403_3_" inkscape:connector-curvature="0" sodipodi:nodetypes="ccssc" fill="#5694F1" d="M74.507,1282.414
	c0-22.462,0-51.808,0-69.933s164.042-37.186,164.042-94.723c0-7.518,23-6.131,23,26.151c0,29.069,0,173.325,0,209.661
	c0,44.375-23,29.836-23,25.25C238.549,1322.098,74.507,1304.876,74.507,1282.414z"/>
<path id="path4403_1_" inkscape:connector-curvature="0" sodipodi:nodetypes="ccssc" fill="#5694F1" d="M462.457,1282.414
	c0-22.462,0-51.808,0-69.933s164.042-37.186,164.042-94.723c0-7.518,23-6.131,23,26.151c0,29.069,0,173.325,0,209.661
	c0,44.375-23,29.836-23,25.25C626.498,1322.098,462.457,1304.876,462.457,1282.414z"/>
<path id="path4403_2_" inkscape:connector-curvature="0" sodipodi:nodetypes="ccssc" fill="#5694F1" d="M836.351,1287.716
	c0-22.462,0-51.808,0-69.933s164.042-37.186,164.042-94.723c0-7.518,23-6.131,23,26.151c0,29.069,0,173.325,0,209.661
	c0,44.375-23,29.836-23,25.25C1000.393,1327.399,836.351,1310.178,836.351,1287.716z"/>
<line fill="none" stroke="#5694F1" stroke-width="24" stroke-linecap="round" x1="682.954" y1="1254.69" x2="747.459" y2="1254.69"/>
<line fill="none" stroke="#5694F1" stroke-width="24" stroke-linecap="round" x1="682.954" y1="1313.359" x2="720.447" y2="1329.39"/>
<line fill="none" stroke="#5694F1" stroke-width="24" stroke-linecap="round" x1="682.954" y1="1202.813" x2="716.921" y2="1173.838"/>
<g>
	<g>
		<path opacity="0.9655" enable-background="new    " d="M408.501,1661.546c0-99.012-80.264-179.276-179.275-179.276
			c-99.011,0-179.275,80.265-179.275,179.276c0,68.749,38.704,128.448,95.505,158.526c8.034-14.798,23.709-16.844,41.73-16.844
			l23.139-8v-20.299c-41.556-10.713-72.842-57.546-72.842-113.696c0-0.414,0.046-0.811,0.046-1.22c2.005,0.754,4.15,1.22,6.421,1.22
			c10.076,0,18.247-8.17,18.247-18.246c0-10.073-8.171-18.241-18.247-18.241c-0.638,0-1.243,0.121-1.862,0.189
			c11.956-46.275,46.069-79.704,86.355-79.704c40.19,0,74.227,33.278,86.26,79.382c-0.402-0.021-0.787-0.119-1.197-0.119
			c-11.187,0-20.264,9.076-20.264,20.264c0,11.199,9.077,20.27,20.264,20.27c2.024,0,3.938-0.379,5.778-0.932
			c-1.029,53.692-30.604,98.354-70.129,110.109v21.023l20.431,8c18.301,0,34.172,2.366,42.09,17.541
			C369.197,1790.922,408.501,1730.828,408.501,1661.546z"/>
		<path fill="#5694F1" d="M269.585,1803.229l-20.431-8v-21.023c39.524-11.756,69.1-56.417,70.129-110.109
			c-1.84,0.553-3.754,0.932-5.778,0.932c-11.187,0-20.264-9.07-20.264-20.27c0-11.188,9.077-20.264,20.264-20.264
			c0.41,0,0.795,0.098,1.197,0.119c-12.033-46.104-46.069-79.382-86.26-79.382c-40.286,0-74.399,33.429-86.355,79.704
			c0.619-0.068,1.225-0.189,1.862-0.189c10.076,0,18.247,8.168,18.247,18.241c0,10.076-8.171,18.246-18.247,18.246
			c-2.271,0-4.416-0.466-6.421-1.22c0,0.409-0.046,0.806-0.046,1.22c0,56.15,31.286,102.983,72.842,113.696v20.299l-23.139,8
			c-18.021,0-33.696,2.046-41.73,16.844c25.003,13.24,53.508,20.749,83.771,20.749c29.73,0,57.766-7.245,82.449-20.052
			C303.757,1805.595,287.886,1803.229,269.585,1803.229z"/>
	</g>
	<g>
		<g>
			<path fill="#5694F1" d="M125.709,1642.987c0,7.806,4.926,14.417,11.819,17.026c0.104-12.25,1.701-24.022,4.559-35.078
				C132.906,1625.879,125.709,1633.553,125.709,1642.987z"/>
			<path opacity="0.9655" stroke="#000000" stroke-width="1.079" enable-background="new    " d="M162.196,1642.987
				c0-10.073-8.171-18.241-18.247-18.241c-0.638,0-1.243,0.121-1.862,0.189c-2.857,11.056-4.455,22.828-4.559,35.078
				c2.005,0.754,4.15,1.22,6.421,1.22C154.025,1661.233,162.196,1653.063,162.196,1642.987z"/>
			<path fill="#5694F1" d="M333.776,1644.758c0-10.785-8.451-19.512-19.074-20.145c3.007,11.521,4.695,23.812,4.695,36.62
				c0,0.966-0.097,1.897-0.114,2.862C327.642,1661.59,333.776,1653.932,333.776,1644.758z"/>
			<path opacity="0.9655" stroke="#000000" stroke-width="1.079" enable-background="new    " d="M314.702,1624.613
				c-0.402-0.021-0.787-0.119-1.197-0.119c-11.187,0-20.264,9.076-20.264,20.264c0,11.199,9.077,20.27,20.264,20.27
				c2.024,0,3.938-0.379,5.778-0.932c0.018-0.965,0.114-1.896,0.114-2.862C319.397,1648.425,317.709,1636.135,314.702,1624.613z"/>
		</g>
		<path fill="#5694F1" d="M176.028,1583.108c0,7.647-6.199,13.838-13.839,13.838c-7.634,0-13.829-6.19-13.829-13.838
			c0-7.634,6.195-13.831,13.829-13.831C169.829,1569.277,176.028,1575.475,176.028,1583.108z"/>
		<path fill="#5694F1" d="M314.27,1583.108c0,7.647-6.195,13.838-13.836,13.838c-7.634,0-13.832-6.19-13.832-13.838
			c0-7.634,6.198-13.831,13.832-13.831C308.074,1569.277,314.27,1575.475,314.27,1583.108z"/>
		<path fill="#5694F1" d="M130.669,1601.579c0,7.95-6.449,14.396-14.399,14.396c-7.943,0-14.389-6.445-14.389-14.396
			s6.445-14.395,14.389-14.395C124.22,1587.185,130.669,1593.629,130.669,1601.579z"/>
		<path fill="#5694F1" d="M356.569,1601.579c0,7.95-6.45,14.396-14.401,14.396c-7.945,0-14.388-6.445-14.388-14.396
			s6.442-14.395,14.388-14.395C350.119,1587.185,356.569,1593.629,356.569,1601.579z"/>
		<path opacity="0.9655" stroke="#000000" stroke-width="1.079" enable-background="new    " d="M249.154,1650.213
			c0,10.721-8.691,19.414-19.418,19.414c-10.722,0-19.412-8.693-19.412-19.414s8.69-19.413,19.412-19.413
			C240.463,1630.8,249.154,1639.492,249.154,1650.213z"/>
	</g>
</g>
<g>
	<g>
		<path opacity="0.9655" enable-background="new    " d="M805.275,1669.627c0-99.012-80.264-179.277-179.275-179.277
			c-99.011,0-179.275,80.266-179.275,179.277c0,77.811,49.577,144.033,118.862,168.829c7.58-5.116,16.716-8.103,26.548-8.103h23.17
			v-20.326c-41.611-10.727-72.938-57.618-72.938-113.848c0-0.416,0.046-0.813,0.046-1.227c2.008,0.76,4.154,1.227,6.428,1.227
			c10.094,0,18.272-8.182,18.272-18.266c0-10.092-8.179-18.271-18.272-18.271c-0.638,0-1.241,0.127-1.863,0.186
			c11.973-46.328,46.132-79.807,86.472-79.807c40.241,0,74.326,33.328,86.373,79.488c-0.402-0.021-0.787-0.119-1.197-0.119
			c-11.201,0-20.289,9.082-20.289,20.296c0,11.208,9.088,20.298,20.289,20.298c2.027,0,3.944-0.393,5.785-0.944
			c-1.029,53.763-30.646,98.489-70.221,110.261v21.053h20.457c7.378,0,14.363,1.682,20.594,4.682
			C759.871,1807.949,805.275,1744.093,805.275,1669.627z"/>
		<path opacity="0.9655" enable-background="new    " d="M654.189,1830.354v-21.053c39.574-11.771,69.191-56.498,70.221-110.261
			c-1.841,0.552-3.758,0.944-5.785,0.944c-11.201,0-20.289-9.09-20.289-20.298c0-11.214,9.088-20.296,20.289-20.296
			c0.41,0,0.795,0.098,1.197,0.119c-12.047-46.16-46.132-79.488-86.373-79.488c-40.34,0-74.499,33.479-86.472,79.807
			c0.622-0.059,1.226-0.186,1.863-0.186c10.094,0,18.272,8.18,18.272,18.271c0,10.084-8.179,18.266-18.272,18.266
			c-2.273,0-4.42-0.467-6.428-1.227c0,0.414-0.046,0.811-0.046,1.227c0,56.229,31.326,103.121,72.938,113.848v20.326h-23.17
			c-9.832,0-18.968,2.986-26.548,8.103c18.878,6.756,39.213,10.446,60.413,10.446c24.546,0,47.936-4.939,69.24-13.867
			c-6.23-3-13.216-4.682-20.594-4.682H654.189z"/>
		<path opacity="0.9655" fill="#5694F1" enable-background="new    " d="M654.189,1825.354v-16.053
			c39.574-11.771,69.191-56.498,70.221-110.261c-1.841,0.552-3.758,0.944-5.785,0.944c-11.201,0-20.289-9.09-20.289-20.298
			c0-11.214,9.088-20.296,20.289-20.296c0.41,0,0.795,0.098,1.197,0.119c-12.047-46.16-46.132-79.488-86.373-79.488
			c-40.34,0-74.499,33.479-86.472,79.807c0.622-0.059,1.226-0.186,1.863-0.186c10.094,0,18.272,8.18,18.272,18.271
			c0,10.084-8.179,18.266-18.272,18.266c-2.273,0-4.42-0.467-6.428-1.227c0,0.414-0.046,0.811-0.046,1.227
			c0,56.229,31.326,103.121,72.938,113.848v14.326l-23.17,5c-9.832,0-18.968,3.986-26.548,9.103
			c18.878,6.756,39.213,10.446,60.413,10.446c24.546,0,47.936-4.939,69.24-13.867c-6.23-3-13.216-5.682-20.594-5.682
			L654.189,1825.354z"/>
	</g>
	<g>
		<g>
			<path opacity="0.9655" fill="#5694F1" enable-background="new    " d="M530.577,1677.914c0,7.816,4.935,14.437,11.836,17.039
				c0.103-12.262,1.703-24.051,4.564-35.125C537.785,1660.775,530.577,1668.461,530.577,1677.914z"/>
			<path opacity="0.9655" stroke="#000000" stroke-width="1.079" enable-background="new    " d="M567.113,1677.914
				c0-10.092-8.179-18.271-18.272-18.271c-0.638,0-1.241,0.127-1.863,0.186c-2.861,11.074-4.462,22.863-4.564,35.125
				c2.008,0.76,4.154,1.227,6.428,1.227C558.935,1696.18,567.113,1687.998,567.113,1677.914z"/>
			<path opacity="0.9655" fill="#5694F1" enable-background="new    " d="M738.922,1679.687c0-10.799-8.461-19.548-19.1-20.177
				c3.011,11.543,4.703,23.838,4.703,36.67c0,0.967-0.097,1.904-0.115,2.86C732.78,1696.541,738.922,1688.867,738.922,1679.687z"/>
			<path opacity="0.9655" stroke="#000000" stroke-width="1.079" enable-background="new    " d="M719.822,1659.51
				c-0.402-0.021-0.787-0.119-1.197-0.119c-11.201,0-20.289,9.082-20.289,20.296c0,11.208,9.088,20.298,20.289,20.298
				c2.027,0,3.944-0.393,5.785-0.944c0.019-0.956,0.115-1.894,0.115-2.86C724.525,1683.348,722.833,1671.053,719.822,1659.51z"/>
		</g>
		<path opacity="0.9655" fill="#5694F1" enable-background="new    " d="M568.615,1576.4c0,7.65-6.205,13.855-13.855,13.855
			c-7.645,0-13.85-6.205-13.85-13.855s6.205-13.85,13.85-13.85C562.41,1562.551,568.615,1568.75,568.615,1576.4z"/>
		<path opacity="0.9655" fill="#5694F1" enable-background="new    " d="M641.853,1549.697c0,6.469-5.249,11.719-11.719,11.719
			c-6.471,0-11.721-5.25-11.721-11.719c0-6.471,5.25-11.715,11.721-11.715C636.604,1537.982,641.853,1543.227,641.853,1549.697z"/>
		<path opacity="0.9655" fill="#5694F1" enable-background="new    " d="M712.183,1576.4c0,7.65-6.204,13.855-13.854,13.855
			c-7.646,0-13.852-6.205-13.852-13.855s6.206-13.85,13.852-13.85C705.979,1562.551,712.183,1568.75,712.183,1576.4z"/>
		<path opacity="0.9655" fill="#5694F1" enable-background="new    " d="M535.546,1636.445c0,7.961-6.461,14.414-14.421,14.414
			c-7.954,0-14.408-6.453-14.408-14.414c0-7.962,6.454-14.414,14.408-14.414C529.085,1622.031,535.546,1628.483,535.546,1636.445z"
			/>
		<path opacity="0.9655" fill="#5694F1" enable-background="new    " d="M761.747,1636.445c0,7.961-6.461,14.414-14.42,14.414
			c-7.955,0-14.409-6.453-14.409-14.414c0-7.962,6.454-14.414,14.409-14.414C755.286,1622.031,761.747,1628.483,761.747,1636.445z"
			/>
		<path opacity="0.9655" stroke="#000000" stroke-width="1.079" enable-background="new    " d="M652.83,1704.917
			c0,10.735-8.704,19.439-19.444,19.439c-10.736,0-19.439-8.704-19.439-19.439c0-10.737,8.703-19.438,19.439-19.438
			C644.126,1685.479,652.83,1694.18,652.83,1704.917z"/>
	</g>
	<g>
		<g>
			<path fill="#5694F1" d="M519.733,1579.016c-0.36,0-0.727-0.066-1.08-0.207c-1.515-0.597-2.258-2.309-1.661-3.822
				c3.409-8.635,9.748-20,20.6-25.092c1.469-0.691,3.227-0.057,3.919,1.416c0.693,1.475,0.058,3.23-1.415,3.922
				c-9.098,4.27-14.605,14.275-17.62,21.918C522.019,1578.309,520.907,1579.016,519.733,1579.016z"/>
		</g>
		<g>
			<g>
				<path fill="#5694F1" d="M516.567,1586.262c3.317-4.205,8.261-9.152,12.653-11.791l-8.938,0.305l-7.063-5.484
					C515.234,1574.003,516.341,1580.91,516.567,1586.262z"/>
			</g>
		</g>
	</g>
	<g>
		<g>
			<path fill="#5694F1" d="M739.471,1714.749c-1.107,0-2.168-0.626-2.67-1.694c-0.69-1.474-0.058-3.229,1.415-3.921
				c9.097-4.272,14.604-14.276,17.621-21.915c0.596-1.514,2.309-2.256,3.823-1.657c1.514,0.598,2.257,2.31,1.659,3.823
				c-3.41,8.631-9.75,19.989-20.597,25.084C740.316,1714.659,739.891,1714.749,739.471,1714.749z"/>
		</g>
		<g>
			<g>
				<path fill="#5694F1" d="M761.747,1678.109c-3.32,4.203-8.264,9.152-12.658,11.789l8.938-0.303l7.063,5.483
					C763.077,1690.367,761.971,1683.461,761.747,1678.109z"/>
			</g>
		</g>
	</g>
</g>
<path id="path4401" inkscape:connector-curvature="0" fill="none" stroke="#E60000" stroke-width="19" d="M57.407,1149.833
	l294.547,182.853"/>
</svg>
