<?xml version="1.0" encoding="UTF-8" standalone="no"?>
<!-- Generator: Adobe Illustrator 15.1.0, SVG Export Plug-In . SVG Version: 6.00 Build 0)  -->

<svg
   xmlns:dc="http://purl.org/dc/elements/1.1/"
   xmlns:cc="http://creativecommons.org/ns#"
   xmlns:rdf="http://www.w3.org/1999/02/22-rdf-syntax-ns#"
   xmlns:svg="http://www.w3.org/2000/svg"
   xmlns="http://www.w3.org/2000/svg"
   xmlns:sodipodi="http://sodipodi.sourceforge.net/DTD/sodipodi-0.dtd"
   xmlns:inkscape="http://www.inkscape.org/namespaces/inkscape"
   version="1.1"
   id="svg2"
   inkscape:version="0.48.2 r9819"
   sodipodi:docname="OVC Icons.svg"
   x="0px"
   y="0px"
   width="1158.2737"
   height="2431.748"
   viewBox="0 -193.9 1158.2737 2431.7482"
   enable-background="new 0 -193.9 1177.253 2067.733"
   xml:space="preserve"><metadata
   id="metadata178"><rdf:RDF><cc:Work
       rdf:about=""><dc:format>image/svg+xml</dc:format><dc:type
         rdf:resource="http://purl.org/dc/dcmitype/StillImage" /></cc:Work></rdf:RDF></metadata><defs
   id="defs176">
	
		
	
	

	
		
	
	
	
	

	
		
	

	
		
	

	
		
	
	
	
	

		
	
		
	</defs>
<sodipodi:namedview
   id="base"
   inkscape:window-maximized="0"
   inkscape:window-y="0"
   inkscape:window-x="-2"
   inkscape:window-height="856"
   inkscape:window-width="1436"
   inkscape:current-layer="svg2"
   inkscape:document-units="px"
   inkscape:pageshadow="2"
   inkscape:pageopacity="0.0"
   showgrid="false"
   pagecolor="#ffffff"
   inkscape:cx="306.5264"
   inkscape:zoom="0.61197598"
   borderopacity="1.0"
   inkscape:cy="791.03826"
   bordercolor="#666666"
   fit-margin-top="0"
   fit-margin-left="0"
   fit-margin-right="0"
   fit-margin-bottom="0">
	</sodipodi:namedview>
<g
   id="g3361"
   transform="translate(-55.202638,400.09918)"><g
     id="g3222"
     transform="matrix(1.3421726,0,0,1.3413172,-117.32122,505.31276)">
	
		<path
   id="path3224"
   sodipodi:type="arc"
   sodipodi:cx="562.14288"
   sodipodi:cy="241.6479"
   sodipodi:rx="133.57143"
   sodipodi:ry="133.57143"
   enable-background="new    "
   d="m 695.71431,241.6479 c 0,73.76947 -59.80196,133.57143 -133.57143,133.57143 -73.76946,0 -133.57142,-59.80196 -133.57142,-133.57143 0,-73.76946 59.80196,-133.57142 133.57142,-133.57142 73.76947,0 133.57143,59.80196 133.57143,133.57142 z"
   style="opacity:0.9655;stroke:#000000;stroke-width:1.079" />
</g><path
     id="path3043"
     inkscape:connector-curvature="0"
     d="m 545.64806,709.91575 v 239.047 l 239.047,-121.584 -239.047,-117.463 z"
     style="fill:#5694f1" /></g>

<g
   id="g3091"
   transform="translate(-55.056539,400.10009)"><g
     transform="matrix(1.3421726,0,0,1.3413172,-519.32122,505.31276)"
     id="g3236">
	
		<path
   style="opacity:0.9655;stroke:#000000;stroke-width:1.079"
   d="m 695.71431,241.6479 c 0,73.76947 -59.80196,133.57143 -133.57143,133.57143 -73.76946,0 -133.57142,-59.80196 -133.57142,-133.57143 0,-73.76946 59.80196,-133.57142 133.57142,-133.57142 73.76947,0 133.57143,59.80196 133.57143,133.57142 z"
   enable-background="new    "
   sodipodi:ry="133.57143"
   sodipodi:rx="133.57143"
   sodipodi:cy="241.6479"
   sodipodi:cx="562.14288"
   sodipodi:type="arc"
   id="path3238" />
</g><rect
     style="fill:#e60000"
     height="201.92599"
     width="201.925"
     y="728.47626"
     x="134.20906"
     id="rect3821" /></g>


<g
   id="g3349"
   transform="translate(-27.960709,378.15142)"><g
     id="g3325"
     transform="matrix(1.3421726,0,0,1.3413172,-546.41705,-301.77149)">
	
		<path
   id="path3327"
   sodipodi:type="arc"
   sodipodi:cx="562.14288"
   sodipodi:cy="241.6479"
   sodipodi:rx="133.57143"
   sodipodi:ry="133.57143"
   enable-background="new    "
   d="m 695.71431,241.6479 c 0,73.76947 -59.80196,133.57143 -133.57143,133.57143 -73.76946,0 -133.57142,-59.80196 -133.57142,-133.57143 0,-73.76946 59.80196,-133.57142 133.57142,-133.57142 73.76947,0 133.57143,59.80196 133.57143,133.57142 z"
   style="opacity:0.9655;stroke:#000000;stroke-width:1.079" />
</g><g
     transform="translate(-13.392772,16.516499)"
     id="g15">
		<g
   id="g17">
			<path
   d="m 221.348,100.431 c -87.68,0 -158.55,-84.045 -161.524,-87.623 l -5.945,-7.152 5.962,-7.137 c 2.977,-3.563 73.909,-87.274 161.62,-87.274 87.751,0 158.653,83.594 161.628,87.153 l 5.969,7.139 -5.95,7.156 c -2.977,3.58 -73.918,87.687 -161.641,87.739 h -0.119 z M 83.486,5.693 c 18.587,19.554 74.688,72.417 137.862,72.417 h 0.102 C 284.829,78.072 340.881,25.166 359.451,5.587 340.842,-13.874 284.724,-66.434 221.544,-66.434 158.265,-66.434 102.109,-13.8 83.486,5.693 z"
   id="path19"
   inkscape:connector-curvature="0"
   style="fill:#5694f1" />
		</g>
		<g
   id="g21">
			<path
   d="m 221.453,61.192 c -30.523,0 -55.355,-24.835 -55.355,-55.362 0,-30.517 24.83,-55.357 55.35,-55.374 30.515,0 55.336,24.84 55.336,55.374 -10e-4,30.526 -24.822,55.362 -55.331,55.362 z m 0,-88.415 c -18.212,0.01 -33.034,14.837 -33.034,33.052 0,18.219 14.819,33.041 33.034,33.041 18.201,0 33.009,-14.822 33.009,-33.041 0,-18.225 -14.808,-33.052 -33.009,-33.052 z"
   id="path23"
   inkscape:connector-curvature="0"
   style="fill:#5694f1" />
		</g>
	</g></g>
<g
   id="g3340"
   transform="translate(-446.97822,-36.365024)"><g
     transform="matrix(1.3421726,0,0,1.3413172,-127.39954,-301.77149)"
     id="g3321">
	
		<path
   style="opacity:0.9655;stroke:#000000;stroke-width:1.079"
   d="m 695.71431,241.6479 c 0,73.76947 -59.80196,133.57143 -133.57143,133.57143 -73.76946,0 -133.57142,-59.80196 -133.57142,-133.57143 0,-73.76946 59.80196,-133.57142 133.57142,-133.57142 73.76947,0 133.57143,59.80196 133.57143,133.57142 z"
   enable-background="new    "
   sodipodi:ry="133.57143"
   sodipodi:rx="133.57143"
   sodipodi:cy="241.6479"
   sodipodi:cx="562.14288"
   sodipodi:type="arc"
   id="path3323" />
</g><g
     transform="translate(5.5632353,16.054999)"
     id="g3329"><g
       id="g28">
		<path
   style="fill:#5694f1"
   inkscape:connector-curvature="0"
   id="path30"
   d="m 621.531,3.745 c -13.076,0 -23.719,-10.631 -23.719,-23.708 0,-13.077 10.643,-23.719 23.719,-23.719 13.076,0 23.715,10.642 23.715,23.719 0,13.077 -10.639,23.708 -23.715,23.708 z m 0,-34.943 c -6.197,0 -11.234,5.039 -11.234,11.234 0,6.186 5.037,11.224 11.234,11.224 6.195,0 11.234,-5.039 11.234,-11.224 10e-4,-6.195 -5.038,-11.234 -11.234,-11.234 z" />
	</g><path
       style="fill:#5694f1"
       inkscape:connector-curvature="0"
       id="path34"
       d="m 553.594,90.273 c -7.459,4.375 -11.77,9.521 -11.77,15.023 0,15.876 35.684,41.335 79.705,41.335 44.021,0 79.705,-25.458 79.705,-41.335 0,-5.502 -4.311,-10.647 -11.77,-15.023 -18.994,14.134 -42.5,22.505 -67.936,22.505 -25.432,0 -48.946,-8.371 -67.934,-22.505 z" /><path
       style="fill:#5694f1"
       inkscape:connector-curvature="0"
       id="path36"
       d="m 621.529,-134.031 c -62.897,0 -114.068,51.165001 -114.068,114.068 0,37.457 18.159,70.753 46.131,91.566 18.99,14.121 42.503,22.492 67.938,22.492 25.435,0 48.94,-8.371 67.936,-22.492 27.973,-20.813 46.133,-54.109 46.133,-91.566 -0.001,-62.902999 -51.172,-114.068 -114.07,-114.068 z m 0,72.413 c 22.962,0 41.648,18.687 41.648,41.655 0,22.9559999 -18.687,41.644 -41.648,41.644 -22.97,0 -41.655,-18.6880001 -41.655,-41.644 0,-22.968 18.686,-41.655 41.655,-41.655 z" /></g></g>
<g
   id="g3297"
   transform="translate(-54.829099,376.8858)"><path
     transform="matrix(1.3421726,0,0,1.3413172,-519.54866,114.01063)"
     style="opacity:0.9655;stroke:#000000;stroke-width:1.079"
     d="m 695.71431,241.6479 c 0,73.76947 -59.80196,133.57143 -133.57143,133.57143 -73.76946,0 -133.57142,-59.80196 -133.57142,-133.57143 0,-73.76946 59.80196,-133.57142 133.57142,-133.57142 73.76947,0 133.57143,59.80196 133.57143,133.57142 z"
     enable-background="new    "
     sodipodi:ry="133.57143"
     sodipodi:rx="133.57143"
     sodipodi:cy="241.6479"
     sodipodi:cx="562.14288"
     sodipodi:type="arc"
     id="path3242" /><g
     transform="translate(10.992119,28.496135)"
     id="g3287"><g
       id="g54">
		<g
   id="g56">
			<path
   style="fill:#5694f1"
   inkscape:connector-curvature="0"
   id="path58"
   d="m 223.958,548.012 c -33.746,0 -58.548,-7.538 -75.829,-23.068 -29.865,-26.863 -29.521,-69.956 -29.107,-119.881 0.034,-5.856 0.098,-11.838 0.098,-17.906 h 39.286 c 0,6.154 -0.034,12.223 -0.086,18.176 -0.351,42.083 -0.66,78.413 17.7,94.913 9.513,8.549 25.192,12.711 47.938,12.711 22.741,0 38.414,-4.162 47.922,-12.711 18.354,-16.488 18.056,-52.83 17.705,-94.913 -0.052,-5.954 -0.098,-12.022 -0.098,-18.176 h 39.31 c 0,6.068 0.041,12.05 0.087,17.906 0.413,49.925 0.769,93.042 -29.108,119.881 -17.27,15.53 -42.083,23.068 -75.818,23.068 z" />
		</g>
	</g><g
       id="g60">
		<path
   style="fill:#5694f1"
   inkscape:connector-curvature="0"
   id="path62"
   d="m 228.683,374.681 c -4.26,0 -7.716,-3.457 -7.716,-7.716 0,-4.259 3.456,-7.716 7.716,-7.716 h 38.736 v -15.57 h -38.736 c -4.26,0 -7.716,-3.468 -7.716,-7.728 0,-4.26 3.456,-7.716 7.716,-7.716 h 38.736 v -18.05 c 0,-24.239 -19.204,-43.897 -42.898,-43.897 -23.693,0 -42.886,19.658 -42.886,43.897 v 137.007 c 0,24.228 19.192,43.896 42.886,43.896 23.694,0 42.898,-19.669 42.898,-43.896 v -39.683 h -38.736 c -4.26,0 -7.716,-3.456 -7.716,-7.716 0,-4.26 3.456,-7.716 7.716,-7.716 h 38.736 v -17.396 h -38.736 z" />
	</g><path
       style="fill:none;stroke:#e60000;stroke-width:19"
       d="M 79.359,310.086 373.906,492.939"
       inkscape:connector-curvature="0"
       id="path4401_1_" /><circle
       d="m 393.14999,409.64099 c 0,93.44548 -75.75252,169.198 -169.19799,169.198 -93.44548,0 -169.198002,-75.75252 -169.198002,-169.198 0,-93.44547 75.752522,-169.198 169.198002,-169.198 93.44547,0 169.19799,75.75253 169.19799,169.198 z"
       style="fill:none;stroke:#e60000;stroke-width:21.37949944"
       sodipodi:ry="169.198"
       sodipodi:rx="169.198"
       sodipodi:cy="409.64099"
       sodipodi:cx="223.952"
       id="circle65"
       r="169.198"
       cy="409.64099"
       cx="223.952" /></g></g><g
   id="g3308"
   transform="translate(-55.202638,385.58221)"><g
     transform="matrix(1.3421726,0,0,1.3413172,-117.32122,105.31276)"
     id="g3244">
	
		<path
   style="opacity:0.9655;stroke:#000000;stroke-width:1.079"
   d="m 695.71431,241.6479 c 0,73.76947 -59.80196,133.57143 -133.57143,133.57143 -73.76946,0 -133.57142,-59.80196 -133.57142,-133.57143 0,-73.76946 59.80196,-133.57142 133.57142,-133.57142 73.76947,0 133.57143,59.80196 133.57143,133.57142 z"
   enable-background="new    "
   sodipodi:ry="133.57143"
   sodipodi:rx="133.57143"
   sodipodi:cy="241.6479"
   sodipodi:cx="562.14288"
   sodipodi:type="arc"
   id="path3246" />
</g><g
     transform="translate(0.45149798,22.289249)"
     id="g3273"><g
       id="g41">
		<g
   id="g43">
			<path
   style="fill:#5694f1"
   inkscape:connector-curvature="0"
   id="path45"
   d="m 636.725,548.012 c -33.746,0 -58.548,-7.538 -75.829,-23.068 -29.865,-26.863 -29.521,-69.956 -29.107,-119.881 0.034,-5.856 0.098,-11.838 0.098,-17.906 h 39.286 c 0,6.154 -0.034,12.223 -0.086,18.176 -0.351,42.083 -0.66,78.413 17.7,94.913 9.513,8.549 25.192,12.711 47.938,12.711 22.741,0 38.414,-4.162 47.922,-12.711 18.354,-16.488 18.056,-52.83 17.705,-94.913 -0.052,-5.954 -0.098,-12.022 -0.098,-18.176 h 39.31 c 0,6.068 0.041,12.05 0.087,17.906 0.413,49.925 0.769,93.042 -29.108,119.881 -17.271,15.53 -42.083,23.068 -75.818,23.068 z" />
		</g>
	</g><g
       id="g47">
		<path
   style="fill:#5694f1"
   inkscape:connector-curvature="0"
   id="path49"
   d="m 641.449,374.681 c -4.26,0 -7.716,-3.457 -7.716,-7.716 0,-4.259 3.456,-7.716 7.716,-7.716 h 38.736 v -15.57 h -38.736 c -4.26,0 -7.716,-3.468 -7.716,-7.728 0,-4.26 3.456,-7.716 7.716,-7.716 h 38.736 v -18.05 c 0,-24.239 -19.204,-43.897 -42.898,-43.897 -23.693,0 -42.886,19.658 -42.886,43.897 v 137.007 c 0,24.228 19.192,43.896 42.886,43.896 23.694,0 42.898,-19.669 42.898,-43.896 v -39.683 h -38.736 c -4.26,0 -7.716,-3.456 -7.716,-7.716 0,-4.26 3.456,-7.716 7.716,-7.716 h 38.736 v -17.396 h -38.736 z" />
	</g></g></g>







<g
   id="g3226"
   transform="translate(-407.34042,379.54849)"><g
     transform="matrix(1.3421726,0,0,1.3413172,234.81657,941.48904)"
     id="g4429">
	
		<path
   style="opacity:0.9655;stroke:#000000;stroke-width:1.079"
   d="m 695.71431,241.6479 c 0,73.76947 -59.80196,133.57143 -133.57143,133.57143 -73.76946,0 -133.57142,-59.80196 -133.57142,-133.57143 0,-73.76946 59.80196,-133.57142 133.57142,-133.57142 73.76947,0 133.57143,59.80196 133.57143,133.57142 z"
   enable-background="new    "
   sodipodi:ry="133.57143"
   sodipodi:rx="133.57143"
   sodipodi:cy="241.6479"
   sodipodi:cx="562.14288"
   sodipodi:type="arc"
   id="path2996" />
</g><g
     transform="translate(2.6038453,10.925584)"
     id="g3194"><g
       id="g69">
	<path
   style="fill:none;stroke:#5694f1;stroke-width:18;stroke-linecap:round"
   inkscape:connector-curvature="0"
   d="m 1050.603,1304.436 c 15.891,0 32.772,-21.188 32.772,-47.323 0,-26.135 -16.882,-47.322 -32.772,-47.322"
   id="path71" />
</g><g
       id="g73">
	<path
   style="fill:none;stroke:#5694f1;stroke-width:18;stroke-linecap:round"
   inkscape:connector-curvature="0"
   d="m 1066.989,1340.388 c 30.418,0 61.071,-37.283 61.071,-83.275 0,-45.99 -30.655,-83.273 -61.071,-83.274"
   id="path75" />
</g><path
       style="fill:#5694f1"
       id="path4403_2_"
       inkscape:connector-curvature="0"
       sodipodi:nodetypes="ccssc"
       d="m 836.351,1287.716 c 0,-22.462 0,-51.808 0,-69.933 0,-18.125 164.042,-37.186 164.042,-94.723 0,-7.518 23,-6.131 23,26.151 0,29.069 0,173.325 0,209.661 0,44.375 -23,29.836 -23,25.25 0,-56.723 -164.042,-73.944 -164.042,-96.406 z" /></g></g>


<g
   id="g3201"
   transform="translate(367.14086,391.31616)"><g
     id="g3190"
     transform="matrix(1.3421726,0,0,1.3413172,-143.35973,929.72137)">
	
		<path
   id="path3192"
   sodipodi:type="arc"
   sodipodi:cx="562.14288"
   sodipodi:cy="241.6479"
   sodipodi:rx="133.57143"
   sodipodi:ry="133.57143"
   enable-background="new    "
   d="m 695.71431,241.6479 c 0,73.76947 -59.80196,133.57143 -133.57143,133.57143 -73.76946,0 -133.57142,-59.80196 -133.57142,-133.57143 0,-73.76946 59.80196,-133.57142 133.57142,-133.57142 73.76947,0 133.57143,59.80196 133.57143,133.57142 z"
   style="opacity:0.9655;stroke:#000000;stroke-width:1.079" />
</g><g
     transform="translate(0.17505306,4.4599142)"
     id="g3161"><path
       style="fill:#5694f1"
       id="path4403_1_"
       inkscape:connector-curvature="0"
       sodipodi:nodetypes="ccssc"
       d="m 462.457,1282.414 c 0,-22.462 0,-51.808 0,-69.933 0,-18.125 164.042,-37.186 164.042,-94.723 0,-7.518 23,-6.131 23,26.151 0,29.069 0,173.325 0,209.661 0,44.375 -23,29.836 -23,25.25 -10e-4,-56.722 -164.042,-73.944 -164.042,-96.406 z" /><line
       style="fill:none;stroke:#5694f1;stroke-width:24;stroke-linecap:round"
       x1="682.95398"
       y1="1254.6899"
       x2="747.45898"
       y2="1254.6899"
       id="line81" /><line
       style="fill:none;stroke:#5694f1;stroke-width:24;stroke-linecap:round"
       x1="682.95398"
       y1="1313.359"
       x2="720.44702"
       y2="1329.39"
       id="line83" /><line
       style="fill:none;stroke:#5694f1;stroke-width:24;stroke-linecap:round"
       x1="682.95398"
       y1="1202.813"
       x2="716.92102"
       y2="1173.838"
       id="line85" /></g></g>
<g
   id="g87"
   transform="translate(-49.110984,397.02626)">
	<g
   id="g89">
		<path
   enable-background="new    "
   d="m 408.501,1661.546 c 0,-99.012 -80.264,-179.276 -179.275,-179.276 -99.011,0 -179.275,80.265 -179.275,179.276 0,68.749 38.704,128.448 95.505,158.526 8.034,-14.798 23.709,-16.844 41.73,-16.844 l 23.139,-8 v -20.299 c -41.556,-10.713 -72.842,-57.546 -72.842,-113.696 0,-0.414 0.046,-0.811 0.046,-1.22 2.005,0.754 4.15,1.22 6.421,1.22 10.076,0 18.247,-8.17 18.247,-18.246 0,-10.073 -8.171,-18.241 -18.247,-18.241 -0.638,0 -1.243,0.121 -1.862,0.189 11.956,-46.275 46.069,-79.704 86.355,-79.704 40.19,0 74.227,33.278 86.26,79.382 -0.402,-0.021 -0.787,-0.119 -1.197,-0.119 -11.187,0 -20.264,9.076 -20.264,20.264 0,11.199 9.077,20.27 20.264,20.27 2.024,0 3.938,-0.379 5.778,-0.932 -1.029,53.692 -30.604,98.354 -70.129,110.109 v 21.023 l 20.431,8 c 18.301,0 34.172,2.366 42.09,17.541 57.521,-29.847 96.825,-89.941 96.825,-159.223 z"
   id="path91"
   inkscape:connector-curvature="0"
   style="opacity:0.9655" />
		<path
   d="m 269.585,1803.229 -20.431,-8 v -21.023 c 39.524,-11.756 69.1,-56.417 70.129,-110.109 -1.84,0.553 -3.754,0.932 -5.778,0.932 -11.187,0 -20.264,-9.07 -20.264,-20.27 0,-11.188 9.077,-20.264 20.264,-20.264 0.41,0 0.795,0.098 1.197,0.119 -12.033,-46.104 -46.069,-79.382 -86.26,-79.382 -40.286,0 -74.399,33.429 -86.355,79.704 0.619,-0.068 1.225,-0.189 1.862,-0.189 10.076,0 18.247,8.168 18.247,18.241 0,10.076 -8.171,18.246 -18.247,18.246 -2.271,0 -4.416,-0.466 -6.421,-1.22 0,0.409 -0.046,0.806 -0.046,1.22 0,56.15 31.286,102.983 72.842,113.696 v 20.299 l -23.139,8 c -18.021,0 -33.696,2.046 -41.73,16.844 25.003,13.24 53.508,20.749 83.771,20.749 29.73,0 57.766,-7.245 82.449,-20.052 -7.918,-15.175 -23.789,-17.541 -42.09,-17.541 z"
   id="path93"
   inkscape:connector-curvature="0"
   style="fill:#5694f1" />
	</g>
	<g
   id="g95">
		<g
   id="g97">
			<path
   d="m 125.709,1642.987 c 0,7.806 4.926,14.417 11.819,17.026 0.104,-12.25 1.701,-24.022 4.559,-35.078 -9.181,0.944 -16.378,8.618 -16.378,18.052 z"
   id="path99"
   inkscape:connector-curvature="0"
   style="fill:#5694f1" />
			<path
   enable-background="new    "
   d="m 162.196,1642.987 c 0,-10.073 -8.171,-18.241 -18.247,-18.241 -0.638,0 -1.243,0.121 -1.862,0.189 -2.857,11.056 -4.455,22.828 -4.559,35.078 2.005,0.754 4.15,1.22 6.421,1.22 10.076,0 18.247,-8.17 18.247,-18.246 z"
   id="path101"
   inkscape:connector-curvature="0"
   style="opacity:0.9655;stroke:#000000;stroke-width:1.079" />
			<path
   d="m 333.776,1644.758 c 0,-10.785 -8.451,-19.512 -19.074,-20.145 3.007,11.521 4.695,23.812 4.695,36.62 0,0.966 -0.097,1.897 -0.114,2.862 8.359,-2.505 14.493,-10.163 14.493,-19.337 z"
   id="path103"
   inkscape:connector-curvature="0"
   style="fill:#5694f1" />
			<path
   enable-background="new    "
   d="m 314.702,1624.613 c -0.402,-0.021 -0.787,-0.119 -1.197,-0.119 -11.187,0 -20.264,9.076 -20.264,20.264 0,11.199 9.077,20.27 20.264,20.27 2.024,0 3.938,-0.379 5.778,-0.932 0.018,-0.965 0.114,-1.896 0.114,-2.862 0,-12.809 -1.688,-25.099 -4.695,-36.621 z"
   id="path105"
   inkscape:connector-curvature="0"
   style="opacity:0.9655;stroke:#000000;stroke-width:1.079" />
		</g>
		<path
   d="m 176.028,1583.108 c 0,7.647 -6.199,13.838 -13.839,13.838 -7.634,0 -13.829,-6.19 -13.829,-13.838 0,-7.634 6.195,-13.831 13.829,-13.831 7.64,0 13.839,6.198 13.839,13.831 z"
   id="path107"
   inkscape:connector-curvature="0"
   style="fill:#5694f1" />
		<path
   d="m 314.27,1583.108 c 0,7.647 -6.195,13.838 -13.836,13.838 -7.634,0 -13.832,-6.19 -13.832,-13.838 0,-7.634 6.198,-13.831 13.832,-13.831 7.64,0 13.836,6.198 13.836,13.831 z"
   id="path109"
   inkscape:connector-curvature="0"
   style="fill:#5694f1" />
		<path
   d="m 130.669,1601.579 c 0,7.95 -6.449,14.396 -14.399,14.396 -7.943,0 -14.389,-6.445 -14.389,-14.396 0,-7.951 6.445,-14.395 14.389,-14.395 7.95,10e-4 14.399,6.445 14.399,14.395 z"
   id="path111"
   inkscape:connector-curvature="0"
   style="fill:#5694f1" />
		<path
   d="m 356.569,1601.579 c 0,7.95 -6.45,14.396 -14.401,14.396 -7.945,0 -14.388,-6.445 -14.388,-14.396 0,-7.951 6.442,-14.395 14.388,-14.395 7.951,10e-4 14.401,6.445 14.401,14.395 z"
   id="path113"
   inkscape:connector-curvature="0"
   style="fill:#5694f1" />
		<path
   enable-background="new    "
   d="m 249.154,1650.213 c 0,10.721 -8.691,19.414 -19.418,19.414 -10.722,0 -19.412,-8.693 -19.412,-19.414 0,-10.721 8.69,-19.413 19.412,-19.413 10.727,0 19.418,8.692 19.418,19.413 z"
   id="path115"
   inkscape:connector-curvature="0"
   style="opacity:0.9655;stroke:#000000;stroke-width:1.079" />
	</g>
</g>
<g
   id="g117"
   transform="translate(-44.031083,388.94626)">
	<g
   id="g119">
		<path
   enable-background="new    "
   d="m 805.275,1669.627 c 0,-99.012 -80.264,-179.277 -179.275,-179.277 -99.011,0 -179.275,80.266 -179.275,179.277 0,77.811 49.577,144.033 118.862,168.829 7.58,-5.116 16.716,-8.103 26.548,-8.103 h 23.17 v -20.326 c -41.611,-10.727 -72.938,-57.618 -72.938,-113.848 0,-0.416 0.046,-0.813 0.046,-1.227 2.008,0.76 4.154,1.227 6.428,1.227 10.094,0 18.272,-8.182 18.272,-18.266 0,-10.092 -8.179,-18.271 -18.272,-18.271 -0.638,0 -1.241,0.127 -1.863,0.186 11.973,-46.328 46.132,-79.807 86.472,-79.807 40.241,0 74.326,33.328 86.373,79.488 -0.402,-0.021 -0.787,-0.119 -1.197,-0.119 -11.201,0 -20.289,9.082 -20.289,20.296 0,11.208 9.088,20.298 20.289,20.298 2.027,0 3.944,-0.393 5.785,-0.944 -1.029,53.763 -30.646,98.489 -70.221,110.261 v 21.053 h 20.457 c 7.378,0 14.363,1.682 20.594,4.682 64.63,-27.087 110.034,-90.943 110.034,-165.409 z"
   id="path121"
   inkscape:connector-curvature="0"
   style="opacity:0.9655" />
		<path
   enable-background="new    "
   d="m 654.189,1830.354 v -21.053 c 39.574,-11.771 69.191,-56.498 70.221,-110.261 -1.841,0.552 -3.758,0.944 -5.785,0.944 -11.201,0 -20.289,-9.09 -20.289,-20.298 0,-11.214 9.088,-20.296 20.289,-20.296 0.41,0 0.795,0.098 1.197,0.119 -12.047,-46.16 -46.132,-79.488 -86.373,-79.488 -40.34,0 -74.499,33.479 -86.472,79.807 0.622,-0.059 1.226,-0.186 1.863,-0.186 10.094,0 18.272,8.18 18.272,18.271 0,10.084 -8.179,18.266 -18.272,18.266 -2.273,0 -4.42,-0.467 -6.428,-1.227 0,0.414 -0.046,0.811 -0.046,1.227 0,56.229 31.326,103.121 72.938,113.848 v 20.326 h -23.17 c -9.832,0 -18.968,2.986 -26.548,8.103 18.878,6.756 39.213,10.446 60.413,10.446 24.546,0 47.936,-4.939 69.24,-13.867 -6.23,-3 -13.216,-4.682 -20.594,-4.682 h -20.456 z"
   id="path123"
   inkscape:connector-curvature="0"
   style="opacity:0.9655" />
		<path
   enable-background="new    "
   d="m 654.189,1825.354 v -16.053 c 39.574,-11.771 69.191,-56.498 70.221,-110.261 -1.841,0.552 -3.758,0.944 -5.785,0.944 -11.201,0 -20.289,-9.09 -20.289,-20.298 0,-11.214 9.088,-20.296 20.289,-20.296 0.41,0 0.795,0.098 1.197,0.119 -12.047,-46.16 -46.132,-79.488 -86.373,-79.488 -40.34,0 -74.499,33.479 -86.472,79.807 0.622,-0.059 1.226,-0.186 1.863,-0.186 10.094,0 18.272,8.18 18.272,18.271 0,10.084 -8.179,18.266 -18.272,18.266 -2.273,0 -4.42,-0.467 -6.428,-1.227 0,0.414 -0.046,0.811 -0.046,1.227 0,56.229 31.326,103.121 72.938,113.848 v 14.326 l -23.17,5 c -9.832,0 -18.968,3.986 -26.548,9.103 18.878,6.756 39.213,10.446 60.413,10.446 24.546,0 47.936,-4.939 69.24,-13.867 -6.23,-3 -13.216,-5.682 -20.594,-5.682 l -20.456,-3.999 z"
   id="path125"
   inkscape:connector-curvature="0"
   style="opacity:0.9655;fill:#5694f1" />
	</g>
	<g
   id="g127">
		<g
   id="g129">
			<path
   enable-background="new    "
   d="m 530.577,1677.914 c 0,7.816 4.935,14.437 11.836,17.039 0.103,-12.262 1.703,-24.051 4.564,-35.125 -9.192,0.947 -16.4,8.633 -16.4,18.086 z"
   id="path131"
   inkscape:connector-curvature="0"
   style="opacity:0.9655;fill:#5694f1" />
			<path
   enable-background="new    "
   d="m 567.113,1677.914 c 0,-10.092 -8.179,-18.271 -18.272,-18.271 -0.638,0 -1.241,0.127 -1.863,0.186 -2.861,11.074 -4.462,22.863 -4.564,35.125 2.008,0.76 4.154,1.227 6.428,1.227 10.093,-10e-4 18.271,-8.183 18.271,-18.267 z"
   id="path133"
   inkscape:connector-curvature="0"
   style="opacity:0.9655;stroke:#000000;stroke-width:1.079" />
			<path
   enable-background="new    "
   d="m 738.922,1679.687 c 0,-10.799 -8.461,-19.548 -19.1,-20.177 3.011,11.543 4.703,23.838 4.703,36.67 0,0.967 -0.097,1.904 -0.115,2.86 8.37,-2.499 14.512,-10.173 14.512,-19.353 z"
   id="path135"
   inkscape:connector-curvature="0"
   style="opacity:0.9655;fill:#5694f1" />
			<path
   enable-background="new    "
   d="m 719.822,1659.51 c -0.402,-0.021 -0.787,-0.119 -1.197,-0.119 -11.201,0 -20.289,9.082 -20.289,20.296 0,11.208 9.088,20.298 20.289,20.298 2.027,0 3.944,-0.393 5.785,-0.944 0.019,-0.956 0.115,-1.894 0.115,-2.86 0,-12.833 -1.692,-25.128 -4.703,-36.671 z"
   id="path137"
   inkscape:connector-curvature="0"
   style="opacity:0.9655;stroke:#000000;stroke-width:1.079" />
		</g>
		<path
   enable-background="new    "
   d="m 568.615,1576.4 c 0,7.65 -6.205,13.855 -13.855,13.855 -7.645,0 -13.85,-6.205 -13.85,-13.855 0,-7.65 6.205,-13.85 13.85,-13.85 7.65,10e-4 13.855,6.2 13.855,13.85 z"
   id="path139"
   inkscape:connector-curvature="0"
   style="opacity:0.9655;fill:#5694f1" />
		<path
   enable-background="new    "
   d="m 641.853,1549.697 c 0,6.469 -5.249,11.719 -11.719,11.719 -6.471,0 -11.721,-5.25 -11.721,-11.719 0,-6.471 5.25,-11.715 11.721,-11.715 6.47,0 11.719,5.245 11.719,11.715 z"
   id="path141"
   inkscape:connector-curvature="0"
   style="opacity:0.9655;fill:#5694f1" />
		<path
   enable-background="new    "
   d="m 712.183,1576.4 c 0,7.65 -6.204,13.855 -13.854,13.855 -7.646,0 -13.852,-6.205 -13.852,-13.855 0,-7.65 6.206,-13.85 13.852,-13.85 7.65,10e-4 13.854,6.2 13.854,13.85 z"
   id="path143"
   inkscape:connector-curvature="0"
   style="opacity:0.9655;fill:#5694f1" />
		<path
   enable-background="new    "
   d="m 535.546,1636.445 c 0,7.961 -6.461,14.414 -14.421,14.414 -7.954,0 -14.408,-6.453 -14.408,-14.414 0,-7.962 6.454,-14.414 14.408,-14.414 7.96,0 14.421,6.452 14.421,14.414 z"
   id="path145"
   inkscape:connector-curvature="0"
   style="opacity:0.9655;fill:#5694f1" />
		<path
   enable-background="new    "
   d="m 761.747,1636.445 c 0,7.961 -6.461,14.414 -14.42,14.414 -7.955,0 -14.409,-6.453 -14.409,-14.414 0,-7.962 6.454,-14.414 14.409,-14.414 7.959,0 14.42,6.452 14.42,14.414 z"
   id="path147"
   inkscape:connector-curvature="0"
   style="opacity:0.9655;fill:#5694f1" />
		<path
   enable-background="new    "
   d="m 652.83,1704.917 c 0,10.735 -8.704,19.439 -19.444,19.439 -10.736,0 -19.439,-8.704 -19.439,-19.439 0,-10.737 8.703,-19.438 19.439,-19.438 10.74,0 19.444,8.701 19.444,19.438 z"
   id="path149"
   inkscape:connector-curvature="0"
   style="opacity:0.9655;stroke:#000000;stroke-width:1.079" />
	</g>
	<g
   id="g151">
		<g
   id="g153">
			<path
   d="m 519.733,1579.016 c -0.36,0 -0.727,-0.066 -1.08,-0.207 -1.515,-0.597 -2.258,-2.309 -1.661,-3.822 3.409,-8.635 9.748,-20 20.6,-25.092 1.469,-0.691 3.227,-0.057 3.919,1.416 0.693,1.475 0.058,3.23 -1.415,3.922 -9.098,4.27 -14.605,14.275 -17.62,21.918 -0.457,1.158 -1.569,1.865 -2.743,1.865 z"
   id="path155"
   inkscape:connector-curvature="0"
   style="fill:#5694f1" />
		</g>
		<g
   id="g157">
			<g
   id="g159">
				<path
   d="m 516.567,1586.262 c 3.317,-4.205 8.261,-9.152 12.653,-11.791 l -8.938,0.305 -7.063,-5.484 c 2.015,4.711 3.122,11.618 3.348,16.97 z"
   id="path161"
   inkscape:connector-curvature="0"
   style="fill:#5694f1" />
			</g>
		</g>
	</g>
	<g
   id="g163">
		<g
   id="g165">
			<path
   d="m 739.471,1714.749 c -1.107,0 -2.168,-0.626 -2.67,-1.694 -0.69,-1.474 -0.058,-3.229 1.415,-3.921 9.097,-4.272 14.604,-14.276 17.621,-21.915 0.596,-1.514 2.309,-2.256 3.823,-1.657 1.514,0.598 2.257,2.31 1.659,3.823 -3.41,8.631 -9.75,19.989 -20.597,25.084 -0.406,0.19 -0.831,0.28 -1.251,0.28 z"
   id="path167"
   inkscape:connector-curvature="0"
   style="fill:#5694f1" />
		</g>
		<g
   id="g169">
			<g
   id="g171">
				<path
   d="m 761.747,1678.109 c -3.32,4.203 -8.264,9.152 -12.658,11.789 l 8.938,-0.303 7.063,5.483 c -2.013,-4.711 -3.119,-11.617 -3.343,-16.969 z"
   id="path173"
   inkscape:connector-curvature="0"
   style="fill:#5694f1" />
			</g>
		</g>
	</g>
</g>
<g
   id="g3155"
   transform="translate(-21.657675,396.18109)"><path
     style="opacity:0.9655;stroke:#000000;stroke-width:1.079"
     transform="matrix(1.3421726,0,0,1.3421726,-552.83513,924.35698)"
     d="m 695.71431,241.6479 c 0,73.76947 -59.80196,133.57143 -133.57143,133.57143 -73.76946,0 -133.57142,-59.80196 -133.57142,-133.57143 0,-73.76946 59.80196,-133.57142 133.57142,-133.57142 73.76947,0 133.57143,59.80196 133.57143,133.57142 z"
     enable-background="new    "
     sodipodi:ry="133.57143"
     sodipodi:rx="133.57143"
     sodipodi:cy="241.6479"
     sodipodi:cx="562.14288"
     sodipodi:type="arc"
     id="path2996_3_" /><circle
     id="circle10"
     r="169.198"
     cy="1249.3879"
     cx="202"
     sodipodi:cx="202"
     sodipodi:cy="1249.3879"
     sodipodi:rx="169.198"
     sodipodi:ry="169.198"
     style="fill:none;stroke:#e60000;stroke-width:21.37949944"
     d="m 371.198,1249.3879 c 0,93.4455 -75.75253,169.198 -169.198,169.198 -93.44547,0 -169.197998,-75.7525 -169.197998,-169.198 0,-93.4454 75.752528,-169.198 169.197998,-169.198 93.44547,0 169.198,75.7526 169.198,169.198 z" /><path
     d="m 74.507,1282.414 c 0,-22.462 0,-51.808 0,-69.933 0,-18.125 164.042,-37.186 164.042,-94.723 0,-7.518 23,-6.131 23,26.151 0,29.069 0,173.325 0,209.661 0,44.375 -23,29.836 -23,25.25 0,-56.722 -164.042,-73.944 -164.042,-96.406 z"
     sodipodi:nodetypes="ccssc"
     inkscape:connector-curvature="0"
     id="path4403_3_"
     style="fill:#5694f1" /><path
     d="m 57.407,1149.833 294.547,182.853"
     inkscape:connector-curvature="0"
     id="path4401"
     style="fill:none;stroke:#e60000;stroke-width:19" /></g>
<g
   id="g3191"
   transform="translate(-209.21385,352.98626)"><g
     transform="translate(164.08953,-389.35351)"
     id="g3145"><g
       transform="matrix(1.3421726,0,0,1.3413172,-127.39954,-301.77149)"
       id="g3147">
	
		<path
   style="opacity:0.9655;stroke:#000000;stroke-width:1.079"
   d="m 695.71431,241.6479 c 0,73.76947 -59.80196,133.57143 -133.57143,133.57143 -73.76946,0 -133.57142,-59.80196 -133.57142,-133.57143 0,-73.76946 59.80196,-133.57142 133.57142,-133.57142 73.76947,0 133.57143,59.80196 133.57143,133.57142 z"
   enable-background="new    "
   sodipodi:ry="133.57143"
   sodipodi:rx="133.57143"
   sodipodi:cy="241.6479"
   sodipodi:cx="562.14288"
   sodipodi:type="arc"
   id="path3149" />
</g><g
       transform="translate(5.5632353,16.054999)"
       id="g3151"><g
         id="g3153">
		<path
   style="fill:#5694f1"
   inkscape:connector-curvature="0"
   id="path3155"
   d="m 621.531,3.745 c -13.076,0 -23.719,-10.631 -23.719,-23.708 0,-13.077 10.643,-23.719 23.719,-23.719 13.076,0 23.715,10.642 23.715,23.719 0,13.077 -10.639,23.708 -23.715,23.708 z m 0,-34.943 c -6.197,0 -11.234,5.039 -11.234,11.234 0,6.186 5.037,11.224 11.234,11.224 6.195,0 11.234,-5.039 11.234,-11.224 10e-4,-6.195 -5.038,-11.234 -11.234,-11.234 z" />
	</g><path
         style="fill:#5694f1"
         inkscape:connector-curvature="0"
         id="path3157"
         d="m 553.594,90.273 c -7.459,4.375 -11.77,9.521 -11.77,15.023 0,15.876 35.684,41.335 79.705,41.335 44.021,0 79.705,-25.458 79.705,-41.335 0,-5.502 -4.311,-10.647 -11.77,-15.023 -18.994,14.134 -42.5,22.505 -67.936,22.505 -25.432,0 -48.946,-8.371 -67.934,-22.505 z" /><path
         style="fill:#5694f1"
         inkscape:connector-curvature="0"
         id="path3159"
         d="m 621.529,-134.031 c -62.897,0 -114.068,51.165001 -114.068,114.068 0,37.457 18.159,70.753 46.131,91.566 18.99,14.121 42.503,22.492 67.938,22.492 25.435,0 48.94,-8.371 67.936,-22.492 27.973,-20.813 46.133,-54.109 46.133,-91.566 -0.001,-62.902999 -51.172,-114.068 -114.07,-114.068 z m 0,72.413 c 22.962,0 41.648,18.687 41.648,41.655 0,22.9559999 -18.687,41.644 -41.648,41.644 -22.97,0 -41.655,-18.6880001 -41.655,-41.644 0,-22.968 18.686,-41.655 41.655,-41.655 z" /></g></g><g
     transform="translate(-603.76133,-805.13564)"
     id="g3135"><path
       id="path3112"
       inkscape:connector-curvature="0"
       d="m 1250.3511,338.58213 294.547,182.85301"
       style="fill:none;stroke:#e60000;stroke-width:19" /><circle
       cx="223.952"
       cy="409.64099"
       r="169.198"
       id="circle3114"
       sodipodi:cx="223.952"
       sodipodi:cy="409.64099"
       sodipodi:rx="169.198"
       sodipodi:ry="169.198"
       style="fill:none;stroke:#e60000;stroke-width:21.37949944"
       d="m 393.14999,409.64099 c 0,93.44548 -75.75252,169.198 -169.19799,169.198 -93.44548,0 -169.198002,-75.75252 -169.198002,-169.198 0,-93.44547 75.752522,-169.198 169.198002,-169.198 93.44547,0 169.19799,75.75253 169.19799,169.198 z"
       transform="translate(1170.9921,28.496135)" /></g></g><g
   id="g3178"
   transform="translate(295.65698,817.99944)"><g
     transform="translate(78.236218,-439.84988)"
     id="g3162"><g
       id="g3164"
       transform="matrix(1.3421726,0,0,1.3413172,-546.41705,-301.77149)">
	
		<path
   id="path3166"
   sodipodi:type="arc"
   sodipodi:cx="562.14288"
   sodipodi:cy="241.6479"
   sodipodi:rx="133.57143"
   sodipodi:ry="133.57143"
   enable-background="new    "
   d="m 695.71431,241.6479 c 0,73.76947 -59.80196,133.57143 -133.57143,133.57143 -73.76946,0 -133.57142,-59.80196 -133.57142,-133.57143 0,-73.76946 59.80196,-133.57142 133.57142,-133.57142 73.76947,0 133.57143,59.80196 133.57143,133.57142 z"
   style="opacity:0.9655;stroke:#000000;stroke-width:1.079" />
</g><g
       transform="translate(-13.392772,16.516499)"
       id="g3168">
		<g
   id="g3170">
			<path
   d="m 221.348,100.431 c -87.68,0 -158.55,-84.045 -161.524,-87.623 l -5.945,-7.152 5.962,-7.137 c 2.977,-3.563 73.909,-87.274 161.62,-87.274 87.751,0 158.653,83.594 161.628,87.153 l 5.969,7.139 -5.95,7.156 c -2.977,3.58 -73.918,87.687 -161.641,87.739 h -0.119 z M 83.486,5.693 c 18.587,19.554 74.688,72.417 137.862,72.417 h 0.102 C 284.829,78.072 340.881,25.166 359.451,5.587 340.842,-13.874 284.724,-66.434 221.544,-66.434 158.265,-66.434 102.109,-13.8 83.486,5.693 z"
   id="path3172"
   inkscape:connector-curvature="0"
   style="fill:#5694f1" />
		</g>
		<g
   id="g3174">
			<path
   d="m 221.453,61.192 c -30.523,0 -55.355,-24.835 -55.355,-55.362 0,-30.517 24.83,-55.357 55.35,-55.374 30.515,0 55.336,24.84 55.336,55.374 -10e-4,30.526 -24.822,55.362 -55.331,55.362 z m 0,-88.415 c -18.212,0.01 -33.034,14.837 -33.034,33.052 0,18.219 14.819,33.041 33.034,33.041 18.201,0 33.009,-14.822 33.009,-33.041 0,-18.225 -14.808,-33.052 -33.009,-33.052 z"
   id="path3176"
   inkscape:connector-curvature="0"
   style="fill:#5694f1" />
		</g>
	</g></g><g
     id="g3139"
     transform="translate(-1108.6322,-855.63201)"><path
       style="fill:none;stroke:#e60000;stroke-width:19"
       d="m 1250.3511,338.58213 294.547,182.85301"
       inkscape:connector-curvature="0"
       id="path3141" /><circle
       transform="translate(1170.9921,28.496135)"
       d="m 393.14999,409.64099 c 0,93.44548 -75.75252,169.198 -169.19799,169.198 -93.44548,0 -169.198002,-75.75252 -169.198002,-169.198 0,-93.44547 75.752522,-169.198 169.198002,-169.198 93.44547,0 169.19799,75.75253 169.19799,169.198 z"
       style="fill:none;stroke:#e60000;stroke-width:21.37949944"
       sodipodi:ry="169.198"
       sodipodi:rx="169.198"
       sodipodi:cy="409.64099"
       sodipodi:cx="223.952"
       id="circle3143"
       r="169.198"
       cy="409.64099"
       cx="223.952" /></g></g></svg>