<?xml version="1.0" ?><!DOCTYPE svg  PUBLIC '-//W3C//DTD SVG 1.1//EN'  'http://www.w3.org/Graphics/SVG/1.1/DTD/svg11.dtd' [
	<!ENTITY stroke_color "#010101">
]><svg enable-background="new 0 0 55 55" height="55px" version="1.1" viewBox="0 0 55 55" width="55px" x="0px" xml:space="preserve" xmlns="http://www.w3.org/2000/svg" xmlns:xlink="http://www.w3.org/1999/xlink" y="0px"><g display="block" id="activity-video_x5F_chat">
	<path d="M9.263,48.396c0.682,1.152,6.027,0.059,8.246-1.463   c2.102-1.432,3.207-2.596,4.336-2.596c1.133,0,12.54,0.92,20.935-5.715c7.225-5.707,9.773-13.788,4.52-21.437   c-5.252-7.644-13.832-9.08-20.878-8.56C16.806,9.342,4.224,16.91,4.677,28.313c0.264,6.711,3.357,9.143,4.922,10.703   c1.562,1.566,4.545,1.566,2.992,5.588C11.981,46.183,8.753,47.522,9.263,48.396z" display="inline" fill="none" stroke="&stroke_color;" stroke-width="3.5"/>
	<g display="inline">
		<path d="M40.748,26.932c0,0-6.033,7.254-13.271,7.26    c-7.24,0.004-13.271-7.25-13.271-7.25s6.031-7.219,13.271-7.219C34.715,19.717,40.748,26.932,40.748,26.932z" fill="none" stroke="&stroke_color;" stroke-width="3.5"/>
		<path d="M24.191,26.955c0,1.814,1.47,3.285,3.285,3.285c1.81,0,3.281-1.471,3.281-3.285    c0-1.811-1.472-3.285-3.281-3.285C25.661,23.67,24.191,25.145,24.191,26.955z" fill="&stroke_color;"/>
	</g>
</g></svg>

