<?xml version="1.0" encoding="UTF-8" standalone="no"?>
<!-- Created with Inkscape (http://www.inkscape.org/) -->
<svg
   xmlns:dc="http://purl.org/dc/elements/1.1/"
   xmlns:cc="http://web.resource.org/cc/"
   xmlns:rdf="http://www.w3.org/1999/02/22-rdf-syntax-ns#"
   xmlns:svg="http://www.w3.org/2000/svg"
   xmlns="http://www.w3.org/2000/svg"
   xmlns:sodipodi="http://inkscape.sourceforge.net/DTD/sodipodi-0.dtd"
   xmlns:inkscape="http://www.inkscape.org/namespaces/inkscape"
   width="744.09448819"
   height="1052.3622047"
   id="svg1341"
   sodipodi:version="0.32"
   inkscape:version="0.43"
   sodipodi:docbase="/home/johns/graphics/logos/gplv3"
   sodipodi:docname="web-logo-full-red.svg">
  <defs
     id="defs1343" />
  <sodipodi:namedview
     id="base"
     pagecolor="#ffffff"
     bordercolor="#666666"
     borderopacity="1.0"
     inkscape:pageopacity="0.0"
     inkscape:pageshadow="2"
     inkscape:zoom="1.4191746"
     inkscape:cx="-388.72694"
     inkscape:cy="1898.6186"
     inkscape:document-units="px"
     inkscape:current-layer="layer1"
     inkscape:window-width="1150"
     inkscape:window-height="862"
     inkscape:window-x="0"
     inkscape:window-y="0" />
  <metadata
     id="metadata1346">
    <rdf:RDF>
      <cc:Work
         rdf:about="">
        <dc:format>image/svg+xml</dc:format>
        <dc:type
           rdf:resource="http://purl.org/dc/dcmitype/StillImage" />
      </cc:Work>
    </rdf:RDF>
  </metadata>
  <g
     inkscape:label="Layer 1"
     inkscape:groupmode="layer"
     id="layer1">
    <g
       id="g2683">
      <g
         id="g68"
         style="fill:#000000;fill-opacity:0.94117647;fill-rule:evenodd;stroke:none;stroke-width:1pt;stroke-linecap:butt;stroke-linejoin:miter"
         transform="matrix(1.705222,0,0,1.705222,186.5352,267.2327)">
        <path
           style="fill:#000000;fill-opacity:0.94117647"
           id="path70"
           d="M 3.86,0 C 3.86,0 3.85,0 3.85,0 C 2.91,0 2.08,0.31 1.3,0.94 C 0.72,1.4 0.32,2.02 0,2.71 C 0,2.71 0.04,2.71 0.04,2.71 C 0.36,2.02 0.76,1.4 1.33,0.94 C 2.11,0.31 2.94,0.01 3.86,0 z " />
      </g>
      <path
         style="fill:#000000;fill-opacity:0.94117647;fill-rule:evenodd;stroke:none;stroke-width:1pt;stroke-linecap:butt;stroke-linejoin:miter"
         d="M -73.39349,61.788161 C -73.39347,61.788151 -132.70322,320.55554 -132.70322,320.55554 C -132.68617,320.55554 -132.68403,320.55554 -132.64993,320.55554 C -132.64993,320.55554 141.73088,320.55554 141.73088,320.55554 C 141.73089,320.55554 284.43661,320.55554 284.43661,320.55554 C 267.43554,319.07201 254.01334,313.10372 246.01585,302.22442 C 244.53232,300.21223 243.30667,298.04449 242.23238,295.77654 C 241.55031,294.10544 240.9087,292.41939 240.26071,290.71417 C 238.55547,285.29156 237.87554,279.27426 238.18247,272.86263 C 239.03509,254.99189 247.42052,233.73461 261.94901,211.47465 C 277.38126,187.81809 299.74738,163.02376 327.44017,140.01521 C 333.64716,134.86202 340.0652,129.77322 346.78378,124.82807 C 355.08819,118.71828 363.45659,113.09146 371.82923,107.82914 C 402.67668,88.408371 433.4474,74.819041 460.7139,67.916301 C 434.65813,76.416831 405.38585,90.847701 376.46529,110.49356 C 375.42513,111.19611 374.39771,111.91571 373.37457,112.62508 C 357.32844,123.74313 342.79143,135.55094 330.10459,147.47554 C 289.28156,185.86011 267.70413,225.63438 277.50915,248.93623 C 278.20831,250.53913 279.04171,252.06958 280.0137,253.51902 C 290.55195,269.01949 316.66957,271.69881 349.76792,263.37733 C 352.01881,262.81458 354.2697,262.17729 356.5888,261.51225 C 367.16118,258.45988 378.3858,254.33752 389.9472,249.25597 C 392.72669,248.0282 395.53607,246.76634 398.36673,245.41921 C 398.65661,245.2828 398.92946,245.14638 399.21934,244.99291 C 435.71107,226.86129 463.75559,205.99833 469.82618,193.46324 C 471.15626,190.73662 471.47598,188.41194 470.57221,186.58907 C 466.24097,177.80719 435.93276,183.74007 399.21934,199.64467 C 396.26931,200.92357 393.28517,202.23959 390.26693,203.64128 C 392.72245,201.36142 395.27816,199.073 397.88713,196.82039 C 402.04788,193.23601 406.35569,189.73094 410.94273,186.26935 C 418.12173,180.83308 425.37958,175.91864 432.52446,171.56181 C 465.98089,146.32114 482.89456,122.44459 479.36476,113.58428 C 478.69971,111.91485 477.28439,110.76639 475.1017,110.06725 C 468.12732,107.84878 455.39787,110.49654 439.93151,116.83485 C 427.17647,122.06649 412.52647,129.82565 397.67399,139.48233 C 397.67399,139.48233 395.64904,140.81453 395.64904,140.81453 C 395.64906,140.81453 395.27602,141.02767 395.27602,141.02767 C 395.27604,141.02769 388.13541,145.77032 388.13541,145.77032 C 388.13539,145.77031 392.2386,138.25669 392.2386,138.25669 C 398.32625,127.11305 408.2421,115.48602 420.5879,104.68515 C 429.64263,96.788261 439.98693,89.347531 451.12203,82.836991 C 455.33394,80.371261 459.53943,78.081131 463.75132,76.016111 C 468.06554,73.908451 472.38187,72.035261 476.59378,70.367561 C 488.8306,65.528211 500.51159,62.587751 510.6982,61.788161 C 509.77053,61.788151 482.08246,61.788161 482.08246,61.788161 C 482.08247,61.788151 385.63087,61.788161 385.63087,61.788161 C 385.63088,61.788151 -39.66208,61.788161 -39.66208,61.788161 C -39.66208,61.788151 -73.39349,61.788161 -73.39349,61.788161 z M 232.58722,62.161181 C 230.91613,87.666181 235.86125,125.02333 247.08161,166.49942 C 249.0767,173.87963 251.24873,181.39027 253.63605,188.98704 C 255.11961,193.67808 256.65004,198.29585 258.21883,202.84196 C 257.29803,204.19592 256.37079,205.54133 255.50113,206.89186 C 241.50128,228.34694 233.31833,248.6229 231.25502,266.25489 C 225.33788,246.44021 220.88301,224.73659 218.35928,201.72291 C 217.64309,195.12881 217.08249,188.60849 216.70734,182.16616 C 213.94487,135.36977 220.05383,92.948961 232.58722,62.161181 z M -46.80268,95.359721 C -46.48334,95.352181 -46.16854,95.359721 -45.8435,95.359721 C -45.8435,95.359701 17.19641,95.359721 17.19641,95.359721 C 22.58492,95.359701 26.75205,96.369631 29.71913,98.397141 C 32.66915,100.4366 33.77544,103.07457 33.07628,106.28379 C 33.0763,106.28381 25.56265,140.22835 25.56265,140.22835 C 25.56265,140.22838 3.3414899,140.22835 3.3414899,140.22835 C 3.3415099,140.22838 10.64197,107.18969 10.64197,107.18969 C 10.64195,107.18969 -44.99088,107.18969 -44.99088,107.18969 C -44.9909,107.18969 -65.08053,197.99274 -65.08053,197.99274 C -65.08051,197.99274 -72.32772,230.87155 -72.32772,230.87155 C -72.32772,230.87158 -16.74815,230.87155 -16.74815,230.87155 C -16.74815,230.87158 -16.69486,230.65839 -16.69486,230.65839 C -16.69486,230.65841 -5.5576401,180.35435 -5.5576401,180.35435 C -5.5576401,180.35433 -31.66884,180.35435 -31.66884,180.35435 C -31.66884,180.35433 -29.1643,169.00397 -29.1643,169.00397 C -29.16431,169.00395 19.16808,169.00397 19.16808,169.00397 C 19.16808,169.00395 5.3131499,231.77745 5.3131499,231.77745 C 5.1255799,232.67097 4.7973299,233.48053 4.3539599,234.28198 C 3.2114699,236.36235 1.2184899,238.14432 -1.5610201,239.61081 C -5.4148001,241.64004 -10.02745,242.64823 -15.41595,242.64823 C -15.41595,242.64825 -78.40257,242.64823 -78.40257,242.64823 C -83.79109,242.64825 -87.95821,241.64002 -90.92529,239.61081 C -93.8753,237.58161 -94.99864,234.99008 -94.28244,231.77745 C -94.28243,231.77743 -66.51931,106.28379 -66.51931,106.28379 C -65.80313,103.07458 -63.56926,100.43658 -59.69842,98.397141 C -59.562,98.323831 -59.40853,98.307191 -59.27212,98.237281 C -55.7391,96.467581 -51.59275,95.472851 -46.80268,95.359721 z M 51.9936,95.359721 C 51.99358,95.359701 131.33968,95.359721 131.33968,95.359721 C 136.65999,95.359701 140.84203,96.369631 143.80911,98.397141 C 146.79328,100.4366 147.93577,103.07457 147.21956,106.28379 C 147.21958,106.28381 132.40545,173.21374 132.40545,173.21374 C 131.70633,176.40248 129.41918,179.00424 125.53128,181.0471 C 121.64338,183.09676 117.06698,184.13781 111.72964,184.13781 C 111.72962,184.13781 54.07184,184.13781 54.07184,184.13781 C 54.07184,184.13781 42.93461,234.38856 42.93461,234.38856 C 42.93461,234.38858 41.12281,242.64823 41.12281,242.64823 C 41.12282,242.64825 19.38123,242.64823 19.38123,242.64823 C 19.38123,242.64825 21.03316,235.18789 21.03316,235.18789 C 21.03316,235.18791 51.9936,95.359721 51.9936,95.359721 z M 161.60737,95.359721 C 161.60736,95.359701 183.34895,95.359721 183.34895,95.359721 C 183.34897,95.359701 158.72981,206.57213 158.72981,206.57213 C 158.72983,206.57215 153.34771,230.87155 153.34771,230.87155 C 153.34771,230.87158 205.35697,230.87155 205.35697,230.87155 C 205.90265,234.86009 206.53996,238.77737 207.22205,242.64823 C 207.22203,242.64825 128.995,242.64823 128.995,242.64823 C 128.99502,242.64825 135.17643,214.72522 135.17643,214.72522 C 135.17645,214.72522 161.60737,95.359721 161.60737,95.359721 z M 71.12405,107.18969 C 71.12407,107.18969 56.68295,172.30783 56.68295,172.30783 C 56.68295,172.30781 110.87703,172.30783 110.87703,172.30783 C 110.87702,172.30781 125.26483,107.18969 125.26483,107.18969 C 125.26485,107.18969 71.12405,107.18969 71.12405,107.18969 z M 25.56265,252.87956 C 25.77532,252.87241 25.98789,252.87956 26.20212,252.87956 C 28.72585,252.87958 30.92984,253.32292 32.70327,254.15847 C 34.59607,255.04518 35.94959,256.36247 36.69989,258.1018 C 37.43314,259.78999 37.62497,261.70621 37.23276,263.80364 C 37.23276,263.80365 37.07291,264.60297 37.07291,264.60297 C 37.07292,264.60294 30.83819,264.60297 30.83819,264.60297 C 30.83817,264.60294 30.89148,263.85692 30.89148,263.85692 C 31.05266,262.39149 30.87099,261.23913 30.3053,260.44649 C 30.23158,260.34708 30.12477,260.21586 30.03886,260.12676 C 29.89818,259.98313 29.68688,259.81896 29.50599,259.70045 C 28.63361,259.15095 27.26896,258.84783 25.50937,258.84783 C 23.17322,258.84785 21.4275,259.25495 20.23385,260.07347 C 19.07429,260.87493 18.34105,261.77017 18.10232,262.84445 C 17.86357,263.93579 18.25578,264.50917 18.52863,264.81611 C 18.53713,264.8246 18.57156,264.85988 18.5819,264.8694 C 18.92742,265.16385 20.12726,265.85416 23.85743,266.73448 C 27.23375,267.55299 29.46975,268.28837 30.73161,268.9193 C 32.64148,269.89126 33.9758,271.151 34.67495,272.70276 C 35.37406,274.23748 35.52755,276.03433 35.10125,277.97829 C 34.67495,279.87108 33.70936,281.61681 32.27697,283.25383 C 30.86165,284.89083 29.0605,286.1868 26.89486,287.09056 C 24.74626,287.97728 22.38882,288.47605 19.9674,288.47605 C 16.898,288.47604 14.43397,288.01138 12.50706,287.09056 C 10.49489,286.13565 9.0433199,284.62866 8.1907199,282.66765 C 7.3722099,280.75779 7.1974199,278.59003 7.6578299,276.21979 C 7.6578299,276.21976 7.8176999,275.47374 7.8176999,275.47374 C 7.8176999,275.47374 13.94584,275.47374 13.94584,275.47374 C 13.94584,275.47374 13.89255,276.21979 13.89255,276.21979 C 13.73907,277.63511 13.89042,278.77761 14.26557,279.63022 C 14.62366,280.44875 15.30576,281.12655 16.39709,281.65518 C 17.55663,282.21788 19.00607,282.50778 20.66014,282.50778 C 22.14369,282.50777 23.49935,282.25839 24.71005,281.81505 C 25.9037,281.38875 26.85223,280.82601 27.53432,280.10982 C 28.19934,279.3936 28.58943,278.63694 28.75995,277.81842 C 28.93047,277.08518 28.88997,276.46492 28.60008,275.95334 C 28.27609,275.4077 27.6345,274.92381 26.62843,274.51456 C 26.62843,274.51455 21.40617,272.9692 21.40617,272.9692 C 18.49025,272.23597 16.52712,271.53682 15.38462,270.83768 C 13.83285,269.91687 12.71381,268.73599 12.13403,267.32066 C 11.55426,265.92235 11.49245,264.37275 11.8676,262.68458 C 12.2598,260.87705 13.13159,259.15691 14.47871,257.62221 C 15.84291,256.07044 17.60353,254.85336 19.70096,254.0519 C 21.55539,253.3565 23.50692,252.94869 25.56265,252.87956 z M 81.51525,252.98614 C 81.8525,252.95987 82.16961,252.98614 82.52772,252.98614 C 82.52773,252.98614 86.36447,253.41244 86.36447,253.41244 C 86.36446,253.41244 87.64338,253.51902 87.64338,253.51902 C 87.6434,253.51903 85.7783,258.26166 85.7783,258.26166 C 85.77829,258.26168 85.40528,259.0077 85.40528,259.0077 C 85.40528,259.00768 82.47444,258.74126 82.47444,258.74126 C 81.60903,258.74126 80.97331,258.87478 80.55606,259.16756 C 80.52835,259.18849 80.47506,259.25176 80.44948,259.27414 C 80.39358,259.32318 80.29957,259.40872 80.23633,259.4873 C 79.97974,259.82381 79.66721,260.42516 79.43701,261.51225 C 79.43699,261.51225 79.32617,261.97265 79.22386,262.36486 C 80.57099,262.36487 83.80663,262.36486 83.80663,262.36486 C 83.80663,262.36487 82.6343,267.64038 82.6343,267.64038 C 82.6343,267.64037 79.28354,267.64038 78.1581,267.64038 C 77.81704,269.17507 73.6286,287.94318 73.6286,287.94318 C 73.62858,287.94316 67.44717,287.94318 67.44717,287.94318 C 67.44715,287.94316 71.4651,269.90833 71.97667,267.64038 C 70.93646,267.64037 68.40636,267.64038 68.40636,267.64038 C 68.40636,267.64037 69.5787,262.36486 69.5787,262.36486 C 69.57871,262.36487 72.12374,262.36486 73.09571,262.36486 C 73.26623,261.63162 73.52201,260.71292 73.52201,260.71292 C 73.89717,259.0077 74.28936,257.78207 74.80092,256.92946 C 75.50009,255.75287 76.48698,254.76809 77.73179,254.0519 C 78.75706,253.45615 80.05377,253.09996 81.51525,252.98614 z M 96.27607,253.25258 C 96.27605,253.25257 94.66037,260.52322 94.25112,262.36486 C 95.44476,262.36487 98.24773,262.36486 98.24773,262.36486 C 98.24773,262.36487 97.0754,267.64038 97.0754,267.64038 C 97.07538,267.64037 94.13601,267.64038 93.07878,267.64038 C 92.75477,269.10685 90.20122,280.48284 90.20122,280.48284 C 90.20124,280.48282 89.98806,281.84915 89.98806,282.24135 C 89.98834,282.2544 89.987,282.28503 89.98806,282.29463 C 89.9889,282.29866 89.98686,282.3446 89.98806,282.34792 C 89.9897,282.35061 90.03921,282.34578 90.04134,282.34792 C 90.04134,282.3479 90.68081,282.40121 90.68081,282.40121 C 90.68081,282.40121 93.61166,282.18806 93.61166,282.18806 C 93.61166,282.18806 93.29193,286.9307 93.29193,286.9307 C 93.29195,286.9307 93.34523,287.78331 93.34523,287.78331 C 93.34521,287.78329 89.13545,288.26291 89.13545,288.26291 C 87.46435,288.26289 86.2387,287.99008 85.35199,287.41031 C 84.41414,286.79639 83.86845,285.98217 83.64677,284.95905 C 83.61266,284.77146 83.54019,284.49863 83.54019,284.10644 C 83.54019,283.33908 83.68514,282.04099 84.17965,279.7901 C 84.17967,279.79012 86.41988,269.75486 86.89735,267.64038 C 86.09592,267.64037 83.9665,267.64038 83.9665,267.64038 C 83.96652,267.64037 85.13883,262.36486 85.13883,262.36486 C 85.13881,262.36487 87.21707,262.36486 88.06969,262.36486 C 88.3425,261.13711 89.29531,256.92946 89.29531,256.92946 C 89.29531,256.92948 94.25112,254.31834 94.25112,254.31834 C 94.25111,254.31836 96.27607,253.25258 96.27607,253.25258 z M -100.09086,253.46573 C -100.09084,253.46573 -76.11118,253.46573 -76.11118,253.46573 C -76.11118,253.46573 -77.44338,259.43401 -77.44338,259.43401 C -77.44338,259.43403 -93.44049,259.43401 -94.97519,259.43401 C -95.24801,260.64474 -96.3415,265.54723 -96.7337,267.32066 C -94.5169,267.32066 -81.54657,267.32066 -81.54657,267.32066 C -81.54657,267.32066 -82.87878,273.28892 -82.87878,273.28892 C -82.87879,273.28892 -96.5312,273.28892 -98.06591,273.28892 C -98.3899,274.77247 -101.31649,287.94318 -101.31649,287.94318 C -101.31647,287.94316 -107.76435,287.94318 -107.76435,287.94318 C -107.76434,287.94316 -100.09086,253.46573 -100.09086,253.46573 z M -67.9581,261.88527 C -67.71743,261.85571 -67.45452,261.88527 -67.21206,261.88527 C -65.67736,261.88527 -64.25989,262.35207 -62.89571,263.32404 C -62.89571,263.32406 -62.04311,263.91021 -62.04311,263.91021 C -62.04311,263.91021 -65.34697,269.34561 -65.34697,269.34561 C -65.34697,269.34559 -66.25286,268.70615 -66.25286,268.70615 C -66.9179,268.27986 -67.63409,268.06669 -68.38439,268.06669 C -69.03238,268.06671 -69.6356,268.29689 -70.24948,268.70615 C -70.89745,269.13245 -71.43888,269.6973 -71.84812,270.46466 C -72.56432,271.7777 -73.08868,273.24843 -73.44677,274.83429 C -73.44677,274.8343 -76.32433,287.94318 -76.32433,287.94318 C -76.32433,287.94316 -82.50576,287.94318 -82.50576,287.94318 C -82.50576,287.94316 -76.80392,262.36486 -76.80392,262.36486 C -76.8039,262.36487 -71.0488,262.36486 -71.0488,262.36486 C -71.0488,262.36487 -71.24704,263.14074 -71.31525,263.43062 C -71.04241,263.22601 -70.75466,262.94463 -70.51592,262.79116 C -69.68995,262.29826 -68.81755,261.99081 -67.9581,261.88527 z M -49.62696,261.88527 C -49.25477,261.85712 -48.88837,261.88527 -48.5079,261.88527 C -45.02924,261.88527 -42.39682,263.10449 -40.67455,265.50886 C -39.60027,267.0606 -39.0226,268.97898 -39.0226,271.26398 C -39.0226,272.52583 -39.17821,273.88363 -39.50219,275.36717 C -39.50219,275.36717 -39.9818,277.23226 -39.9818,277.23226 C -39.9818,277.23224 -55.61441,277.23226 -57.35374,277.23226 C -57.38785,277.59034 -57.40703,277.97403 -57.40703,278.29802 C -57.40703,279.62811 -57.1342,280.67467 -56.55442,281.44203 C -56.27892,281.81716 -55.95952,282.15502 -55.59523,282.40121 C -54.90845,282.8491 -54.02189,283.09396 -52.98411,283.09396 C -51.72223,283.09394 -50.61386,282.74651 -49.57367,282.08148 C -48.58462,281.45055 -47.63823,280.44234 -46.80268,279.04406 C -46.80268,279.04403 -40.19495,279.04406 -40.19495,279.04406 C -40.19495,279.04403 -40.78111,280.32297 -40.78111,280.32297 C -42.04298,282.88082 -43.80362,284.87591 -46.00336,286.29125 C -48.20309,287.70658 -50.83127,288.47605 -53.73015,288.47605 C -57.49869,288.47604 -60.30378,287.25683 -62.04311,284.85247 C -63.76537,282.49924 -64.13626,279.24654 -63.21544,275.15401 C -62.29461,270.99328 -60.45724,267.6681 -57.78005,265.34899 C -55.38047,263.26837 -52.6576,262.11431 -49.62696,261.88527 z M -21.86381,261.88527 C -21.49163,261.85712 -21.12524,261.88527 -20.74477,261.88527 C -17.2661,261.88527 -14.63367,263.10449 -12.9114,265.50886 C -11.83711,267.0606 -11.25947,268.97898 -11.25947,271.26398 C -11.25947,272.50878 -11.41507,273.84739 -11.73907,275.31388 C -11.73907,275.3139 -12.21865,277.23226 -12.21865,277.23226 C -12.21865,277.23224 -27.85128,277.23226 -29.5906,277.23226 C -29.60767,277.47096 -29.62684,277.68628 -29.64389,277.92501 C -29.65668,278.01453 -29.63829,278.15042 -29.64389,278.24473 C -29.64439,278.26011 -29.64389,278.2831 -29.64389,278.29802 C -29.64389,278.55382 -29.60765,278.80532 -29.5906,279.04406 C -29.50537,280.01602 -29.25168,280.82815 -28.79128,281.44203 C -28.70361,281.56139 -28.6212,281.70873 -28.52484,281.81505 C -27.74383,282.65059 -26.63844,283.09396 -25.22097,283.09396 C -23.95909,283.09394 -22.83366,282.74651 -21.81052,282.08148 C -20.82148,281.45055 -19.8751,280.44234 -19.03954,279.04406 C -19.03954,279.04403 -12.37852,279.04406 -12.37852,279.04406 C -12.37853,279.04403 -13.01798,280.32297 -13.01798,280.32297 C -14.27984,282.88082 -16.04048,284.87591 -18.24022,286.29125 C -20.43996,287.70658 -23.06813,288.47605 -25.967,288.47605 C -29.73553,288.47604 -32.54063,287.25683 -34.27996,284.85247 C -35.40541,283.31775 -35.9319,281.36316 -35.9319,279.04406 C -35.9319,278.68594 -35.91272,278.30015 -35.87861,277.92501 C -35.81038,277.0383 -35.67398,276.14305 -35.4523,275.15401 C -34.53146,271.01033 -32.74739,267.6681 -30.0702,265.34899 C -27.67063,263.26837 -24.89445,262.11431 -21.86381,261.88527 z M 53.7521,261.88527 C 54.13294,261.85598 54.48322,261.88527 54.87115,261.88527 C 58.41802,261.88527 61.14425,263.08531 62.91767,265.45557 C 64.67407,267.8258 65.10036,271.02311 64.19658,275.04743 C 63.49745,278.18506 62.48711,280.71943 61.10588,282.56108 C 59.72462,284.40273 57.964,285.90757 55.88362,286.9307 C 53.82034,287.95384 51.63549,288.47605 49.43576,288.47605 C 45.82069,288.47604 43.12857,287.23977 41.38924,284.85247 C 40.26378,283.33483 39.68402,281.38021 39.68402,279.04406 C 39.68404,277.78219 39.82258,276.44146 40.16362,274.94087 C 41.18677,270.37086 43.27564,266.89009 46.34505,264.65625 C 48.59806,263.02991 51.08619,262.09019 53.7521,261.88527 z M 147.37943,261.88527 C 147.82903,261.85752 148.24536,261.88527 148.71163,261.88527 C 150.86022,261.88527 152.54838,262.10267 153.8273,262.63129 C 155.19148,263.17698 156.15919,263.94858 156.70486,264.8694 C 157.2335,265.73903 157.50419,266.80696 157.50419,268.11997 C 157.5042,268.11999 156.86471,272.01001 156.86471,272.01001 C 156.86474,272.01001 155.69239,277.28555 155.69239,277.28555 C 154.68628,281.78731 154.46463,283.4755 154.41346,284.10644 C 154.36231,284.95906 154.44117,285.79034 154.67991,286.55769 C 154.67993,286.55767 155.10621,287.94318 155.10621,287.94318 C 155.10623,287.94316 148.81821,287.94318 148.81821,287.94318 C 148.81819,287.94316 148.55176,287.14385 148.55176,287.14385 C 148.44945,286.76873 148.47929,286.29125 148.44519,285.86494 C 147.25154,286.59819 146.05575,287.2483 144.98146,287.62345 C 143.39562,288.16914 141.75007,288.47605 140.07895,288.47605 C 137.18009,288.47604 135.03363,287.72151 133.73765,286.23795 C 132.74863,285.14662 132.29888,283.81228 132.29888,282.29463 C 132.29886,281.71486 132.37561,281.11376 132.51202,280.48284 C 132.8019,279.18687 133.3284,277.98681 134.16396,276.91252 C 134.98247,275.85526 135.95019,274.98563 137.04152,274.3547 C 138.09878,273.72378 139.2775,273.27615 140.50526,272.9692 C 140.50524,272.9692 144.28872,272.32974 144.28872,272.32974 C 147.20466,271.98868 149.38093,271.56453 150.94974,271.10412 C 150.98386,270.9336 151.05631,270.7311 151.05631,270.7311 C 151.30357,269.63392 151.27263,268.80922 151.00302,268.38642 C 150.98318,268.35915 150.91884,268.30328 150.89645,268.27984 C 150.83889,268.21849 150.75042,268.12205 150.68329,268.06669 C 150.04194,267.55916 148.94823,267.32066 147.48601,267.32066 C 145.83194,267.32066 144.60845,267.59137 143.75583,268.11997 C 142.92028,268.6486 142.14652,269.61631 141.46444,270.99753 C 141.46443,270.99752 135.01657,270.99753 135.01657,270.99753 C 135.01659,270.99752 135.60274,269.71862 135.60274,269.71862 C 136.37007,267.94517 137.28452,266.47444 138.42702,265.34899 C 139.56952,264.22352 141.11274,263.35175 142.90322,262.73788 C 144.27538,262.28491 145.77372,261.98434 147.37943,261.88527 z M 174.39654,261.88527 C 174.637,261.85571 174.9001,261.88527 175.14257,261.88527 C 176.6943,261.88527 178.14802,262.35207 179.5122,263.32404 C 179.51222,263.32406 180.31152,263.91021 180.31152,263.91021 C 180.31153,263.91021 177.00766,269.34561 177.00766,269.34561 C 177.00767,269.34559 176.10176,268.70615 176.10176,268.70615 C 175.43673,268.27986 174.75675,268.06669 174.02352,268.06669 C 173.37551,268.06671 172.73608,268.29689 172.10513,268.70615 C 171.45716,269.13245 170.98609,269.6973 170.55979,270.46466 C 169.86063,271.7777 169.31923,273.24843 168.96114,274.83429 C 168.96112,274.8343 166.03029,287.94318 166.03029,287.94318 C 166.03031,287.94316 159.84887,287.94318 159.84887,287.94318 C 159.84887,287.94316 165.55069,262.36486 165.55069,262.36486 C 165.55068,262.36487 171.30581,262.36486 171.30581,262.36486 C 171.30581,262.36487 171.16087,263.14074 171.09267,263.43062 C 171.36549,263.22601 171.6362,262.94463 171.89199,262.79116 C 172.70462,262.29826 173.5377,261.99081 174.39654,261.88527 z M 192.67437,261.88527 C 193.04622,261.85712 193.41296,261.88527 193.79343,261.88527 C 197.27209,261.88527 199.92156,263.10449 201.6268,265.50886 C 202.71815,267.0606 203.27873,268.97898 203.27873,271.26398 C 203.27871,272.52583 203.06983,273.88363 202.74584,275.36717 C 202.74584,275.36717 202.31954,277.23226 202.31954,277.23226 C 202.31953,277.23224 186.66986,277.23226 184.9476,277.23226 C 184.91349,277.59034 184.84101,277.97403 184.84101,278.29802 C 184.84101,279.62811 185.1309,280.67467 185.69363,281.44203 C 185.78129,281.56139 185.91663,281.70873 186.01335,281.81505 C 186.06937,281.87472 186.16747,281.97278 186.22651,282.02819 C 186.98886,282.72121 188.02632,283.09396 189.31721,283.09396 C 190.5791,283.09394 191.68748,282.74651 192.72766,282.08148 C 193.71671,281.45055 194.64605,280.44234 195.49865,279.04406 C 195.49863,279.04403 202.15967,279.04406 202.15967,279.04406 C 202.15967,279.04403 201.52021,280.32297 201.52021,280.32297 C 200.25834,282.88082 198.48066,284.87591 196.29797,286.29125 C 194.0812,287.70658 191.48712,288.47605 188.57118,288.47605 C 184.80267,288.47604 182.05084,287.25683 180.31152,284.85247 C 178.58922,282.49924 178.18212,279.24654 179.08589,275.15401 C 180.0067,270.99328 181.7908,267.6681 184.468,265.34899 C 186.88275,263.26837 189.64652,262.11431 192.67437,261.88527 z M 99.36677,262.36486 C 99.36679,262.36487 105.70808,262.36486 105.70808,262.36486 C 105.7081,262.36487 106.49034,277.54347 106.50739,277.76513 C 106.76317,277.22157 106.96163,276.76426 106.987,276.69938 C 106.98701,276.69939 113.96774,262.36486 113.96774,262.36486 C 113.96776,262.36487 119.77615,262.36486 119.77615,262.36486 C 119.77614,262.36487 120.30903,277.36014 120.30903,277.4454 C 120.47958,277.13849 128.24897,262.36486 128.24897,262.36486 C 128.24895,262.36487 134.53698,262.36486 134.53698,262.36486 C 134.53697,262.36487 120.68205,287.94318 120.68205,287.94318 C 120.68207,287.94316 114.98022,287.94318 114.98022,287.94318 C 114.98022,287.94316 114.42816,274.07334 114.39405,273.28892 C 112.04082,278.11472 107.25342,287.94318 107.25342,287.94318 C 107.25342,287.94316 101.39174,287.94318 101.39174,287.94318 C 101.39174,287.94316 99.36677,262.36486 99.36677,262.36486 z M -49.52038,267.21408 C -50.98931,267.2761 -52.32333,267.80557 -53.57027,268.81272 C -54.55929,269.59713 -55.22648,270.67356 -55.7551,271.85015 C -55.7551,271.85017 -45.25733,271.85015 -45.25733,271.85015 C -45.24026,271.66259 -45.20404,271.43451 -45.20404,271.26398 C -45.20406,270.29203 -45.3767,269.53745 -45.68363,269.02588 C -46.43391,267.79811 -47.54658,267.21408 -49.20065,267.21408 C -49.29975,267.21408 -49.42245,267.20996 -49.52038,267.21408 z M -21.75725,267.21408 C -23.22617,267.2761 -24.5602,267.80557 -25.80715,268.81272 C -26.79619,269.59713 -27.44628,270.67356 -27.99195,271.85015 C -27.99195,271.85017 -17.49419,271.85015 -17.49419,271.85015 C -17.47715,271.66259 -17.4409,271.43451 -17.4409,271.26398 C -17.44091,270.29203 -17.5965,269.53745 -17.9205,269.02588 C -18.06944,268.77649 -18.27093,268.52849 -18.45338,268.33314 C -19.16537,267.59742 -20.14528,267.21408 -21.43751,267.21408 C -21.53662,267.21408 -21.65931,267.20996 -21.75725,267.21408 z M 192.99411,267.21408 C 191.48355,267.26061 190.07286,267.77202 188.78434,268.81272 C 187.81236,269.59713 187.14519,270.67356 186.59952,271.85015 C 186.59954,271.85017 197.04401,271.85015 197.04401,271.85015 C 197.06104,271.66259 197.0973,271.43451 197.0973,271.26398 C 197.09729,270.29203 196.9417,269.53745 196.6177,269.02588 C 195.88446,267.81516 194.75474,267.23114 193.10068,267.21408 C 193.05166,267.21461 193.04284,267.21258 192.99411,267.21408 z M 53.37909,267.32066 C 51.96946,267.48805 50.65873,268.13117 49.43576,269.23903 C 47.96928,270.56912 46.90564,272.658 46.29177,275.42046 C 46.03598,276.58001 45.91874,277.57117 45.91874,278.45788 C 45.91876,279.66858 46.15107,280.61925 46.61149,281.33544 C 46.73406,281.51928 46.89665,281.71355 47.0378,281.86833 C 47.79584,282.67321 48.85439,283.09396 50.1818,283.09396 C 51.90406,283.09394 53.42172,282.45237 54.87115,281.12229 C 56.33767,279.77515 57.38422,277.66495 58.01515,274.83429 C 58.59495,272.24234 58.51393,270.30693 57.69543,269.07917 C 56.91103,267.88551 55.76427,267.32066 54.17842,267.32066 C 53.90931,267.32066 53.64012,267.28965 53.37909,267.32066 z M 149.67082,276.64609 C 148.22141,277.03827 146.59715,277.36867 144.44858,277.65857 C 142.84569,277.89731 141.70317,278.14881 141.03813,278.4046 C 140.45837,278.64332 139.99155,278.97371 139.59935,279.41708 C 139.22419,279.84335 138.97269,280.291 138.85333,280.80257 C 138.81924,281.00721 138.80003,281.21821 138.80003,281.38874 C 138.80003,281.40258 138.79972,281.42832 138.80003,281.44203 C 138.80182,281.48261 138.79558,281.56273 138.80003,281.60188 C 138.81071,281.67925 138.8322,281.79628 138.85333,281.86833 C 138.86095,281.89206 138.89784,281.95172 138.9066,281.9749 C 138.92526,282.02074 138.93675,282.09101 138.95989,282.13477 C 138.98416,282.17803 139.03779,282.25326 139.06647,282.29463 C 139.11111,282.356 139.17197,282.45023 139.22634,282.50778 C 139.65265,282.98524 140.50312,283.20053 141.73088,283.20053 C 143.07803,283.20054 144.37398,282.94475 145.56763,282.34792 C 146.74425,281.76815 147.69276,280.90274 148.3919,279.89666 C 148.90349,279.18046 149.31273,278.07846 149.67082,276.64609 z "
         id="path74" />
      <g
         id="g80"
         style="fill:#000000;fill-opacity:0.94117647;fill-rule:evenodd;stroke:none;stroke-width:1pt;stroke-linecap:butt;stroke-linejoin:miter"
         transform="matrix(1.705222,0,0,1.705222,193.1173,267.2327)">
        <path
           style="fill:#000000;fill-opacity:0.94117647"
           id="path82"
           d="M 0.03,0 C 0.02,0 0.01,0 0,0 C 0.97,0.01 1.61,0.34 2.04,1.05 C 2.23,1.35 2.33,1.8 2.33,2.37 C 2.33,2.47 2.31,2.6 2.3,2.71 C 2.3,2.71 2.34,2.71 2.34,2.71 C 2.34,2.6 2.36,2.47 2.36,2.37 C 2.36,1.8 2.27,1.35 2.08,1.05 C 1.65,0.33 1,0 0.03,0 z " />
      </g>
      <g
         style="fill:#000000;fill-opacity:0.94117647"
         id="g4966"
         transform="matrix(1.705222,0,0,1.705222,-367.2403,-426.3703)">
        <g
           transform="translate(125.1273,453.3934)"
           style="fill:#000000;fill-opacity:0.94117647;fill-rule:evenodd;stroke:none;stroke-width:1pt;stroke-linecap:butt;stroke-linejoin:miter"
           id="g84">
          <path
             style="fill:#000000;fill-opacity:0.94117647"
             d="M 0,36 C 0,36 7.46,36 7.46,36 C 7.46,36 10.81,22 10.81,22 C 10.81,22 22.93,22 22.93,22 C 22.93,22 24.49,16 24.49,16 C 24.49,16 12.32,16 12.32,16 C 12.32,16 14.34,7 14.34,7 C 14.34,7 27.29,7 27.29,7 C 27.29,7 28.85,0 28.85,0 C 28.85,0 8.4,0 8.4,0 C 8.4,0 0,36 0,36 z "
             id="path86" />
        </g>
        <g
           transform="translate(151.0773,463.3934)"
           style="fill:#000000;fill-opacity:0.94117647;fill-rule:evenodd;stroke:none;stroke-width:1pt;stroke-linecap:butt;stroke-linejoin:miter"
           id="g88">
          <path
             style="fill:#000000;fill-opacity:0.94117647"
             d="M 7.51,26 C 7.51,26 9.75,16.6 9.75,16.6 C 10.93,11.51 13.42,7 18.13,7 C 18.55,7 18.96,7.21 19.27,7.26 C 19.27,7.26 21.09,0.05 21.09,0.05 C 20.67,0.05 20.21,0 19.69,0 C 16.22,0 13.31,2.44 11.37,5.94 C 11.37,5.94 11.17,5.94 11.17,5.94 C 11.46,4.23 11.71,2.61 11.9,1 C 11.9,1 5.47,1 5.47,1 C 5.1,3.08 4.53,7.15 3.66,10.82 C 3.66,10.82 0,26 0,26 C 0,26 7.51,26 7.51,26 z "
             id="path90" />
        </g>
        <g
           transform="translate(171.7073,463.3934)"
           style="fill:#000000;fill-opacity:0.94117647;fill-rule:evenodd;stroke:none;stroke-width:1pt;stroke-linecap:butt;stroke-linejoin:miter"
           id="g92">
          <path
             style="fill:#000000;fill-opacity:0.94117647"
             d="M 20.06,19.25 C 17.99,20.26 15.63,20 12.88,20 C 10.71,20 9.03,19.62 8.11,18.88 C 7.63,18.07 7.43,16.81 7.47,16 C 17.6,16.27 23.99,13.93 24.31,7.53 C 24.55,2.7 21.02,0 15.89,0 C 6.73,0 0.73,8.08 0.34,15.86 C 0,22.65 3.52,26 10.78,26 C 13.57,26 17.27,25.68 20.3,24.77 C 20.3,24.77 20.06,19.25 20.06,19.25 z M 17.32,7.53 C 17.2,9.91 14.26,10.05 8.47,10 C 9.1,7.91 11.22,6 14.69,6 C 16.4,6 17.38,6.65 17.32,7.53 z "
             id="path94" />
        </g>
        <g
           transform="translate(198.2273,463.3934)"
           style="fill:#000000;fill-opacity:0.94117647;fill-rule:evenodd;stroke:none;stroke-width:1pt;stroke-linecap:butt;stroke-linejoin:miter"
           id="g96">
          <path
             style="fill:#000000;fill-opacity:0.94117647"
             d="M 20.05,19.25 C 17.98,20.26 15.62,20 12.88,20 C 10.7,20 9.03,19.62 8.11,18.88 C 7.63,18.07 7.42,16.81 7.46,16 C 17.6,16.27 23.98,13.93 24.31,7.53 C 24.55,2.7 21.02,0 15.89,0 C 6.72,0 0.72,8.08 0.33,15.86 C 0,22.65 3.52,26 10.77,26 C 13.57,26 17.27,25.68 20.3,24.77 C 20.3,24.77 20.05,19.25 20.05,19.25 z M 17.32,7.53 C 17.2,9.91 14.26,10.05 8.46,10 C 9.1,7.91 11.21,6 14.68,6 C 16.39,6 17.38,6.65 17.32,7.53 z "
             id="path98" />
        </g>
        <g
           transform="translate(234.1373,463.3934)"
           style="fill:#000000;fill-opacity:0.94117647;fill-rule:evenodd;stroke:none;stroke-width:1pt;stroke-linecap:butt;stroke-linejoin:miter"
           id="g100">
          <path
             style="fill:#000000;fill-opacity:0.94117647"
             d="M 22.74,26 C 22.8,22.83 23.56,17.85 24.35,14.58 C 24.35,14.58 27.56,1 27.56,1 C 25.52,0.31 22.34,0 19.28,0 C 6.86,0 0.7,9.2 0.27,17.82 C 0,23.23 2.93,26 7.49,26 C 10.44,26 13.77,24.57 16.36,20.27 C 16.36,20.27 16.47,20.27 16.47,20.27 C 16.27,22.34 16.03,24.35 15.9,26 C 15.9,26 22.74,26 22.74,26 z M 17.61,11.72 C 16.15,18.08 13.17,20 10.95,20 C 8.88,20 7.98,18.53 8.1,16.39 C 8.34,11.56 12.16,6 16.98,6 C 17.76,6 18.37,5.86 18.94,5.72 C 18.94,5.72 17.61,11.72 17.61,11.72 z "
             id="path102" />
        </g>
        <g
           transform="translate(261.7673,463.3934)"
           style="fill:#000000;fill-opacity:0.94117647;fill-rule:evenodd;stroke:none;stroke-width:1pt;stroke-linecap:butt;stroke-linejoin:miter"
           id="g104">
          <path
             style="fill:#000000;fill-opacity:0.94117647"
             d="M 0,24.82 C 1.44,25.94 4.46,25.95 7.61,26 C 14.34,26.05 19.42,23.11 19.72,17.71 C 19.89,14.11 17.1,11.98 14.37,10.55 C 12.4,9.6 11.41,8.69 11.46,7.63 C 11.53,6.2 12.87,6 14.84,6 C 17.06,6 18.84,6.27 19.86,6.47 C 19.86,6.47 21.88,1.05 21.88,1.05 C 20.73,0.36 18.43,0 15.48,0 C 8.95,0 4.17,3.45 3.9,8.69 C 3.74,11.93 6.07,14.11 8.89,15.59 C 11.17,16.76 11.95,17.66 11.89,18.93 C 11.82,20.21 10.68,20 8.61,20 C 6.18,20 3.49,19.68 2.07,19.46 C 2.07,19.46 0,24.82 0,24.82 z "
             id="path106" />
        </g>
        <g
           transform="translate(294.2173,452.3934)"
           style="fill:#000000;fill-opacity:0.94117647;fill-rule:evenodd;stroke:none;stroke-width:1pt;stroke-linecap:butt;stroke-linejoin:miter"
           id="g108">
          <path
             style="fill:#000000;fill-opacity:0.94117647"
             d="M 7.45,37 C 7.45,37 13.5,12 13.5,12 C 13.5,12 6.09,12 6.09,12 C 6.09,12 0,37 0,37 C 0,37 7.45,37 7.45,37 z M 10.92,9 C 13.46,9 15.72,6.9 15.86,3.3 C 15.98,0.86 14.4,0 12.07,0 C 9.64,0 7.42,1.58 7.29,3.94 C 7.17,6.32 8.75,9 10.92,9 z "
             id="path110" />
        </g>
        <g
           transform="translate(308.5073,464.0834)"
           style="fill:#000000;fill-opacity:0.94117647;fill-rule:evenodd;stroke:none;stroke-width:1pt;stroke-linecap:butt;stroke-linejoin:miter"
           id="g112">
          <path
             style="fill:#000000;fill-opacity:0.94117647"
             d="M 7.46,25.31 C 7.46,25.31 10.1,14.05 10.1,14.05 C 11.47,8.32 14.42,6.31 16.85,6.31 C 18.77,6.31 19.33,7.13 19.24,8.32 C 19.19,9.28 19.04,10.29 18.84,11.19 C 18.84,11.19 15.48,25.31 15.48,25.31 C 15.48,25.31 22.94,25.31 22.94,25.31 C 22.94,25.31 26.48,10.5 26.48,10.5 C 26.75,9.22 27.05,7.31 27.11,6.15 C 27.33,1.64 25.08,0 20.94,0 C 17.62,0 14.39,1.54 11.84,4.88 C 11.84,4.88 11.74,4.88 11.74,4.88 C 11.74,4.88 12.42,0.31 12.42,0.31 C 12.42,0.31 5.84,0.31 5.84,0.31 C 5.41,2.45 4.86,5.04 4.08,8.06 C 4.08,8.06 0,25.31 0,25.31 C 0,25.31 7.46,25.31 7.46,25.31 z "
             id="path114" />
        </g>
        <g
           transform="translate(348.0673,453.3934)"
           style="fill:#000000;fill-opacity:0.94117647;fill-rule:evenodd;stroke:none;stroke-width:1pt;stroke-linecap:butt;stroke-linejoin:miter"
           id="g116">
          <path
             style="fill:#000000;fill-opacity:0.94117647"
             d="M 0,36 C 0,36 7.46,36 7.46,36 C 7.46,36 10.82,22 10.82,22 C 10.82,22 22.93,22 22.93,22 C 22.93,22 24.49,16 24.49,16 C 24.49,16 12.32,16 12.32,16 C 12.32,16 14.34,7 14.34,7 C 14.34,7 27.29,7 27.29,7 C 27.29,7 28.85,0 28.85,0 C 28.85,0 8.4,0 8.4,0 C 8.4,0 0,36 0,36 z "
             id="path118" />
        </g>
        <g
           transform="translate(374.0173,463.3934)"
           style="fill:#000000;fill-opacity:0.94117647;fill-rule:evenodd;stroke:none;stroke-width:1pt;stroke-linecap:butt;stroke-linejoin:miter"
           id="g120">
          <path
             style="fill:#000000;fill-opacity:0.94117647"
             d="M 7.51,26 C 7.51,26 9.75,16.6 9.75,16.6 C 10.93,11.51 13.42,7 18.13,7 C 18.55,7 18.96,7.21 19.27,7.26 C 19.27,7.26 21.09,0.05 21.09,0.05 C 20.67,0.05 20.21,0 19.69,0 C 16.22,0 13.31,2.44 11.37,5.94 C 11.37,5.94 11.17,5.94 11.17,5.94 C 11.46,4.23 11.71,2.61 11.9,1 C 11.9,1 5.47,1 5.47,1 C 5.11,3.08 4.53,7.15 3.66,10.82 C 3.66,10.82 0,26 0,26 C 0,26 7.51,26 7.51,26 z "
             id="path122" />
        </g>
        <g
           transform="translate(394.6473,463.3934)"
           style="fill:#000000;fill-opacity:0.94117647;fill-rule:evenodd;stroke:none;stroke-width:1pt;stroke-linecap:butt;stroke-linejoin:miter"
           id="g124">
          <path
             style="fill:#000000;fill-opacity:0.94117647"
             d="M 20.06,19.25 C 17.99,20.26 15.63,20 12.88,20 C 10.71,20 9.03,19.62 8.11,18.88 C 7.63,18.07 7.43,16.81 7.47,16 C 17.6,16.27 23.99,13.93 24.31,7.53 C 24.55,2.7 21.02,0 15.89,0 C 6.73,0 0.73,8.08 0.34,15.86 C 0,22.65 3.53,26 10.78,26 C 13.57,26 17.28,25.68 20.3,24.77 C 20.3,24.77 20.06,19.25 20.06,19.25 z M 17.32,7.53 C 17.2,9.91 14.26,10.05 8.47,10 C 9.1,7.91 11.22,6 14.69,6 C 16.4,6 17.38,6.65 17.32,7.53 z "
             id="path126" />
        </g>
        <g
           transform="translate(421.1673,463.3934)"
           style="fill:#000000;fill-opacity:0.94117647;fill-rule:evenodd;stroke:none;stroke-width:1pt;stroke-linecap:butt;stroke-linejoin:miter"
           id="g128">
          <path
             style="fill:#000000;fill-opacity:0.94117647"
             d="M 20.05,19.25 C 17.98,20.26 15.62,20 12.88,20 C 10.7,20 9.03,19.62 8.11,18.88 C 7.63,18.07 7.42,16.81 7.46,16 C 17.6,16.27 23.98,13.93 24.31,7.53 C 24.55,2.7 21.02,0 15.89,0 C 6.72,0 0.72,8.08 0.33,15.86 C 0,22.65 3.52,26 10.77,26 C 13.57,26 17.27,25.68 20.3,24.77 C 20.3,24.77 20.05,19.25 20.05,19.25 z M 17.32,7.53 C 17.2,9.91 14.26,10.05 8.46,10 C 9.1,7.91 11.21,6 14.68,6 C 16.39,6 17.38,6.65 17.32,7.53 z "
             id="path130" />
        </g>
        <g
           transform="translate(447.5473,452.3934)"
           style="fill:#000000;fill-opacity:0.94117647;fill-rule:evenodd;stroke:none;stroke-width:1pt;stroke-linecap:butt;stroke-linejoin:miter"
           id="g132">
          <path
             style="fill:#000000;fill-opacity:0.94117647"
             d="M 23.31,0 C 23.31,0 20.5,11.36 20.5,11.36 C 19.48,10.94 18.15,11 17.11,11 C 7.53,11 0.75,19.2 0.3,28.08 C 0,34.34 3.34,37 7.64,37 C 10.65,37 13.82,35.67 16.22,32.23 C 16.22,32.23 16.32,32.23 16.32,32.23 C 16.32,32.23 15.75,37 15.75,37 C 15.75,37 22.53,37 22.53,37 C 22.84,34 23.49,30.43 24.22,27.17 C 24.22,27.17 30.71,0 30.71,0 C 30.71,0 23.31,0 23.31,0 z M 17.47,24.42 C 16.3,29.35 13.54,31 11.36,31 C 9.19,31 7.98,29.49 8.13,26.8 C 8.38,21.82 11.8,17 16.25,17 C 17.5,17 18.57,17.19 19.16,17.47 C 19.16,17.47 17.47,24.42 17.47,24.42 z "
             id="path134" />
        </g>
        <g
           transform="translate(477.2573,463.3934)"
           style="fill:#000000;fill-opacity:0.94117647;fill-rule:evenodd;stroke:none;stroke-width:1pt;stroke-linecap:butt;stroke-linejoin:miter"
           id="g136">
          <path
             style="fill:#000000;fill-opacity:0.94117647"
             d="M 10.61,26 C 19.31,26 26.02,19.41 26.49,10.44 C 26.78,4.5 23.08,0 16.25,0 C 7.23,0 0.76,7.3 0.31,16.12 C 0,22.54 4.14,26 10.61,26 z M 11.78,20 C 9.24,20 7.84,18.38 7.99,15.96 C 8.19,11.93 10.68,6 14.97,6 C 17.93,6 18.84,8.27 18.72,10.5 C 18.5,14.9 15.82,20 11.78,20 z "
             id="path138" />
        </g>
        <g
           transform="translate(505.8173,463.3934)"
           style="fill:#000000;fill-opacity:0.94117647;fill-rule:evenodd;stroke:none;stroke-width:1pt;stroke-linecap:butt;stroke-linejoin:miter"
           id="g140">
          <path
             style="fill:#000000;fill-opacity:0.94117647"
             d="M 7.2,26 C 7.2,26 9.9,14.58 9.9,14.58 C 11.03,9.49 13.85,6 16.38,6 C 18.2,6 18.7,7.33 18.61,9.07 C 18.56,9.97 18.36,10.98 18.15,11.98 C 18.15,11.98 14.81,26 14.81,26 C 14.81,26 22.01,26 22.01,26 C 22.01,26 24.71,14.53 24.71,14.53 C 25.95,9.28 28.61,6 31.09,6 C 32.8,6 33.51,7.22 33.43,8.96 C 33.38,9.97 33.17,11.08 32.91,12.09 C 32.91,12.09 29.67,26 29.67,26 C 29.67,26 36.92,26 36.92,26 C 36.92,26 40.41,11.19 40.41,11.19 C 40.68,9.86 40.99,7.79 41.04,6.73 C 41.26,2.33 39.11,0 35.23,0 C 31.91,0 28.68,1.5 26.23,4.66 C 26.14,2.38 24.51,0 20.47,0 C 17.2,0 14.08,1.48 11.58,4.83 C 11.58,4.83 11.48,4.83 11.48,4.83 C 11.48,4.83 12.15,1 12.15,1 C 12.15,1 5.73,1 5.73,1 C 5.31,3.14 4.8,5.73 4.02,8.75 C 4.02,8.75 0,26 0,26 C 0,26 7.2,26 7.2,26 z "
             id="path142" />
        </g>
      </g>
      <path
         style="fill:#000000;fill-opacity:0.94117647;fill-rule:evenodd;stroke:#ffffff;stroke-width:8.52610779;stroke-linecap:butt;stroke-linejoin:miter;stroke-miterlimit:4;stroke-opacity:1"
         id="path2592"
         d="M 236.64449,293.74116 C 237.3367,295.52078 238.02894,297.29749 238.74999,299.03526 C 239.86045,301.39603 241.14395,303.65586 242.68703,305.76571 C 251.0226,317.09657 264.98249,323.30066 282.70634,324.84518 C 282.70634,324.84518 301.7714,324.84518 301.7714,324.84518 C 307.79951,324.37504 314.11607,323.49822 320.66338,322.21759 C 331.95531,320.00969 343.92505,316.61779 356.35626,312.08515 C 365.77341,308.6514 375.45016,304.58891 385.27111,299.86737 C 406.65799,289.61522 428.75152,276.39228 450.42686,260.43502 C 457.56543,255.1842 464.41558,249.79639 470.99173,244.31772 C 477.01986,239.30196 482.80283,234.2083 488.32619,229.05845 C 503.74264,214.20156 515.38069,199.11248 521.97126,185.86355 C 528.83578,172.06665 530.20587,160.26997 524.58154,152.83862 C 521.13481,148.27716 515.36627,145.83273 507.93926,145.25732 C 541.39679,120.15261 560.89454,89.698991 553.90022,70.498381 C 551.67926,64.370741 546.79041,59.799181 539.78164,57.271101 C 536.66667,56.150581 533.16221,55.441041 529.34054,55.118001 C 529.34054,55.118001 519.04371,55.118001 519.04371,55.118001 C 504.66563,56.154881 483.75707,61.303321 466.01881,69.996521"
         sodipodi:nodetypes="cccccssccccscccsccc" />
      <path
         d="M -422.69444,-808.5288 C -422.69444,-808.5288 -422.7115,-808.5288 -422.7115,-808.5288 C -424.3144,-808.5288 -425.72974,-808.00018 -427.05981,-806.92589 C -428.04884,-806.14149 -428.73093,-805.08425 -429.2766,-803.90765 C -429.2766,-803.90765 -429.20839,-803.90765 -429.20839,-803.90765 C -428.66272,-805.08425 -427.98063,-806.14149 -427.00865,-806.92589 C -425.67858,-808.00018 -424.26325,-808.51175 -422.69444,-808.5288 z "
         id="path2577"
         style="fill:#bd0000;fill-opacity:1;fill-rule:evenodd;stroke:none;stroke-width:1pt;stroke-linecap:butt;stroke-linejoin:miter" />
      <path
         style="fill:#bd0000;fill-opacity:1;fill-rule:evenodd;stroke:none;stroke-width:1pt;stroke-linecap:butt;stroke-linejoin:miter"
         d="M -689.20532,-1013.9734 C -689.2053,-1013.9734 -748.51505,-755.20598 -748.51505,-755.20598 C -748.498,-755.20598 -748.49586,-755.20598 -748.46176,-755.20598 C -748.46176,-755.20598 -474.08095,-755.20598 -474.08095,-755.20598 C -474.08094,-755.20598 -331.37522,-755.20598 -331.37522,-755.20598 C -348.37629,-756.68951 -361.79849,-762.6578 -369.79598,-773.5371 C -371.27951,-775.54929 -372.50516,-777.71703 -373.57945,-779.98498 C -374.26152,-781.65608 -374.90313,-783.34213 -375.55112,-785.04735 C -377.25636,-790.46996 -377.93629,-796.48726 -377.62936,-802.89889 C -376.77674,-820.76963 -368.39131,-842.02691 -353.86282,-864.28687 C -338.43057,-887.94343 -316.06445,-912.73776 -288.37166,-935.74631 C -282.16467,-940.8995 -275.74663,-945.9883 -269.02805,-950.93345 C -260.72364,-957.04324 -252.35524,-962.67006 -243.9826,-967.93238 C -213.13515,-987.35315 -182.36443,-1000.9425 -155.09793,-1007.8452 C -181.1537,-999.34469 -210.42598,-984.91382 -239.34654,-965.26796 C -240.3867,-964.56541 -241.41412,-963.84581 -242.43726,-963.13644 C -258.48339,-952.01839 -273.0204,-940.21058 -285.70724,-928.28598 C -326.53027,-889.90141 -348.1077,-850.12714 -338.30268,-826.82529 C -337.60352,-825.22239 -336.77012,-823.69194 -335.79813,-822.2425 C -325.25988,-806.74203 -299.14226,-804.06271 -266.04391,-812.38419 C -263.79302,-812.94694 -261.54213,-813.58423 -259.22303,-814.24927 C -248.65065,-817.30164 -237.42603,-821.424 -225.86463,-826.50555 C -223.08514,-827.73332 -220.27576,-828.99518 -217.4451,-830.34231 C -217.15522,-830.47872 -216.88237,-830.61514 -216.59249,-830.76861 C -180.10076,-848.90023 -152.05624,-869.76319 -145.98565,-882.29828 C -144.65557,-885.0249 -144.33585,-887.34958 -145.23962,-889.17245 C -149.57086,-897.95433 -179.87907,-892.02145 -216.59249,-876.11685 C -219.54252,-874.83795 -222.52666,-873.52193 -225.5449,-872.12024 C -223.08938,-874.4001 -220.53367,-876.68852 -217.9247,-878.94113 C -213.76395,-882.52551 -209.45614,-886.03058 -204.8691,-889.49217 C -197.6901,-894.92844 -190.43225,-899.84288 -183.28737,-904.19971 C -149.83094,-929.44038 -132.91727,-953.31693 -136.44707,-962.17724 C -137.11212,-963.84667 -138.52744,-964.99513 -140.71013,-965.69427 C -147.68451,-967.91274 -160.41396,-965.26498 -175.88032,-958.92667 C -188.63536,-953.69503 -203.28536,-945.93587 -218.13784,-936.27919 C -218.13784,-936.27919 -220.16279,-934.94699 -220.16279,-934.94699 C -220.16277,-934.94699 -220.53581,-934.73385 -220.53581,-934.73385 C -220.53579,-934.73383 -227.67642,-929.9912 -227.67642,-929.9912 C -227.67644,-929.99121 -223.57323,-937.50483 -223.57323,-937.50483 C -217.48558,-948.64847 -207.56973,-960.2755 -195.22393,-971.07637 C -186.1692,-978.97326 -175.8249,-986.41399 -164.6898,-992.92453 C -160.47789,-995.39026 -156.2724,-997.68039 -152.06051,-999.74541 C -147.74629,-1001.8531 -143.42996,-1003.7263 -139.21805,-1005.394 C -126.98123,-1010.2333 -115.30024,-1013.1738 -105.11363,-1013.9734 C -106.0413,-1013.9734 -133.72937,-1013.9734 -133.72937,-1013.9734 C -133.72936,-1013.9734 -230.18096,-1013.9734 -230.18096,-1013.9734 C -230.18095,-1013.9734 -655.47391,-1013.9734 -655.47391,-1013.9734 C -655.47391,-1013.9734 -689.20532,-1013.9734 -689.20532,-1013.9734 z M -383.22461,-1013.6003 C -384.8957,-988.09534 -379.95058,-950.73819 -368.73022,-909.2621 C -366.73513,-901.88189 -364.5631,-894.37125 -362.17578,-886.77448 C -360.69222,-882.08344 -359.16179,-877.46567 -357.593,-872.91956 C -358.5138,-871.5656 -359.44104,-870.22019 -360.3107,-868.86966 C -374.31055,-847.41458 -382.4935,-827.13862 -384.55681,-809.50663 C -390.47395,-829.32131 -394.92882,-851.02493 -397.45255,-874.03861 C -398.16874,-880.63271 -398.72934,-887.15303 -399.10449,-893.59536 C -401.86696,-940.39175 -395.758,-982.81256 -383.22461,-1013.6003 z M -662.61451,-980.4018 C -662.29517,-980.40934 -661.98037,-980.4018 -661.65533,-980.4018 C -661.65533,-980.40182 -598.61542,-980.4018 -598.61542,-980.4018 C -593.22691,-980.40182 -589.05978,-979.39189 -586.0927,-977.36438 C -583.14268,-975.32492 -582.03639,-972.68695 -582.73555,-969.47773 C -582.73553,-969.47771 -590.24918,-935.53317 -590.24918,-935.53317 C -590.24918,-935.53314 -612.47034,-935.53317 -612.47034,-935.53317 C -612.47032,-935.53314 -605.16986,-968.57183 -605.16986,-968.57183 C -605.16988,-968.57183 -660.80271,-968.57183 -660.80271,-968.57183 C -660.80273,-968.57183 -680.89236,-877.76878 -680.89236,-877.76878 C -680.89234,-877.76878 -688.13955,-844.88997 -688.13955,-844.88997 C -688.13955,-844.88994 -632.55998,-844.88997 -632.55998,-844.88997 C -632.55998,-844.88994 -632.50669,-845.10313 -632.50669,-845.10313 C -632.50669,-845.10311 -621.36947,-895.40717 -621.36947,-895.40717 C -621.36947,-895.40719 -647.48067,-895.40717 -647.48067,-895.40717 C -647.48067,-895.40719 -644.97613,-906.75755 -644.97613,-906.75755 C -644.97614,-906.75757 -596.64375,-906.75755 -596.64375,-906.75755 C -596.64375,-906.75757 -610.49868,-843.98407 -610.49868,-843.98407 C -610.68625,-843.09055 -611.0145,-842.28099 -611.45787,-841.47954 C -612.60036,-839.39917 -614.59334,-837.6172 -617.37285,-836.15071 C -621.22663,-834.12148 -625.83928,-833.11329 -631.22778,-833.11329 C -631.22778,-833.11327 -694.2144,-833.11329 -694.2144,-833.11329 C -699.60292,-833.11327 -703.77004,-834.1215 -706.73712,-836.15071 C -709.68713,-838.17991 -710.81047,-840.77144 -710.09427,-843.98407 C -710.09426,-843.98409 -682.33114,-969.47773 -682.33114,-969.47773 C -681.61496,-972.68694 -679.38109,-975.32494 -675.51025,-977.36438 C -675.37383,-977.43769 -675.22036,-977.45433 -675.08395,-977.52424 C -671.55093,-979.29394 -667.40458,-980.28867 -662.61451,-980.4018 z M -563.81823,-980.4018 C -563.81825,-980.40182 -484.47215,-980.4018 -484.47215,-980.4018 C -479.15184,-980.40182 -474.9698,-979.39189 -472.00272,-977.36438 C -469.01855,-975.32492 -467.87606,-972.68695 -468.59227,-969.47773 C -468.59225,-969.47771 -483.40638,-902.54778 -483.40638,-902.54778 C -484.1055,-899.35904 -486.39265,-896.75728 -490.28055,-894.71442 C -494.16845,-892.66476 -498.74485,-891.62371 -504.08219,-891.62371 C -504.08221,-891.62371 -561.73999,-891.62371 -561.73999,-891.62371 C -561.73999,-891.62371 -572.87722,-841.37296 -572.87722,-841.37296 C -572.87722,-841.37294 -574.68902,-833.11329 -574.68902,-833.11329 C -574.68901,-833.11327 -596.4306,-833.11329 -596.4306,-833.11329 C -596.4306,-833.11327 -594.77867,-840.57363 -594.77867,-840.57363 C -594.77867,-840.57361 -563.81823,-980.4018 -563.81823,-980.4018 z M -454.20446,-980.4018 C -454.20447,-980.40182 -432.46288,-980.4018 -432.46288,-980.4018 C -432.46286,-980.40182 -457.08202,-869.18939 -457.08202,-869.18939 C -457.082,-869.18937 -462.46412,-844.88997 -462.46412,-844.88997 C -462.46412,-844.88994 -410.45486,-844.88997 -410.45486,-844.88997 C -409.90918,-840.90143 -409.27187,-836.98415 -408.58978,-833.11329 C -408.5898,-833.11327 -486.81683,-833.11329 -486.81683,-833.11329 C -486.81681,-833.11327 -480.6354,-861.0363 -480.6354,-861.0363 C -480.63538,-861.0363 -454.20446,-980.4018 -454.20446,-980.4018 z M -544.68778,-968.57183 C -544.68776,-968.57183 -559.12888,-903.45369 -559.12888,-903.45369 C -559.12888,-903.45371 -504.9348,-903.45369 -504.9348,-903.45369 C -504.93481,-903.45371 -490.547,-968.57183 -490.547,-968.57183 C -490.54698,-968.57183 -544.68778,-968.57183 -544.68778,-968.57183 z M -590.24918,-822.88196 C -590.03651,-822.88911 -589.82394,-822.88196 -589.60971,-822.88196 C -587.08598,-822.88194 -584.88199,-822.4386 -583.10856,-821.60305 C -581.21576,-820.71634 -579.86224,-819.39905 -579.11194,-817.65972 C -578.37869,-815.97153 -578.18686,-814.05531 -578.57907,-811.95788 C -578.57907,-811.95787 -578.73892,-811.15855 -578.73892,-811.15855 C -578.73891,-811.15858 -584.97364,-811.15855 -584.97364,-811.15855 C -584.97366,-811.15858 -584.92035,-811.9046 -584.92035,-811.9046 C -584.75917,-813.37003 -584.94084,-814.52239 -585.50653,-815.31503 C -585.58025,-815.41444 -585.68706,-815.54566 -585.77297,-815.63476 C -585.91365,-815.77839 -586.12495,-815.94256 -586.30584,-816.06107 C -587.17822,-816.61057 -588.54287,-816.91369 -590.30246,-816.91369 C -592.63861,-816.91367 -594.38433,-816.50657 -595.57798,-815.68805 C -596.73754,-814.88659 -597.47078,-813.99135 -597.70951,-812.91707 C -597.94826,-811.82573 -597.55605,-811.25235 -597.2832,-810.94541 C -597.2747,-810.93692 -597.24027,-810.90164 -597.22993,-810.89212 C -596.88441,-810.59767 -595.68457,-809.90736 -591.9544,-809.02704 C -588.57808,-808.20853 -586.34208,-807.47315 -585.08022,-806.84222 C -583.17035,-805.87026 -581.83603,-804.61052 -581.13688,-803.05876 C -580.43777,-801.52404 -580.28428,-799.72719 -580.71058,-797.78323 C -581.13688,-795.89044 -582.10247,-794.14471 -583.53486,-792.50769 C -584.95018,-790.87069 -586.75133,-789.57472 -588.91697,-788.67096 C -591.06557,-787.78424 -593.42301,-787.28547 -595.84443,-787.28547 C -598.91383,-787.28548 -601.37786,-787.75014 -603.30477,-788.67096 C -605.31694,-789.62587 -606.76851,-791.13286 -607.62111,-793.09387 C -608.43962,-795.00373 -608.61441,-797.17149 -608.154,-799.54173 C -608.154,-799.54176 -607.99413,-800.28778 -607.99413,-800.28778 C -607.99413,-800.28778 -601.86599,-800.28778 -601.86599,-800.28778 C -601.86599,-800.28778 -601.91928,-799.54173 -601.91928,-799.54173 C -602.07276,-798.12641 -601.92141,-796.98391 -601.54626,-796.1313 C -601.18817,-795.31277 -600.50607,-794.63497 -599.41474,-794.10634 C -598.2552,-793.54364 -596.80576,-793.25374 -595.15169,-793.25374 C -593.66814,-793.25375 -592.31248,-793.50313 -591.10178,-793.94647 C -589.90813,-794.37277 -588.9596,-794.93551 -588.27751,-795.6517 C -587.61249,-796.36792 -587.2224,-797.12458 -587.05188,-797.9431 C -586.88136,-798.67634 -586.92186,-799.2966 -587.21175,-799.80818 C -587.53574,-800.35382 -588.17733,-800.83771 -589.1834,-801.24696 C -589.1834,-801.24697 -594.40566,-802.79232 -594.40566,-802.79232 C -597.32158,-803.52555 -599.28471,-804.2247 -600.42721,-804.92384 C -601.97898,-805.84465 -603.09802,-807.02553 -603.6778,-808.44086 C -604.25757,-809.83917 -604.31938,-811.38877 -603.94423,-813.07694 C -603.55203,-814.88447 -602.68024,-816.60461 -601.33312,-818.13931 C -599.96892,-819.69108 -598.2083,-820.90816 -596.11087,-821.70962 C -594.25644,-822.40502 -592.30491,-822.81283 -590.24918,-822.88196 z M -534.29658,-822.77538 C -533.95933,-822.80165 -533.64222,-822.77538 -533.28411,-822.77538 C -533.2841,-822.77538 -529.44736,-822.34908 -529.44736,-822.34908 C -529.44737,-822.34908 -528.16845,-822.2425 -528.16845,-822.2425 C -528.16843,-822.24249 -530.03353,-817.49986 -530.03353,-817.49986 C -530.03354,-817.49984 -530.40655,-816.75382 -530.40655,-816.75382 C -530.40655,-816.75384 -533.33739,-817.02026 -533.33739,-817.02026 C -534.2028,-817.02026 -534.83852,-816.88674 -535.25577,-816.59396 C -535.28348,-816.57303 -535.33677,-816.50976 -535.36235,-816.48738 C -535.41825,-816.43834 -535.51226,-816.3528 -535.5755,-816.27422 C -535.83209,-815.93771 -536.14462,-815.33636 -536.37482,-814.24927 C -536.37484,-814.24927 -536.48566,-813.78887 -536.58797,-813.39666 C -535.24084,-813.39665 -532.0052,-813.39666 -532.0052,-813.39666 C -532.0052,-813.39665 -533.17753,-808.12114 -533.17753,-808.12114 C -533.17753,-808.12115 -536.52829,-808.12114 -537.65373,-808.12114 C -537.99479,-806.58645 -542.18323,-787.81834 -542.18323,-787.81834 C -542.18325,-787.81836 -548.36466,-787.81834 -548.36466,-787.81834 C -548.36468,-787.81836 -544.34673,-805.85319 -543.83516,-808.12114 C -544.87537,-808.12115 -547.40547,-808.12114 -547.40547,-808.12114 C -547.40547,-808.12115 -546.23313,-813.39666 -546.23313,-813.39666 C -546.23312,-813.39665 -543.68809,-813.39666 -542.71612,-813.39666 C -542.5456,-814.1299 -542.28982,-815.0486 -542.28982,-815.0486 C -541.91466,-816.75382 -541.52247,-817.97945 -541.01091,-818.83206 C -540.31174,-820.00865 -539.32485,-820.99343 -538.08004,-821.70962 C -537.05477,-822.30537 -535.75806,-822.66156 -534.29658,-822.77538 z M -519.53576,-822.50894 C -519.53578,-822.50895 -521.15146,-815.2383 -521.56071,-813.39666 C -520.36707,-813.39665 -517.5641,-813.39666 -517.5641,-813.39666 C -517.5641,-813.39665 -518.73643,-808.12114 -518.73643,-808.12114 C -518.73645,-808.12115 -521.67582,-808.12114 -522.73305,-808.12114 C -523.05706,-806.65467 -525.61061,-795.27868 -525.61061,-795.27868 C -525.61059,-795.2787 -525.82377,-793.91237 -525.82377,-793.52017 C -525.82349,-793.50712 -525.82483,-793.47649 -525.82377,-793.46689 C -525.82293,-793.46286 -525.82497,-793.41692 -525.82377,-793.4136 C -525.82213,-793.41091 -525.77262,-793.41574 -525.77049,-793.4136 C -525.77049,-793.41362 -525.13102,-793.36031 -525.13102,-793.36031 C -525.13102,-793.36031 -522.20017,-793.57346 -522.20017,-793.57346 C -522.20017,-793.57346 -522.5199,-788.83082 -522.5199,-788.83082 C -522.51988,-788.83082 -522.4666,-787.97821 -522.4666,-787.97821 C -522.46662,-787.97823 -526.67638,-787.49861 -526.67638,-787.49861 C -528.34748,-787.49863 -529.57313,-787.77144 -530.45984,-788.35121 C -531.39769,-788.96513 -531.94338,-789.77935 -532.16506,-790.80247 C -532.19917,-790.99006 -532.27164,-791.26289 -532.27164,-791.65508 C -532.27164,-792.42244 -532.12669,-793.72053 -531.63218,-795.97142 C -531.63216,-795.9714 -529.39195,-806.00666 -528.91448,-808.12114 C -529.71591,-808.12115 -531.84533,-808.12114 -531.84533,-808.12114 C -531.84531,-808.12115 -530.673,-813.39666 -530.673,-813.39666 C -530.67302,-813.39665 -528.59476,-813.39666 -527.74214,-813.39666 C -527.46933,-814.62441 -526.51652,-818.83206 -526.51652,-818.83206 C -526.51652,-818.83204 -521.56071,-821.44318 -521.56071,-821.44318 C -521.56072,-821.44316 -519.53576,-822.50894 -519.53576,-822.50894 z M -715.90269,-822.29579 C -715.90267,-822.29579 -691.92301,-822.29579 -691.92301,-822.29579 C -691.92301,-822.29579 -693.25521,-816.32751 -693.25521,-816.32751 C -693.25521,-816.32749 -709.25232,-816.32751 -710.78702,-816.32751 C -711.05984,-815.11678 -712.15333,-810.21429 -712.54553,-808.44086 C -710.32873,-808.44086 -697.3584,-808.44086 -697.3584,-808.44086 C -697.3584,-808.44086 -698.69061,-802.4726 -698.69061,-802.4726 C -698.69062,-802.4726 -712.34303,-802.4726 -713.87774,-802.4726 C -714.20173,-800.98905 -717.12832,-787.81834 -717.12832,-787.81834 C -717.1283,-787.81836 -723.57618,-787.81834 -723.57618,-787.81834 C -723.57617,-787.81836 -715.90269,-822.29579 -715.90269,-822.29579 z M -683.76993,-813.87625 C -683.52926,-813.90581 -683.26635,-813.87625 -683.02389,-813.87625 C -681.48919,-813.87625 -680.07172,-813.40945 -678.70754,-812.43748 C -678.70754,-812.43746 -677.85494,-811.85131 -677.85494,-811.85131 C -677.85494,-811.85131 -681.1588,-806.41591 -681.1588,-806.41591 C -681.1588,-806.41593 -682.06469,-807.05537 -682.06469,-807.05537 C -682.72973,-807.48166 -683.44592,-807.69483 -684.19622,-807.69483 C -684.84421,-807.69481 -685.44743,-807.46463 -686.06131,-807.05537 C -686.70928,-806.62907 -687.25071,-806.06422 -687.65995,-805.29686 C -688.37615,-803.98382 -688.90051,-802.51309 -689.2586,-800.92723 C -689.2586,-800.92722 -692.13616,-787.81834 -692.13616,-787.81834 C -692.13616,-787.81836 -698.31759,-787.81834 -698.31759,-787.81834 C -698.31759,-787.81836 -692.61575,-813.39666 -692.61575,-813.39666 C -692.61573,-813.39665 -686.86063,-813.39666 -686.86063,-813.39666 C -686.86063,-813.39665 -687.05887,-812.62078 -687.12708,-812.3309 C -686.85424,-812.53551 -686.56649,-812.81689 -686.32775,-812.97036 C -685.50178,-813.46326 -684.62938,-813.77071 -683.76993,-813.87625 z M -665.43879,-813.87625 C -665.0666,-813.9044 -664.7002,-813.87625 -664.31973,-813.87625 C -660.84107,-813.87625 -658.20865,-812.65703 -656.48638,-810.25266 C -655.4121,-808.70092 -654.83443,-806.78254 -654.83443,-804.49754 C -654.83443,-803.23569 -654.99004,-801.87789 -655.31402,-800.39435 C -655.31402,-800.39435 -655.79363,-798.52926 -655.79363,-798.52926 C -655.79363,-798.52928 -671.42624,-798.52926 -673.16557,-798.52926 C -673.19968,-798.17118 -673.21886,-797.78749 -673.21886,-797.4635 C -673.21886,-796.13341 -672.94603,-795.08685 -672.36625,-794.31949 C -672.09075,-793.94436 -671.77135,-793.6065 -671.40706,-793.36031 C -670.72028,-792.91242 -669.83372,-792.66756 -668.79594,-792.66756 C -667.53406,-792.66758 -666.42569,-793.01501 -665.3855,-793.68004 C -664.39645,-794.31097 -663.45006,-795.31918 -662.61451,-796.71746 C -662.61451,-796.71749 -656.00678,-796.71746 -656.00678,-796.71746 C -656.00678,-796.71749 -656.59294,-795.43855 -656.59294,-795.43855 C -657.85481,-792.8807 -659.61545,-790.88561 -661.81519,-789.47027 C -664.01492,-788.05494 -666.6431,-787.28547 -669.54198,-787.28547 C -673.31052,-787.28548 -676.11561,-788.50469 -677.85494,-790.90905 C -679.5772,-793.26228 -679.94809,-796.51498 -679.02727,-800.60751 C -678.10644,-804.76824 -676.26907,-808.09342 -673.59188,-810.41253 C -671.1923,-812.49315 -668.46943,-813.64721 -665.43879,-813.87625 z M -637.67564,-813.87625 C -637.30346,-813.9044 -636.93707,-813.87625 -636.5566,-813.87625 C -633.07793,-813.87625 -630.4455,-812.65703 -628.72323,-810.25266 C -627.64894,-808.70092 -627.0713,-806.78254 -627.0713,-804.49754 C -627.0713,-803.25274 -627.2269,-801.91413 -627.5509,-800.44764 C -627.5509,-800.44762 -628.03048,-798.52926 -628.03048,-798.52926 C -628.03048,-798.52928 -643.66311,-798.52926 -645.40243,-798.52926 C -645.4195,-798.29056 -645.43867,-798.07524 -645.45572,-797.83651 C -645.46851,-797.74699 -645.45012,-797.6111 -645.45572,-797.51679 C -645.45622,-797.50141 -645.45572,-797.47842 -645.45572,-797.4635 C -645.45572,-797.2077 -645.41948,-796.9562 -645.40243,-796.71746 C -645.3172,-795.7455 -645.06351,-794.93337 -644.60311,-794.31949 C -644.51544,-794.20013 -644.43303,-794.05279 -644.33667,-793.94647 C -643.55566,-793.11093 -642.45027,-792.66756 -641.0328,-792.66756 C -639.77092,-792.66758 -638.64549,-793.01501 -637.62235,-793.68004 C -636.63331,-794.31097 -635.68693,-795.31918 -634.85137,-796.71746 C -634.85137,-796.71749 -628.19035,-796.71746 -628.19035,-796.71746 C -628.19036,-796.71749 -628.82981,-795.43855 -628.82981,-795.43855 C -630.09167,-792.8807 -631.85231,-790.88561 -634.05205,-789.47027 C -636.25179,-788.05494 -638.87996,-787.28547 -641.77883,-787.28547 C -645.54736,-787.28548 -648.35246,-788.50469 -650.09179,-790.90905 C -651.21724,-792.44377 -651.74373,-794.39836 -651.74373,-796.71746 C -651.74373,-797.07558 -651.72455,-797.46137 -651.69044,-797.83651 C -651.62221,-798.72322 -651.48581,-799.61847 -651.26413,-800.60751 C -650.34329,-804.75119 -648.55922,-808.09342 -645.88203,-810.41253 C -643.48246,-812.49315 -640.70628,-813.64721 -637.67564,-813.87625 z M -562.05973,-813.87625 C -561.67889,-813.90554 -561.32861,-813.87625 -560.94068,-813.87625 C -557.39381,-813.87625 -554.66758,-812.67621 -552.89416,-810.30595 C -551.13776,-807.93572 -550.71147,-804.73841 -551.61525,-800.71409 C -552.31438,-797.57646 -553.32472,-795.04209 -554.70595,-793.20044 C -556.08721,-791.35879 -557.84783,-789.85395 -559.92821,-788.83082 C -561.99149,-787.80768 -564.17634,-787.28547 -566.37607,-787.28547 C -569.99114,-787.28548 -572.68326,-788.52175 -574.42259,-790.90905 C -575.54805,-792.42669 -576.12781,-794.38131 -576.12781,-796.71746 C -576.12779,-797.97933 -575.98925,-799.32006 -575.64821,-800.82065 C -574.62506,-805.39066 -572.53619,-808.87143 -569.46678,-811.10527 C -567.21377,-812.73161 -564.72564,-813.67133 -562.05973,-813.87625 z M -468.4324,-813.87625 C -467.9828,-813.904 -467.56647,-813.87625 -467.1002,-813.87625 C -464.95161,-813.87625 -463.26345,-813.65885 -461.98453,-813.13023 C -460.62035,-812.58454 -459.65264,-811.81294 -459.10697,-810.89212 C -458.57833,-810.02249 -458.30764,-808.95456 -458.30764,-807.64155 C -458.30763,-807.64153 -458.94712,-803.75151 -458.94712,-803.75151 C -458.94709,-803.75151 -460.11944,-798.47597 -460.11944,-798.47597 C -461.12555,-793.97421 -461.3472,-792.28602 -461.39837,-791.65508 C -461.44952,-790.80246 -461.37066,-789.97118 -461.13192,-789.20383 C -461.1319,-789.20385 -460.70562,-787.81834 -460.70562,-787.81834 C -460.7056,-787.81836 -466.99362,-787.81834 -466.99362,-787.81834 C -466.99364,-787.81836 -467.26007,-788.61767 -467.26007,-788.61767 C -467.36238,-788.99279 -467.33254,-789.47027 -467.36664,-789.89658 C -468.56029,-789.16333 -469.75608,-788.51322 -470.83037,-788.13807 C -472.41621,-787.59238 -474.06176,-787.28547 -475.73288,-787.28547 C -478.63174,-787.28548 -480.7782,-788.04001 -482.07418,-789.52357 C -483.0632,-790.6149 -483.51295,-791.94924 -483.51295,-793.46689 C -483.51297,-794.04666 -483.43622,-794.64776 -483.29981,-795.27868 C -483.00993,-796.57465 -482.48343,-797.77471 -481.64787,-798.849 C -480.82936,-799.90626 -479.86164,-800.77589 -478.77031,-801.40682 C -477.71305,-802.03774 -476.53433,-802.48537 -475.30657,-802.79232 C -475.30659,-802.79232 -471.52311,-803.43178 -471.52311,-803.43178 C -468.60717,-803.77284 -466.4309,-804.19699 -464.86209,-804.6574 C -464.82797,-804.82792 -464.75552,-805.03042 -464.75552,-805.03042 C -464.50826,-806.1276 -464.5392,-806.9523 -464.80881,-807.3751 C -464.82865,-807.40237 -464.89299,-807.45824 -464.91538,-807.48168 C -464.97294,-807.54303 -465.06141,-807.63947 -465.12854,-807.69483 C -465.76989,-808.20236 -466.8636,-808.44086 -468.32582,-808.44086 C -469.97989,-808.44086 -471.20338,-808.17015 -472.056,-807.64155 C -472.89155,-807.11292 -473.66531,-806.14521 -474.34739,-804.76399 C -474.3474,-804.764 -480.79526,-804.76399 -480.79526,-804.76399 C -480.79524,-804.764 -480.20909,-806.0429 -480.20909,-806.0429 C -479.44176,-807.81635 -478.52731,-809.28708 -477.38481,-810.41253 C -476.24231,-811.538 -474.69909,-812.40977 -472.90861,-813.02364 C -471.53645,-813.47661 -470.03811,-813.77718 -468.4324,-813.87625 z M -441.41529,-813.87625 C -441.17483,-813.90581 -440.91173,-813.87625 -440.66926,-813.87625 C -439.11753,-813.87625 -437.66381,-813.40945 -436.29963,-812.43748 C -436.29961,-812.43746 -435.50031,-811.85131 -435.50031,-811.85131 C -435.5003,-811.85131 -438.80417,-806.41591 -438.80417,-806.41591 C -438.80416,-806.41593 -439.71007,-807.05537 -439.71007,-807.05537 C -440.3751,-807.48166 -441.05508,-807.69483 -441.78831,-807.69483 C -442.43632,-807.69481 -443.07575,-807.46463 -443.7067,-807.05537 C -444.35467,-806.62907 -444.82574,-806.06422 -445.25204,-805.29686 C -445.9512,-803.98382 -446.4926,-802.51309 -446.85069,-800.92723 C -446.85071,-800.92722 -449.78154,-787.81834 -449.78154,-787.81834 C -449.78152,-787.81836 -455.96296,-787.81834 -455.96296,-787.81834 C -455.96296,-787.81836 -450.26114,-813.39666 -450.26114,-813.39666 C -450.26115,-813.39665 -444.50602,-813.39666 -444.50602,-813.39666 C -444.50602,-813.39665 -444.65096,-812.62078 -444.71916,-812.3309 C -444.44634,-812.53551 -444.17563,-812.81689 -443.91984,-812.97036 C -443.10721,-813.46326 -442.27413,-813.77071 -441.41529,-813.87625 z M -423.13746,-813.87625 C -422.76561,-813.9044 -422.39887,-813.87625 -422.0184,-813.87625 C -418.53974,-813.87625 -415.89027,-812.65703 -414.18503,-810.25266 C -413.09368,-808.70092 -412.5331,-806.78254 -412.5331,-804.49754 C -412.53312,-803.23569 -412.742,-801.87789 -413.06599,-800.39435 C -413.06599,-800.39435 -413.49229,-798.52926 -413.49229,-798.52926 C -413.4923,-798.52928 -429.14197,-798.52926 -430.86423,-798.52926 C -430.89834,-798.17118 -430.97082,-797.78749 -430.97082,-797.4635 C -430.97082,-796.13341 -430.68093,-795.08685 -430.1182,-794.31949 C -430.03054,-794.20013 -429.8952,-794.05279 -429.79848,-793.94647 C -429.74246,-793.8868 -429.64436,-793.78874 -429.58532,-793.73333 C -428.82297,-793.04031 -427.78551,-792.66756 -426.49462,-792.66756 C -425.23273,-792.66758 -424.12435,-793.01501 -423.08417,-793.68004 C -422.09512,-794.31097 -421.16578,-795.31918 -420.31318,-796.71746 C -420.3132,-796.71749 -413.65216,-796.71746 -413.65216,-796.71746 C -413.65216,-796.71749 -414.29162,-795.43855 -414.29162,-795.43855 C -415.55349,-792.8807 -417.33117,-790.88561 -419.51386,-789.47027 C -421.73063,-788.05494 -424.32471,-787.28547 -427.24065,-787.28547 C -431.00916,-787.28548 -433.76099,-788.50469 -435.50031,-790.90905 C -437.22261,-793.26228 -437.62971,-796.51498 -436.72594,-800.60751 C -435.80513,-804.76824 -434.02103,-808.09342 -431.34383,-810.41253 C -428.92908,-812.49315 -426.16531,-813.64721 -423.13746,-813.87625 z M -516.44506,-813.39666 C -516.44504,-813.39665 -510.10375,-813.39666 -510.10375,-813.39666 C -510.10373,-813.39665 -509.32149,-798.21805 -509.30444,-797.99639 C -509.04866,-798.53995 -508.8502,-798.99726 -508.82483,-799.06214 C -508.82482,-799.06213 -501.84409,-813.39666 -501.84409,-813.39666 C -501.84407,-813.39665 -496.03568,-813.39666 -496.03568,-813.39666 C -496.03569,-813.39665 -495.5028,-798.40138 -495.5028,-798.31612 C -495.33225,-798.62303 -487.56286,-813.39666 -487.56286,-813.39666 C -487.56288,-813.39665 -481.27485,-813.39666 -481.27485,-813.39666 C -481.27486,-813.39665 -495.12978,-787.81834 -495.12978,-787.81834 C -495.12976,-787.81836 -500.83161,-787.81834 -500.83161,-787.81834 C -500.83161,-787.81836 -501.38367,-801.68818 -501.41778,-802.4726 C -503.77101,-797.6468 -508.55841,-787.81834 -508.55841,-787.81834 C -508.55841,-787.81836 -514.42009,-787.81834 -514.42009,-787.81834 C -514.42009,-787.81836 -516.44506,-813.39666 -516.44506,-813.39666 z M -665.33221,-808.54744 C -666.80114,-808.48542 -668.13516,-807.95595 -669.3821,-806.9488 C -670.37112,-806.16439 -671.03831,-805.08796 -671.56693,-803.91137 C -671.56693,-803.91135 -661.06916,-803.91137 -661.06916,-803.91137 C -661.05209,-804.09893 -661.01587,-804.32701 -661.01587,-804.49754 C -661.01589,-805.46949 -661.18853,-806.22407 -661.49546,-806.73564 C -662.24574,-807.96341 -663.35841,-808.54744 -665.01248,-808.54744 C -665.11158,-808.54744 -665.23428,-808.55156 -665.33221,-808.54744 z M -637.56908,-808.54744 C -639.038,-808.48542 -640.37203,-807.95595 -641.61898,-806.9488 C -642.60802,-806.16439 -643.25811,-805.08796 -643.80378,-803.91137 C -643.80378,-803.91135 -633.30602,-803.91137 -633.30602,-803.91137 C -633.28898,-804.09893 -633.25273,-804.32701 -633.25273,-804.49754 C -633.25274,-805.46949 -633.40833,-806.22407 -633.73233,-806.73564 C -633.88127,-806.98503 -634.08276,-807.23303 -634.26521,-807.42838 C -634.9772,-808.1641 -635.95711,-808.54744 -637.24934,-808.54744 C -637.34845,-808.54744 -637.47114,-808.55156 -637.56908,-808.54744 z M -422.81772,-808.54744 C -424.32828,-808.50091 -425.73897,-807.9895 -427.02749,-806.9488 C -427.99947,-806.16439 -428.66664,-805.08796 -429.21231,-803.91137 C -429.21229,-803.91135 -418.76782,-803.91137 -418.76782,-803.91137 C -418.75079,-804.09893 -418.71453,-804.32701 -418.71453,-804.49754 C -418.71454,-805.46949 -418.87013,-806.22407 -419.19413,-806.73564 C -419.92737,-807.94636 -421.05709,-808.53038 -422.71115,-808.54744 C -422.76017,-808.54691 -422.76899,-808.54894 -422.81772,-808.54744 z M -562.43274,-808.44086 C -563.84237,-808.27347 -565.1531,-807.63035 -566.37607,-806.52249 C -567.84255,-805.1924 -568.90619,-803.10352 -569.52006,-800.34106 C -569.77585,-799.18151 -569.89309,-798.19035 -569.89309,-797.30364 C -569.89307,-796.09294 -569.66076,-795.14227 -569.20034,-794.42608 C -569.07777,-794.24224 -568.91518,-794.04797 -568.77403,-793.89319 C -568.01599,-793.08831 -566.95744,-792.66756 -565.63003,-792.66756 C -563.90777,-792.66758 -562.39011,-793.30915 -560.94068,-794.63923 C -559.47416,-795.98637 -558.42761,-798.09657 -557.79668,-800.92723 C -557.21688,-803.51918 -557.2979,-805.45459 -558.1164,-806.68235 C -558.9008,-807.87601 -560.04756,-808.44086 -561.63341,-808.44086 C -561.90252,-808.44086 -562.17171,-808.47187 -562.43274,-808.44086 z M -466.14101,-799.11543 C -467.59042,-798.72325 -469.21468,-798.39285 -471.36325,-798.10295 C -472.96614,-797.86421 -474.10866,-797.61271 -474.7737,-797.35692 C -475.35346,-797.1182 -475.82028,-796.78781 -476.21248,-796.34444 C -476.58764,-795.91817 -476.83914,-795.47052 -476.9585,-794.95895 C -476.99259,-794.75431 -477.0118,-794.54331 -477.0118,-794.37278 C -477.0118,-794.35894 -477.01211,-794.3332 -477.0118,-794.31949 C -477.01001,-794.27891 -477.01625,-794.19879 -477.0118,-794.15964 C -477.00112,-794.08227 -476.97963,-793.96524 -476.9585,-793.89319 C -476.95088,-793.86946 -476.91399,-793.8098 -476.90523,-793.78662 C -476.88657,-793.74078 -476.87508,-793.67051 -476.85194,-793.62675 C -476.82767,-793.58349 -476.77404,-793.50826 -476.74536,-793.46689 C -476.70072,-793.40552 -476.63986,-793.31129 -476.58549,-793.25374 C -476.15918,-792.77628 -475.30871,-792.56099 -474.08095,-792.56099 C -472.7338,-792.56098 -471.43785,-792.81677 -470.2442,-793.4136 C -469.06758,-793.99337 -468.11907,-794.85878 -467.41993,-795.86486 C -466.90834,-796.58106 -466.4991,-797.68306 -466.14101,-799.11543 z "
         id="path2579" />
      <path
         d="M -422.64334,-808.5288 C -422.6604,-808.5288 -422.67745,-808.5288 -422.6945,-808.5288 C -421.04043,-808.51175 -419.94909,-807.94902 -419.21585,-806.73832 C -418.89185,-806.22675 -418.72133,-805.4594 -418.72133,-804.48742 C -418.72133,-804.3169 -418.75544,-804.09522 -418.77249,-803.90765 C -418.77249,-803.90765 -418.70428,-803.90765 -418.70428,-803.90765 C -418.70428,-804.09522 -418.67018,-804.3169 -418.67018,-804.48742 C -418.67018,-805.4594 -418.82365,-806.22675 -419.14764,-806.73832 C -419.88088,-807.96608 -420.98928,-808.5288 -422.64334,-808.5288 z "
         id="path2583"
         style="fill:#bd0000;fill-opacity:1;fill-rule:evenodd;stroke:none;stroke-width:1pt;stroke-linecap:butt;stroke-linejoin:miter" />
      <g
         id="g2587"
         style="fill:#bd0000;fill-opacity:1;fill-rule:evenodd;stroke:none;stroke-width:1pt;stroke-linecap:butt;stroke-linejoin:miter"
         transform="matrix(1.705222,0,0,1.705222,-769.6823,-728.9956)">
        <path
           id="path2589"
           d="M 0,36 C 0,36 7.46,36 7.46,36 C 7.46,36 10.81,22 10.81,22 C 10.81,22 22.93,22 22.93,22 C 22.93,22 24.49,16 24.49,16 C 24.49,16 12.32,16 12.32,16 C 12.32,16 14.34,7 14.34,7 C 14.34,7 27.29,7 27.29,7 C 27.29,7 28.85,0 28.85,0 C 28.85,0 8.4,0 8.4,0 C 8.4,0 0,36 0,36 z "
           style="fill:#bd0000;fill-opacity:1" />
      </g>
      <g
         id="g2591"
         style="fill:#bd0000;fill-opacity:1;fill-rule:evenodd;stroke:none;stroke-width:1pt;stroke-linecap:butt;stroke-linejoin:miter"
         transform="matrix(1.705222,0,0,1.705222,-725.4318,-711.9434)">
        <path
           id="path2593"
           d="M 7.51,26 C 7.51,26 9.75,16.6 9.75,16.6 C 10.93,11.51 13.42,7 18.13,7 C 18.55,7 18.96,7.21 19.27,7.26 C 19.27,7.26 21.09,0.05 21.09,0.05 C 20.67,0.05 20.21,0 19.69,0 C 16.22,0 13.31,2.44 11.37,5.94 C 11.37,5.94 11.17,5.94 11.17,5.94 C 11.46,4.23 11.71,2.61 11.9,1 C 11.9,1 5.47,1 5.47,1 C 5.1,3.08 4.53,7.15 3.66,10.82 C 3.66,10.82 0,26 0,26 C 0,26 7.51,26 7.51,26 z "
           style="fill:#bd0000;fill-opacity:1" />
      </g>
      <g
         id="g2595"
         style="fill:#bd0000;fill-opacity:1;fill-rule:evenodd;stroke:none;stroke-width:1pt;stroke-linecap:butt;stroke-linejoin:miter"
         transform="matrix(1.705222,0,0,1.705222,-690.253,-711.9434)">
        <path
           id="path2597"
           d="M 20.06,19.25 C 17.99,20.26 15.63,20 12.88,20 C 10.71,20 9.03,19.62 8.11,18.88 C 7.63,18.07 7.43,16.81 7.47,16 C 17.6,16.27 23.99,13.93 24.31,7.53 C 24.55,2.7 21.02,0 15.89,0 C 6.73,0 0.73,8.08 0.34,15.86 C 0,22.65 3.52,26 10.78,26 C 13.57,26 17.27,25.68 20.3,24.77 C 20.3,24.77 20.06,19.25 20.06,19.25 z M 17.32,7.53 C 17.2,9.91 14.26,10.05 8.47,10 C 9.1,7.91 11.22,6 14.69,6 C 16.4,6 17.38,6.65 17.32,7.53 z "
           style="fill:#bd0000;fill-opacity:1" />
      </g>
      <g
         id="g2599"
         style="fill:#bd0000;fill-opacity:1;fill-rule:evenodd;stroke:none;stroke-width:1pt;stroke-linecap:butt;stroke-linejoin:miter"
         transform="matrix(1.705222,0,0,1.705222,-645.0305,-711.9434)">
        <path
           id="path2601"
           d="M 20.05,19.25 C 17.98,20.26 15.62,20 12.88,20 C 10.7,20 9.03,19.62 8.11,18.88 C 7.63,18.07 7.42,16.81 7.46,16 C 17.6,16.27 23.98,13.93 24.31,7.53 C 24.55,2.7 21.02,0 15.89,0 C 6.72,0 0.72,8.08 0.33,15.86 C 0,22.65 3.52,26 10.77,26 C 13.57,26 17.27,25.68 20.3,24.77 C 20.3,24.77 20.05,19.25 20.05,19.25 z M 17.32,7.53 C 17.2,9.91 14.26,10.05 8.46,10 C 9.1,7.91 11.21,6 14.68,6 C 16.39,6 17.38,6.65 17.32,7.53 z "
           style="fill:#bd0000;fill-opacity:1" />
      </g>
      <g
         id="g2603"
         style="fill:#bd0000;fill-opacity:1;fill-rule:evenodd;stroke:none;stroke-width:1pt;stroke-linecap:butt;stroke-linejoin:miter"
         transform="matrix(1.705222,0,0,1.705222,-583.796,-711.9434)">
        <path
           id="path2605"
           d="M 22.74,26 C 22.8,22.83 23.56,17.85 24.35,14.58 C 24.35,14.58 27.56,1 27.56,1 C 25.52,0.31 22.34,0 19.28,0 C 6.86,0 0.7,9.2 0.27,17.82 C 0,23.23 2.93,26 7.49,26 C 10.44,26 13.77,24.57 16.36,20.27 C 16.36,20.27 16.47,20.27 16.47,20.27 C 16.27,22.34 16.03,24.35 15.9,26 C 15.9,26 22.74,26 22.74,26 z M 17.61,11.72 C 16.15,18.08 13.17,20 10.95,20 C 8.88,20 7.98,18.53 8.1,16.39 C 8.34,11.56 12.16,6 16.98,6 C 17.76,6 18.37,5.86 18.94,5.72 C 18.94,5.72 17.61,11.72 17.61,11.72 z "
           style="fill:#bd0000;fill-opacity:1" />
      </g>
      <g
         id="g2607"
         style="fill:#bd0000;fill-opacity:1;fill-rule:evenodd;stroke:none;stroke-width:1pt;stroke-linecap:butt;stroke-linejoin:miter"
         transform="matrix(1.705222,0,0,1.705222,-536.6807,-711.9434)">
        <path
           id="path2609"
           d="M 0,24.82 C 1.44,25.94 4.46,25.95 7.61,26 C 14.34,26.05 19.42,23.11 19.72,17.71 C 19.89,14.11 17.1,11.98 14.37,10.55 C 12.4,9.6 11.41,8.69 11.46,7.63 C 11.53,6.2 12.87,6 14.84,6 C 17.06,6 18.84,6.27 19.86,6.47 C 19.86,6.47 21.88,1.05 21.88,1.05 C 20.73,0.36 18.43,0 15.48,0 C 8.95,0 4.17,3.45 3.9,8.69 C 3.74,11.93 6.07,14.11 8.89,15.59 C 11.17,16.76 11.95,17.66 11.89,18.93 C 11.82,20.21 10.68,20 8.61,20 C 6.18,20 3.49,19.68 2.07,19.46 C 2.07,19.46 0,24.82 0,24.82 z "
           style="fill:#bd0000;fill-opacity:1" />
      </g>
      <g
         id="g2611"
         style="fill:#bd0000;fill-opacity:1;fill-rule:evenodd;stroke:none;stroke-width:1pt;stroke-linecap:butt;stroke-linejoin:miter"
         transform="matrix(1.705222,0,0,1.705222,-481.3463,-730.7008)">
        <path
           id="path2613"
           d="M 7.45,37 C 7.45,37 13.5,12 13.5,12 C 13.5,12 6.09,12 6.09,12 C 6.09,12 0,37 0,37 C 0,37 7.45,37 7.45,37 z M 10.92,9 C 13.46,9 15.72,6.9 15.86,3.3 C 15.98,0.86 14.4,0 12.07,0 C 9.64,0 7.42,1.58 7.29,3.94 C 7.17,6.32 8.75,9 10.92,9 z "
           style="fill:#bd0000;fill-opacity:1" />
      </g>
      <g
         id="g2615"
         style="fill:#bd0000;fill-opacity:1;fill-rule:evenodd;stroke:none;stroke-width:1pt;stroke-linecap:butt;stroke-linejoin:miter"
         transform="matrix(1.705222,0,0,1.705222,-456.9787,-710.7668)">
        <path
           id="path2617"
           d="M 7.46,25.31 C 7.46,25.31 10.1,14.05 10.1,14.05 C 11.47,8.32 14.42,6.31 16.85,6.31 C 18.77,6.31 19.33,7.13 19.24,8.32 C 19.19,9.28 19.04,10.29 18.84,11.19 C 18.84,11.19 15.48,25.31 15.48,25.31 C 15.48,25.31 22.94,25.31 22.94,25.31 C 22.94,25.31 26.48,10.5 26.48,10.5 C 26.75,9.22 27.05,7.31 27.11,6.15 C 27.33,1.64 25.08,0 20.94,0 C 17.62,0 14.39,1.54 11.84,4.88 C 11.84,4.88 11.74,4.88 11.74,4.88 C 11.74,4.88 12.42,0.31 12.42,0.31 C 12.42,0.31 5.84,0.31 5.84,0.31 C 5.41,2.45 4.86,5.04 4.08,8.06 C 4.08,8.06 0,25.31 0,25.31 C 0,25.31 7.46,25.31 7.46,25.31 z "
           style="fill:#bd0000;fill-opacity:1" />
      </g>
      <g
         id="g2619"
         style="fill:#bd0000;fill-opacity:1;fill-rule:evenodd;stroke:none;stroke-width:1pt;stroke-linecap:butt;stroke-linejoin:miter"
         transform="matrix(1.705222,0,0,1.705222,-389.5201,-728.9956)">
        <path
           id="path2621"
           d="M 0,36 C 0,36 7.46,36 7.46,36 C 7.46,36 10.82,22 10.82,22 C 10.82,22 22.93,22 22.93,22 C 22.93,22 24.49,16 24.49,16 C 24.49,16 12.32,16 12.32,16 C 12.32,16 14.34,7 14.34,7 C 14.34,7 27.29,7 27.29,7 C 27.29,7 28.85,0 28.85,0 C 28.85,0 8.4,0 8.4,0 C 8.4,0 0,36 0,36 z "
           style="fill:#bd0000;fill-opacity:1" />
      </g>
      <g
         id="g2623"
         style="fill:#bd0000;fill-opacity:1;fill-rule:evenodd;stroke:none;stroke-width:1pt;stroke-linecap:butt;stroke-linejoin:miter"
         transform="matrix(1.705222,0,0,1.705222,-345.2696,-711.9434)">
        <path
           id="path2625"
           d="M 7.51,26 C 7.51,26 9.75,16.6 9.75,16.6 C 10.93,11.51 13.42,7 18.13,7 C 18.55,7 18.96,7.21 19.27,7.26 C 19.27,7.26 21.09,0.05 21.09,0.05 C 20.67,0.05 20.21,0 19.69,0 C 16.22,0 13.31,2.44 11.37,5.94 C 11.37,5.94 11.17,5.94 11.17,5.94 C 11.46,4.23 11.71,2.61 11.9,1 C 11.9,1 5.47,1 5.47,1 C 5.11,3.08 4.53,7.15 3.66,10.82 C 3.66,10.82 0,26 0,26 C 0,26 7.51,26 7.51,26 z "
           style="fill:#bd0000;fill-opacity:1" />
      </g>
      <g
         id="g2627"
         style="fill:#bd0000;fill-opacity:1;fill-rule:evenodd;stroke:none;stroke-width:1pt;stroke-linecap:butt;stroke-linejoin:miter"
         transform="matrix(1.705222,0,0,1.705222,-310.0908,-711.9434)">
        <path
           id="path2629"
           d="M 20.06,19.25 C 17.99,20.26 15.63,20 12.88,20 C 10.71,20 9.03,19.62 8.11,18.88 C 7.63,18.07 7.43,16.81 7.47,16 C 17.6,16.27 23.99,13.93 24.31,7.53 C 24.55,2.7 21.02,0 15.89,0 C 6.73,0 0.73,8.08 0.34,15.86 C 0,22.65 3.53,26 10.78,26 C 13.57,26 17.28,25.68 20.3,24.77 C 20.3,24.77 20.06,19.25 20.06,19.25 z M 17.32,7.53 C 17.2,9.91 14.26,10.05 8.47,10 C 9.1,7.91 11.22,6 14.69,6 C 16.4,6 17.38,6.65 17.32,7.53 z "
           style="fill:#bd0000;fill-opacity:1" />
      </g>
      <g
         id="g2631"
         style="fill:#bd0000;fill-opacity:1;fill-rule:evenodd;stroke:none;stroke-width:1pt;stroke-linecap:butt;stroke-linejoin:miter"
         transform="matrix(1.705222,0,0,1.705222,-264.8684,-711.9434)">
        <path
           id="path2633"
           d="M 20.05,19.25 C 17.98,20.26 15.62,20 12.88,20 C 10.7,20 9.03,19.62 8.11,18.88 C 7.63,18.07 7.42,16.81 7.46,16 C 17.6,16.27 23.98,13.93 24.31,7.53 C 24.55,2.7 21.02,0 15.89,0 C 6.72,0 0.72,8.08 0.33,15.86 C 0,22.65 3.52,26 10.77,26 C 13.57,26 17.27,25.68 20.3,24.77 C 20.3,24.77 20.05,19.25 20.05,19.25 z M 17.32,7.53 C 17.2,9.91 14.26,10.05 8.46,10 C 9.1,7.91 11.21,6 14.68,6 C 16.39,6 17.38,6.65 17.32,7.53 z "
           style="fill:#bd0000;fill-opacity:1" />
      </g>
      <g
         id="g2635"
         style="fill:#bd0000;fill-opacity:1;fill-rule:evenodd;stroke:none;stroke-width:1pt;stroke-linecap:butt;stroke-linejoin:miter"
         transform="matrix(1.705222,0,0,1.705222,-219.8846,-730.7008)">
        <path
           id="path2637"
           d="M 23.31,0 C 23.31,0 20.5,11.36 20.5,11.36 C 19.48,10.94 18.15,11 17.11,11 C 7.53,11 0.75,19.2 0.3,28.08 C 0,34.34 3.34,37 7.64,37 C 10.65,37 13.82,35.67 16.22,32.23 C 16.22,32.23 16.32,32.23 16.32,32.23 C 16.32,32.23 15.75,37 15.75,37 C 15.75,37 22.53,37 22.53,37 C 22.84,34 23.49,30.43 24.22,27.17 C 24.22,27.17 30.71,0 30.71,0 C 30.71,0 23.31,0 23.31,0 z M 17.47,24.42 C 16.3,29.35 13.54,31 11.36,31 C 9.19,31 7.98,29.49 8.13,26.8 C 8.38,21.82 11.8,17 16.25,17 C 17.5,17 18.57,17.19 19.16,17.47 C 19.16,17.47 17.47,24.42 17.47,24.42 z "
           style="fill:#bd0000;fill-opacity:1" />
      </g>
      <g
         id="g2639"
         style="fill:#bd0000;fill-opacity:1;fill-rule:evenodd;stroke:none;stroke-width:1pt;stroke-linecap:butt;stroke-linejoin:miter"
         transform="matrix(1.705222,0,0,1.705222,-169.2225,-711.9434)">
        <path
           id="path2641"
           d="M 10.61,26 C 19.31,26 26.02,19.41 26.49,10.44 C 26.78,4.5 23.08,0 16.25,0 C 7.23,0 0.76,7.3 0.31,16.12 C 0,22.54 4.14,26 10.61,26 z M 11.78,20 C 9.24,20 7.84,18.38 7.99,15.96 C 8.19,11.93 10.68,6 14.97,6 C 17.93,6 18.84,8.27 18.72,10.5 C 18.5,14.9 15.82,20 11.78,20 z "
           style="fill:#bd0000;fill-opacity:1" />
      </g>
      <g
         id="g2643"
         style="fill:#bd0000;fill-opacity:1;fill-rule:evenodd;stroke:none;stroke-width:1pt;stroke-linecap:butt;stroke-linejoin:miter"
         transform="matrix(1.705222,0,0,1.705222,-120.5213,-711.9434)">
        <path
           id="path2645"
           d="M 7.2,26 C 7.2,26 9.9,14.58 9.9,14.58 C 11.03,9.49 13.85,6 16.38,6 C 18.2,6 18.7,7.33 18.61,9.07 C 18.56,9.97 18.36,10.98 18.15,11.98 C 18.15,11.98 14.81,26 14.81,26 C 14.81,26 22.01,26 22.01,26 C 22.01,26 24.71,14.53 24.71,14.53 C 25.95,9.28 28.61,6 31.09,6 C 32.8,6 33.51,7.22 33.43,8.96 C 33.38,9.97 33.17,11.08 32.91,12.09 C 32.91,12.09 29.67,26 29.67,26 C 29.67,26 36.92,26 36.92,26 C 36.92,26 40.41,11.19 40.41,11.19 C 40.68,9.86 40.99,7.79 41.04,6.73 C 41.26,2.33 39.11,0 35.23,0 C 31.91,0 28.68,1.5 26.23,4.66 C 26.14,2.38 24.51,0 20.47,0 C 17.2,0 14.08,1.48 11.58,4.83 C 11.58,4.83 11.48,4.83 11.48,4.83 C 11.48,4.83 12.15,1 12.15,1 C 12.15,1 5.73,1 5.73,1 C 5.31,3.14 4.8,5.73 4.02,8.75 C 4.02,8.75 0,26 0,26 C 0,26 7.2,26 7.2,26 z "
           style="fill:#bd0000;fill-opacity:1" />
      </g>
      <path
         style="fill:#bd0000;fill-opacity:0;fill-rule:evenodd;stroke:#bd0000;stroke-width:8.52610779;stroke-linecap:butt;stroke-linejoin:miter;stroke-miterlimit:4;stroke-opacity:1"
         id="path2647"
         d="M -379.16734,-782.02036 C -378.47513,-780.24074 -377.78289,-778.46403 -377.06184,-776.72626 C -375.95138,-774.36549 -374.66788,-772.10566 -373.1248,-769.99581 C -364.78923,-758.66495 -350.82934,-752.46086 -333.10549,-750.91634 C -333.10549,-750.91634 -314.04043,-750.91634 -314.04043,-750.91634 C -308.01232,-751.38648 -301.69576,-752.2633 -295.14845,-753.54393 C -283.85652,-755.75183 -271.88678,-759.14373 -259.45557,-763.67637 C -250.03842,-767.11012 -240.36167,-771.17261 -230.54072,-775.89415 C -209.15384,-786.1463 -187.06031,-799.36924 -165.38497,-815.3265 C -158.2464,-820.57732 -151.39625,-825.96513 -144.8201,-831.4438 C -138.79197,-836.45956 -133.009,-841.55322 -127.48564,-846.70307 C -112.06919,-861.55996 -100.43114,-876.64904 -93.840573,-889.89797 C -86.976053,-903.69487 -85.605963,-915.49155 -91.230293,-922.9229 C -94.677023,-927.48436 -100.44556,-929.92879 -107.87257,-930.5042 C -74.415043,-955.60891 -54.917293,-986.06253 -61.911613,-1005.2631 C -64.132573,-1011.3908 -69.021423,-1015.9623 -76.030193,-1018.4904 C -79.145163,-1019.6109 -82.649623,-1020.3205 -86.471293,-1020.6435 C -86.471293,-1020.6435 -96.768123,-1020.6435 -96.768123,-1020.6435 C -111.1462,-1019.6066 -132.05476,-1014.4582 -149.79302,-1005.765"
         sodipodi:nodetypes="cccccssccccscccsccc" />
    </g>
  </g>
</svg>
